{"glyphs":{"0":{"ha":903,"x_min":86,"x_max":817,"o":"m 451 -21 q 190 106 294 -21 q 86 494 86 233 q 194 863 86 732 q 451 993 301 993 q 709 860 601 993 q 817 489 817 726 q 711 104 817 229 q 451 -21 606 -21 m 451 88 q 627 188 560 88 q 694 489 694 289 q 686 606 694 551 l 236 278 q 451 88 296 88 m 208 494 q 215 379 208 438 l 664 707 q 451 883 603 883 q 275 786 342 883 q 208 494 208 689 z "},"1":{"ha":903,"x_min":118,"x_max":785,"o":"m 118 0 l 118 104 l 404 104 l 404 840 l 138 672 l 138 797 l 418 972 l 511 972 l 511 104 l 785 104 l 785 0 l 118 0 z "},"2":{"ha":903,"x_min":132,"x_max":771,"o":"m 138 0 l 138 88 q 188 296 138 222 q 404 458 233 368 q 483 501 463 490 q 542 538 503 513 q 595 576 582 563 q 627 614 608 590 q 651 662 646 638 q 657 717 657 686 q 608 838 657 788 q 460 889 558 889 q 306 830 364 889 q 243 664 249 771 l 132 675 q 228 909 138 825 q 463 993 319 993 q 688 912 607 993 q 768 711 768 831 q 750 599 768 647 q 685 510 732 551 q 612 453 638 469 q 517 400 586 438 q 497 389 504 393 q 452 365 482 381 q 411 342 422 349 q 378 324 400 336 q 348 304 357 311 q 325 286 339 297 q 303 265 311 275 q 288 244 294 256 q 260 115 260 201 l 771 115 l 771 0 l 138 0 z "},"3":{"ha":903,"x_min":113,"x_max":789,"o":"m 113 319 l 225 342 q 297 146 242 208 q 463 83 353 83 q 623 138 568 83 q 678 274 678 193 q 465 471 678 471 l 396 471 l 396 571 l 425 571 q 483 575 456 571 q 553 592 511 579 q 619 640 594 606 q 644 726 644 675 q 596 846 644 803 q 464 889 547 889 q 331 840 381 889 q 271 704 282 792 l 163 724 q 258 919 175 846 q 465 993 340 993 q 674 924 592 993 q 756 733 756 856 q 709 599 756 651 q 604 532 663 547 l 604 529 q 735 444 682 511 q 789 271 789 378 q 699 62 789 144 q 464 -21 608 -21 q 225 63 318 -21 q 113 319 132 146 z "},"4":{"ha":903,"x_min":69,"x_max":806,"o":"m 69 225 l 69 329 l 510 972 l 685 972 l 685 331 l 806 331 l 806 225 l 685 225 l 685 0 l 574 0 l 574 225 l 69 225 m 193 331 l 574 331 l 574 885 l 571 885 l 193 331 z "},"5":{"ha":903,"x_min":108,"x_max":794,"o":"m 108 249 l 218 288 q 456 85 274 85 q 621 149 560 85 q 682 326 682 214 q 622 494 682 433 q 461 556 561 556 q 244 439 319 556 l 142 483 l 229 972 l 708 972 l 708 867 l 317 867 l 261 560 l 263 558 q 349 624 292 597 q 485 650 407 650 q 704 560 614 650 q 794 325 794 471 q 699 74 794 168 q 456 -21 603 -21 q 231 53 321 -21 q 108 249 142 128 z "},"6":{"ha":903,"x_min":89,"x_max":813,"o":"m 476 85 q 642 148 583 85 q 701 318 701 211 q 640 485 701 422 q 472 549 578 549 q 307 483 374 549 q 240 332 240 418 q 307 155 240 225 q 476 85 374 85 m 765 746 l 660 718 q 464 889 615 889 q 285 785 360 889 q 208 486 210 682 l 210 485 q 236 528 218 504 q 287 580 254 551 q 372 627 319 608 q 486 646 425 646 q 717 557 622 646 q 813 319 813 468 q 718 70 813 161 q 476 -21 624 -21 q 334 7 401 -21 q 210 90 267 35 q 122 244 154 146 q 89 471 89 342 q 196 847 89 701 q 467 993 303 993 q 669 922 594 993 q 765 746 744 851 z "},"7":{"ha":903,"x_min":168,"x_max":781,"o":"m 196 0 l 665 863 l 665 865 l 168 865 l 168 972 l 781 972 l 781 853 l 321 0 l 196 0 z "},"8":{"ha":903,"x_min":108,"x_max":794,"o":"m 587 846 q 564 869 587 846 q 453 892 542 892 q 318 845 364 892 q 272 732 272 799 q 322 616 272 663 q 453 569 372 569 q 583 616 533 569 q 632 732 632 663 q 587 846 632 800 m 701 57 q 654 18 701 57 q 453 -21 607 -21 q 203 57 299 -21 q 108 275 108 135 q 163 435 108 367 q 290 526 217 503 l 290 529 q 198 608 235 553 q 161 743 161 663 q 241 918 161 843 q 453 993 321 993 q 665 918 585 993 q 744 743 744 843 q 707 608 744 663 q 615 529 669 553 l 615 526 q 742 433 690 500 q 794 275 794 367 q 701 57 794 135 m 453 88 q 617 141 557 88 q 678 279 678 194 q 615 421 678 367 q 453 475 553 475 q 290 421 353 475 q 226 279 226 367 q 287 141 226 194 q 453 88 347 88 z "},"9":{"ha":903,"x_min":106,"x_max":796,"o":"m 144 224 l 251 257 q 454 83 294 83 q 686 482 685 83 l 683 482 q 663 444 678 465 q 618 396 647 422 q 540 351 589 369 q 429 333 490 333 q 198 424 290 333 q 106 664 106 515 q 200 902 106 811 q 428 993 294 993 q 697 866 597 993 q 796 485 796 739 q 701 100 796 221 q 453 -21 607 -21 q 251 46 332 -21 q 144 224 171 113 m 436 436 q 594 499 533 436 q 654 658 654 561 q 591 823 654 757 q 428 889 528 889 q 276 828 336 889 q 217 664 217 767 q 276 498 217 560 q 436 436 336 436 z "},"\u0000":{"ha":833,"x_min":0,"x_max":0,"o":""},"\r":{"ha":833,"x_min":0,"x_max":0,"o":""}," ":{"ha":833,"x_min":0,"x_max":0,"o":""},"!":{"ha":903,"x_min":369,"x_max":532,"o":"m 394 289 l 394 972 l 508 972 l 508 289 l 394 289 m 369 0 l 369 160 l 532 160 l 532 0 l 369 0 z "},"\"":{"ha":903,"x_min":322,"x_max":581,"o":"m 322 661 l 322 972 l 410 972 l 410 661 l 322 661 m 493 661 l 493 972 l 581 972 l 581 661 l 493 661 z "},"#":{"ha":903,"x_min":79,"x_max":822,"o":"m 246 215 l 258 415 l 79 415 l 79 499 l 264 499 l 278 688 l 124 688 l 124 769 l 282 769 l 297 972 l 386 972 l 372 769 l 557 769 l 571 972 l 661 972 l 647 769 l 822 769 l 822 688 l 642 688 l 629 499 l 778 499 l 778 415 l 624 415 l 611 215 l 521 215 l 533 415 l 349 415 l 336 215 l 246 215 m 354 499 l 539 499 l 551 688 l 367 688 l 354 499 z "},"$":{"ha":903,"x_min":72,"x_max":831,"o":"m 72 335 l 192 358 q 263 168 213 232 q 422 92 313 104 q 423 278 422 153 q 424 464 424 403 q 192 571 267 506 q 117 735 117 636 q 199 913 117 839 q 425 993 282 988 l 425 1076 l 486 1076 l 486 990 q 690 913 610 979 q 789 725 769 846 l 675 700 q 615 826 657 781 q 485 881 572 872 l 485 561 q 756 439 682 504 q 831 261 831 374 q 740 59 831 138 q 483 -21 650 -19 l 483 -136 l 422 -136 l 422 -18 q 72 335 113 11 m 485 447 q 484 267 485 388 q 483 88 483 147 q 658 136 601 88 q 715 263 715 185 q 669 367 715 328 q 485 447 622 407 m 233 735 q 276 644 233 681 q 424 578 318 607 l 424 883 q 281 839 329 881 q 233 735 233 797 z "},"%":{"ha":903,"x_min":111,"x_max":790,"o":"m 241 779 q 258 752 241 779 q 340 725 275 725 q 440 779 406 725 q 475 926 475 833 q 440 1065 475 1018 q 340 1111 404 1111 q 242 1065 278 1111 q 207 926 207 1018 q 241 779 207 833 m 340 638 q 172 715 233 638 q 111 928 111 792 q 180 1128 111 1057 q 340 1200 249 1200 q 502 1128 433 1200 q 571 928 571 1057 q 508 717 571 796 q 340 638 446 638 m 460 -81 q 477 -108 460 -81 q 560 -135 494 -135 q 660 -81 625 -135 q 694 67 694 -26 q 659 205 694 158 q 560 251 624 251 q 462 205 497 251 q 426 67 426 158 q 460 -81 426 -26 m 560 -222 q 392 -145 453 -222 q 331 68 331 -68 q 399 269 331 197 q 560 340 468 340 q 722 269 653 340 q 790 68 790 197 q 728 -143 790 -64 q 560 -222 665 -222 m 217 294 l 169 378 l 686 678 l 733 594 l 217 294 z "},"&":{"ha":903,"x_min":90,"x_max":856,"o":"m 788 97 l 711 164 q 607 33 686 88 q 408 -21 528 -21 q 182 50 274 -21 q 90 260 90 121 q 265 567 90 447 q 188 761 188 660 q 254 926 188 858 q 428 993 321 993 q 588 938 524 993 q 671 778 653 882 l 568 756 q 429 890 542 890 q 335 854 369 890 q 301 763 301 818 q 371 622 301 689 l 638 364 l 638 544 l 740 544 l 740 281 l 856 181 l 788 97 m 622 236 l 342 500 q 201 267 201 415 q 260 133 201 178 q 410 88 319 88 q 551 128 494 88 q 622 236 608 169 z "},"'":{"ha":903,"x_min":407,"x_max":494,"o":"m 407 661 l 407 972 l 494 972 l 494 661 l 407 661 z "},"(":{"ha":903,"x_min":276,"x_max":626,"o":"m 626 -214 l 553 -274 q 492 -199 529 -251 q 401 -57 454 -147 q 313 160 349 33 q 276 414 276 286 q 302 635 276 526 q 361 815 328 743 q 440 953 394 886 q 508 1045 485 1019 q 553 1092 532 1071 l 626 1032 q 452 767 514 906 q 390 415 390 628 q 626 -214 390 85 z "},")":{"ha":903,"x_min":276,"x_max":626,"o":"m 350 -274 l 276 -214 q 513 415 513 85 q 451 767 513 628 q 276 1032 389 906 l 350 1092 q 394 1045 371 1071 q 463 953 418 1019 q 542 815 508 886 q 601 635 575 743 q 626 414 626 526 q 590 160 626 286 q 501 -57 554 33 q 411 -199 449 -147 q 350 -274 374 -251 z "},"*":{"ha":903,"x_min":194,"x_max":708,"o":"m 236 533 l 364 688 l 194 789 l 243 867 l 406 772 l 406 972 l 497 972 l 497 772 l 661 867 l 708 788 l 539 688 l 668 533 l 597 471 l 451 651 l 307 471 l 236 533 z "},"+":{"ha":903,"x_min":125,"x_max":778,"o":"m 401 167 l 401 482 l 125 482 l 125 574 l 401 574 l 401 854 l 501 854 l 501 574 l 778 574 l 778 482 l 501 482 l 501 167 l 401 167 z "},",":{"ha":903,"x_min":369,"x_max":533,"o":"m 369 -147 l 369 -85 q 436 0 436 -72 l 369 0 l 369 164 l 533 164 l 533 21 q 369 -147 533 -136 z "},"-":{"ha":903,"x_min":222,"x_max":679,"o":"m 222 422 l 222 525 l 679 525 l 679 422 l 222 422 z "},".":{"ha":903,"x_min":369,"x_max":533,"o":"m 369 0 l 369 164 l 533 164 l 533 0 l 369 0 z "},"/":{"ha":903,"x_min":161,"x_max":754,"o":"m 161 -21 l 661 1035 l 754 993 l 254 -60 l 161 -21 z "},":":{"ha":903,"x_min":369,"x_max":533,"o":"m 369 0 l 369 164 l 533 164 l 533 0 l 369 0 m 369 572 l 369 736 l 533 736 l 533 572 l 369 572 z "},";":{"ha":903,"x_min":369,"x_max":533,"o":"m 369 -147 l 369 -85 q 436 0 436 -72 l 369 0 l 369 164 l 533 164 l 533 21 q 369 -147 533 -136 m 369 572 l 369 736 l 533 736 l 533 572 l 369 572 z "},"<":{"ha":903,"x_min":154,"x_max":749,"o":"m 154 440 l 156 538 l 697 861 l 749 778 l 264 489 l 749 196 l 696 114 l 154 440 z "},"=":{"ha":903,"x_min":129,"x_max":772,"o":"m 129 346 l 129 443 l 772 443 l 772 346 l 129 346 m 129 579 l 129 676 l 772 676 l 772 579 l 129 579 z "},">":{"ha":903,"x_min":85,"x_max":679,"o":"m 678 538 l 679 440 l 138 114 l 85 196 l 569 489 l 85 778 l 136 861 l 678 538 z "},"?":{"ha":903,"x_min":149,"x_max":753,"o":"m 358 264 l 358 340 q 383 426 358 390 q 474 513 407 463 q 540 561 522 547 q 587 605 557 575 q 627 664 617 635 q 638 731 638 693 q 594 840 638 792 q 461 888 551 888 q 261 676 275 888 l 149 688 q 233 908 151 824 q 464 993 315 993 q 672 920 590 993 q 753 735 753 847 q 731 623 753 671 q 683 551 708 575 q 601 485 658 528 q 560 453 588 474 q 525 425 533 432 q 501 403 517 418 q 481 381 486 389 q 472 358 476 372 q 468 329 468 344 l 468 264 l 358 264 m 336 0 l 336 160 l 499 160 l 499 0 l 336 0 z "},"@":{"ha":903,"x_min":89,"x_max":814,"o":"m 542 381 l 542 511 l 539 511 q 454 465 529 489 q 363 424 386 444 q 340 363 340 403 q 370 298 340 318 q 443 278 400 278 q 512 304 482 278 q 542 381 542 331 m 649 108 l 686 46 q 589 -1 651 19 q 454 -21 526 -21 q 183 118 278 -21 q 89 481 89 257 q 189 848 89 704 q 463 992 289 992 q 722 852 631 992 q 814 494 814 713 q 779 263 814 326 q 676 200 744 200 q 567 263 597 200 l 564 263 q 511 218 547 236 q 429 200 475 200 q 304 244 353 200 q 256 361 256 288 q 294 467 256 428 q 426 532 332 507 q 518 565 494 550 q 542 611 542 581 q 519 669 542 646 q 453 692 497 692 q 353 592 372 692 l 276 610 q 332 725 283 682 q 450 768 381 768 q 575 724 528 768 q 622 596 622 681 l 622 332 q 635 288 622 301 q 679 274 649 274 q 725 321 711 274 q 739 492 739 368 q 670 802 739 683 q 463 921 601 921 q 243 798 321 921 q 165 481 165 675 q 238 169 165 288 q 454 51 311 51 q 649 108 564 51 z "},"A":{"ha":903,"x_min":68,"x_max":833,"o":"m 713 0 l 647 190 l 249 190 l 189 0 l 68 0 l 390 972 l 511 972 l 833 0 l 713 0 m 614 290 l 451 818 l 449 818 l 281 290 l 614 290 z "},"B":{"ha":903,"x_min":135,"x_max":794,"o":"m 135 0 l 135 972 l 471 972 q 679 901 600 972 q 758 721 758 831 q 633 526 758 581 l 633 522 q 747 440 699 501 q 794 288 794 379 q 708 76 794 151 q 447 0 622 0 l 135 0 m 254 561 l 450 561 q 640 714 640 561 q 590 827 640 788 q 449 867 539 867 l 254 867 l 254 561 m 254 106 l 432 106 q 615 149 554 106 q 676 288 676 192 q 618 419 676 381 q 435 458 560 458 l 254 458 l 254 106 z "},"C":{"ha":903,"x_min":107,"x_max":821,"o":"m 481 883 q 300 785 368 883 q 232 494 232 688 q 299 190 232 293 q 481 88 365 88 q 636 163 582 88 q 700 361 690 239 l 821 346 q 718 78 810 178 q 481 -21 626 -21 q 213 106 319 -21 q 107 494 107 232 q 215 863 107 733 q 481 993 322 993 q 708 899 617 993 q 818 654 800 804 l 701 633 q 631 813 685 743 q 481 883 578 883 z "},"D":{"ha":903,"x_min":133,"x_max":824,"o":"m 253 106 l 382 106 q 699 488 699 106 q 616 769 699 671 q 390 867 533 867 l 253 867 l 253 106 m 133 0 l 133 972 l 400 972 q 558 943 483 972 q 692 857 632 914 q 788 705 753 800 q 824 488 824 610 q 788 256 824 354 q 688 103 751 157 q 551 25 624 50 q 392 0 478 0 l 133 0 z "},"E":{"ha":903,"x_min":183,"x_max":758,"o":"m 183 0 l 183 972 l 758 972 l 758 867 l 303 867 l 303 551 l 719 551 l 719 449 l 303 449 l 303 106 l 758 106 l 758 0 l 183 0 z "},"F":{"ha":903,"x_min":194,"x_max":758,"o":"m 194 0 l 194 972 l 758 972 l 758 867 l 315 867 l 315 515 l 719 515 l 719 414 l 315 414 l 315 0 l 194 0 z "},"G":{"ha":903,"x_min":101,"x_max":819,"o":"m 481 -21 q 209 107 317 -21 q 101 496 101 235 q 212 863 101 732 q 481 993 322 993 q 699 904 608 993 q 811 672 789 815 l 696 651 q 626 819 679 756 q 481 883 572 883 q 297 785 368 883 q 226 496 226 688 q 297 192 226 296 q 481 88 367 88 q 645 164 583 88 q 704 371 707 240 l 460 371 l 460 476 l 819 476 l 819 382 q 724 87 819 194 q 481 -21 629 -21 z "},"H":{"ha":903,"x_min":129,"x_max":774,"o":"m 129 0 l 129 972 l 249 972 l 249 554 l 656 554 l 656 972 l 774 972 l 774 0 l 656 0 l 656 451 l 249 451 l 249 0 l 129 0 z "},"I":{"ha":903,"x_min":160,"x_max":743,"o":"m 160 868 l 160 972 l 743 972 l 743 868 l 510 868 l 510 104 l 743 104 l 743 0 l 160 0 l 160 104 l 392 104 l 392 868 l 160 868 z "},"J":{"ha":903,"x_min":144,"x_max":733,"o":"m 247 868 l 247 972 l 733 972 l 733 317 q 659 63 733 147 q 449 -21 585 -21 q 243 59 321 -21 q 144 269 165 139 l 257 299 q 319 141 279 194 q 443 88 358 88 q 576 143 535 88 q 617 324 617 199 l 617 868 l 247 868 z "},"K":{"ha":903,"x_min":156,"x_max":854,"o":"m 156 0 l 156 972 l 274 972 l 274 497 l 276 497 l 671 972 l 815 972 l 460 547 l 854 0 l 713 0 l 382 460 l 379 460 l 274 336 l 274 0 l 156 0 z "},"L":{"ha":903,"x_min":231,"x_max":810,"o":"m 231 0 l 231 972 l 350 972 l 350 106 l 810 106 l 810 0 l 231 0 z "},"M":{"ha":903,"x_min":122,"x_max":781,"o":"m 122 0 l 122 972 l 278 972 l 450 422 l 453 422 l 625 972 l 781 972 l 781 0 l 675 0 l 675 817 l 672 817 l 469 189 l 433 189 l 231 817 l 228 817 l 228 0 l 122 0 z "},"N":{"ha":903,"x_min":140,"x_max":763,"o":"m 140 0 l 140 972 l 261 972 l 649 197 l 651 197 l 651 972 l 763 972 l 763 0 l 644 0 l 254 775 l 251 775 l 251 0 l 140 0 z "},"O":{"ha":903,"x_min":83,"x_max":819,"o":"m 451 88 q 627 188 560 88 q 694 489 694 289 q 628 783 694 683 q 451 883 561 883 q 275 786 342 883 q 208 494 208 689 q 275 191 208 294 q 451 88 342 88 m 451 -21 q 314 8 378 -21 q 197 97 250 38 q 114 258 144 156 q 83 494 83 360 q 192 863 83 732 q 451 993 301 993 q 710 860 601 993 q 819 489 819 726 q 788 253 819 354 q 704 94 757 151 q 588 8 651 36 q 451 -21 524 -21 z "},"P":{"ha":903,"x_min":161,"x_max":824,"o":"m 161 0 l 161 972 l 496 972 q 733 894 643 972 q 824 672 824 815 q 735 453 824 531 q 499 375 647 375 l 279 375 l 279 0 l 161 0 m 279 481 l 492 481 q 644 529 583 481 q 704 672 704 578 q 643 819 704 771 q 489 867 582 867 l 279 867 l 279 481 z "},"Q":{"ha":903,"x_min":83,"x_max":842,"o":"m 451 -21 q 314 8 378 -21 q 197 97 250 38 q 114 258 144 156 q 83 494 83 360 q 192 863 83 732 q 451 993 301 993 q 710 860 601 993 q 819 489 819 726 q 739 144 819 282 l 842 42 l 775 -22 l 681 71 q 451 -21 588 -21 m 451 88 q 600 151 540 88 l 368 383 l 435 447 l 650 232 q 694 489 694 332 q 628 783 694 683 q 451 883 561 883 q 275 786 342 883 q 208 494 208 689 q 275 191 208 294 q 451 88 342 88 z "},"R":{"ha":903,"x_min":161,"x_max":797,"o":"m 161 0 l 161 972 l 469 972 q 710 899 622 972 q 797 683 797 825 q 731 496 797 567 q 556 406 665 425 l 772 0 l 643 0 l 432 397 l 279 397 l 279 0 l 161 0 m 279 500 l 463 500 q 619 544 560 500 q 679 683 679 588 q 460 867 679 867 l 279 867 l 279 500 z "},"S":{"ha":903,"x_min":97,"x_max":796,"o":"m 97 335 l 219 358 q 295 152 239 217 q 479 88 351 88 q 628 136 578 88 q 678 256 678 185 q 633 374 678 332 q 433 474 589 417 q 209 588 276 531 q 142 744 142 646 q 223 922 142 851 q 436 993 304 993 q 652 924 561 993 q 760 725 743 856 l 644 700 q 436 883 611 883 q 306 844 351 883 q 261 744 261 804 q 303 656 261 692 q 486 568 344 619 q 731 440 667 501 q 796 261 796 379 q 710 60 796 142 q 475 -21 624 -21 q 97 335 140 -21 z "},"T":{"ha":903,"x_min":65,"x_max":836,"o":"m 393 0 l 393 867 l 65 867 l 65 972 l 836 972 l 836 867 l 510 867 l 510 0 l 393 0 z "},"U":{"ha":903,"x_min":103,"x_max":799,"o":"m 103 317 l 103 972 l 221 972 l 221 325 q 450 88 221 88 q 623 148 564 88 q 682 322 682 208 l 682 972 l 799 972 l 799 317 q 707 65 799 151 q 450 -21 615 -21 q 194 65 286 -21 q 103 317 103 151 z "},"V":{"ha":903,"x_min":68,"x_max":833,"o":"m 383 0 l 68 972 l 194 972 l 453 140 l 456 140 l 708 972 l 833 972 l 525 0 l 383 0 z "},"W":{"ha":903,"x_min":79,"x_max":824,"o":"m 189 0 l 79 972 l 197 972 l 274 169 l 276 169 l 415 736 l 489 736 l 626 169 l 629 169 l 706 972 l 824 972 l 714 0 l 579 0 l 453 514 l 450 514 l 325 0 l 189 0 z "},"X":{"ha":903,"x_min":81,"x_max":821,"o":"m 81 0 l 381 507 l 106 972 l 238 972 l 454 589 l 457 589 l 665 972 l 794 972 l 525 497 l 821 0 l 690 0 l 451 415 l 449 415 l 211 0 l 81 0 z "},"Y":{"ha":903,"x_min":72,"x_max":831,"o":"m 393 0 l 393 410 l 72 972 l 203 972 l 450 521 l 453 521 l 700 972 l 831 972 l 510 410 l 510 0 l 393 0 z "},"Z":{"ha":903,"x_min":107,"x_max":796,"o":"m 107 0 l 107 94 l 651 864 l 651 867 l 132 867 l 132 972 l 796 972 l 796 878 l 250 110 l 250 107 l 785 107 l 785 0 l 107 0 z "},"[":{"ha":903,"x_min":276,"x_max":626,"o":"m 276 -253 l 276 1014 l 626 1014 l 626 918 l 379 918 l 379 -157 l 626 -157 l 626 -253 l 276 -253 z "},"\\":{"ha":903,"x_min":147,"x_max":740,"o":"m 647 -61 l 147 992 l 240 1035 l 740 -21 l 647 -61 z "},"]":{"ha":903,"x_min":276,"x_max":626,"o":"m 626 1014 l 626 -253 l 276 -253 l 276 -157 l 524 -157 l 524 918 l 276 918 l 276 1014 l 626 1014 z "},"^":{"ha":903,"x_min":176,"x_max":725,"o":"m 176 451 l 417 972 l 485 972 l 725 451 l 621 451 l 451 839 l 281 451 l 176 451 z "},"_":{"ha":903,"x_min":103,"x_max":800,"o":"m 103 -192 l 103 -97 l 800 -97 l 800 -192 l 103 -192 z "},"`":{"ha":903,"x_min":326,"x_max":575,"o":"m 476 826 l 326 994 l 467 994 l 575 826 l 476 826 z "},"a":{"ha":903,"x_min":160,"x_max":742,"o":"m 639 0 l 639 81 l 636 81 q 557 12 615 44 q 411 -21 499 -21 q 224 39 289 -21 q 160 189 160 99 q 217 333 160 281 q 410 419 275 385 q 573 474 525 449 q 621 549 621 499 q 579 625 621 594 q 467 656 538 656 q 288 510 319 656 l 182 540 q 273 697 199 636 q 463 757 347 757 q 664 694 586 757 q 742 525 742 632 l 742 0 l 639 0 m 436 332 q 308 275 342 306 q 274 196 274 244 q 419 81 274 81 q 574 126 519 81 q 628 236 628 171 l 628 419 l 625 419 q 436 332 606 379 z "},"b":{"ha":903,"x_min":172,"x_max":815,"o":"m 286 472 l 286 244 q 340 131 286 179 q 475 82 394 82 q 642 157 585 82 q 699 368 699 232 q 642 579 699 504 q 475 654 585 654 q 338 598 389 654 q 286 472 286 542 m 172 0 l 172 1014 l 286 1014 l 286 665 l 289 665 q 493 757 367 757 q 724 650 633 757 q 815 368 815 543 q 727 85 815 192 q 493 -21 639 -21 q 363 8 419 -21 q 278 71 307 36 l 275 71 l 275 0 l 172 0 z "},"c":{"ha":903,"x_min":156,"x_max":800,"o":"m 690 282 l 800 260 q 699 56 782 132 q 493 -21 615 -21 q 250 83 344 -21 q 156 368 156 188 q 252 652 156 547 q 493 757 349 757 q 694 682 611 757 q 794 488 776 607 l 688 465 q 624 601 671 547 q 493 654 576 654 q 332 578 393 654 q 271 368 271 503 q 331 158 271 235 q 494 82 390 82 q 628 141 576 82 q 690 282 679 200 z "},"d":{"ha":903,"x_min":114,"x_max":757,"o":"m 643 244 l 643 472 q 592 598 643 542 q 454 654 540 654 q 288 579 344 654 q 231 368 231 504 q 288 157 231 232 q 454 82 344 82 q 589 131 535 82 q 643 244 643 179 m 654 0 l 654 71 l 651 71 q 566 8 622 36 q 436 -21 510 -21 q 202 85 290 -21 q 114 368 114 192 q 206 651 114 544 q 436 757 299 757 q 640 665 563 757 l 643 665 l 643 1014 l 757 1014 l 757 0 l 654 0 z "},"e":{"ha":903,"x_min":115,"x_max":788,"o":"m 675 228 l 768 167 q 649 33 726 86 q 460 -21 572 -21 q 213 85 310 -21 q 115 368 115 192 q 210 651 115 544 q 454 757 306 757 q 695 653 603 757 q 788 368 788 549 l 788 335 l 232 335 q 291 156 233 229 q 457 82 349 82 q 545 95 507 82 q 608 133 583 108 q 644 176 632 157 q 671 219 657 194 q 675 228 674 225 m 235 425 l 672 425 q 617 586 669 518 q 454 654 564 654 q 292 581 347 654 q 235 425 236 508 z "},"f":{"ha":904,"x_min":158,"x_max":771,"o":"m 390 0 l 390 635 l 158 635 l 158 736 l 390 736 l 390 849 q 433 978 390 942 q 554 1014 476 1014 l 704 1014 l 704 913 l 575 913 q 517 896 532 913 q 503 826 503 879 l 503 736 l 771 736 l 771 635 l 504 635 l 504 0 l 390 0 z "},"g":{"ha":903,"x_min":110,"x_max":757,"o":"m 168 -133 l 267 -82 q 334 -192 292 -151 q 457 -232 376 -232 q 594 -180 546 -232 q 643 -35 643 -128 l 643 64 l 640 64 q 436 -21 568 -21 q 200 85 290 -21 q 110 368 110 190 q 203 651 110 544 q 435 757 296 757 q 642 665 568 757 l 644 665 l 644 736 l 757 736 l 757 -11 q 678 -251 757 -168 q 460 -333 599 -333 q 273 -278 347 -333 q 168 -133 199 -224 m 643 242 l 643 475 q 591 599 643 543 q 453 654 539 654 q 285 578 344 654 q 226 368 226 503 q 285 157 226 232 q 453 82 343 82 q 589 130 535 82 q 643 242 643 178 z "},"h":{"ha":903,"x_min":167,"x_max":763,"o":"m 167 0 l 167 1014 l 281 1014 l 281 663 l 283 663 q 373 731 314 704 q 499 757 432 757 q 690 685 617 757 q 763 481 763 614 l 763 0 l 649 0 l 649 450 q 478 653 649 653 q 334 600 388 653 q 281 463 281 547 l 281 0 l 167 0 z "},"i":{"ha":903,"x_min":174,"x_max":785,"o":"m 421 885 l 421 1014 l 551 1014 l 551 885 l 421 885 m 181 639 l 181 736 l 542 736 l 542 97 l 785 97 l 785 0 l 174 0 l 174 97 l 429 97 l 429 639 l 181 639 z "},"j":{"ha":903,"x_min":197,"x_max":642,"o":"m 504 885 l 504 1014 l 633 1014 l 633 885 l 504 885 m 246 635 l 246 736 l 642 736 l 642 -32 q 574 -210 642 -150 q 407 -271 507 -271 q 276 -238 332 -271 q 197 -174 221 -206 l 269 -93 q 407 -168 332 -168 q 528 -32 528 -168 l 528 635 l 246 635 z "},"k":{"ha":903,"x_min":201,"x_max":813,"o":"m 201 0 l 201 1014 l 315 1014 l 315 399 l 318 399 l 628 736 l 779 736 l 510 444 l 813 0 l 675 0 l 425 374 l 422 374 l 315 256 l 315 0 l 201 0 z "},"l":{"ha":903,"x_min":183,"x_max":794,"o":"m 190 913 l 190 1014 l 543 1014 l 543 101 l 794 101 l 794 0 l 183 0 l 183 101 l 429 101 l 429 913 l 190 913 z "},"m":{"ha":903,"x_min":142,"x_max":813,"o":"m 142 0 l 142 736 l 244 736 l 244 665 l 247 665 q 293 731 261 706 q 365 757 325 757 q 497 649 467 757 l 500 649 q 553 725 515 693 q 646 757 590 757 q 775 692 738 757 q 813 501 813 626 l 813 0 l 707 0 l 707 467 q 690 609 707 565 q 625 653 674 653 q 529 476 529 653 l 529 0 l 428 0 l 428 467 q 410 609 428 565 q 343 653 393 653 q 247 476 247 653 l 247 0 l 142 0 z "},"n":{"ha":903,"x_min":161,"x_max":743,"o":"m 161 0 l 161 736 l 269 736 l 269 665 l 272 665 q 360 731 303 706 q 479 757 417 757 q 671 683 599 757 q 743 483 743 610 l 743 0 l 629 0 l 629 447 q 463 653 629 653 q 326 604 376 653 q 275 469 275 556 l 275 0 l 161 0 z "},"o":{"ha":903,"x_min":117,"x_max":786,"o":"m 454 82 q 608 158 547 82 q 669 368 669 233 q 609 579 669 504 q 454 654 549 654 q 295 580 357 654 q 233 368 233 506 q 295 156 233 231 q 454 82 357 82 m 454 -21 q 213 83 308 -21 q 117 368 117 186 q 215 653 117 549 q 454 757 314 757 q 690 653 593 757 q 786 368 786 549 q 692 83 786 186 q 454 -21 599 -21 z "},"p":{"ha":903,"x_min":157,"x_max":803,"o":"m 271 475 l 271 242 q 325 130 271 178 q 460 82 379 82 q 628 157 569 82 q 688 368 688 232 q 628 578 688 503 q 460 654 568 654 q 323 599 375 654 q 271 475 271 543 m 157 -312 l 157 736 l 265 736 l 265 665 l 268 665 q 351 728 296 700 q 479 757 407 757 q 710 651 617 757 q 803 368 803 544 q 713 85 803 190 q 479 -21 622 -21 q 354 8 411 -21 q 274 71 297 38 l 271 71 l 271 -312 l 157 -312 z "},"q":{"ha":903,"x_min":99,"x_max":746,"o":"m 632 242 l 632 475 q 580 599 632 543 q 442 654 528 654 q 274 578 333 654 q 215 368 215 503 q 274 157 215 232 q 442 82 332 82 q 578 130 524 82 q 632 242 632 178 m 632 -312 l 632 71 l 629 71 q 422 -21 558 -21 q 189 85 279 -21 q 99 368 99 190 q 192 651 99 544 q 424 757 285 757 q 550 729 494 757 q 635 665 606 701 l 638 665 l 638 736 l 746 736 l 746 -312 l 632 -312 z "},"r":{"ha":903,"x_min":256,"x_max":813,"o":"m 256 0 l 256 736 l 364 736 l 364 629 l 367 629 q 450 714 392 679 q 576 749 508 749 q 722 703 661 749 q 813 572 783 658 l 701 525 q 558 633 669 633 q 423 572 476 633 q 369 410 369 511 l 369 0 l 256 0 z "},"s":{"ha":903,"x_min":140,"x_max":782,"o":"m 140 250 l 249 271 q 483 78 274 78 q 676 194 676 78 q 636 278 676 250 q 442 344 596 306 q 219 435 274 388 q 167 561 164 482 q 242 698 169 639 q 443 757 315 757 q 649 700 572 757 q 751 551 725 643 l 650 518 q 444 660 601 660 q 321 630 364 660 q 278 564 278 600 q 288 515 278 531 q 347 478 297 500 q 510 428 397 457 q 659 381 603 404 q 741 326 715 357 q 774 268 767 294 q 782 194 781 242 q 713 42 786 104 q 485 -21 640 -21 q 239 55 324 -21 q 140 250 154 131 z "},"t":{"ha":903,"x_min":132,"x_max":744,"o":"m 367 214 l 367 635 l 132 635 l 132 736 l 368 736 l 368 917 l 479 917 l 479 736 l 744 736 l 744 635 l 481 635 l 481 228 q 499 136 481 163 q 571 110 517 110 l 696 110 l 696 0 l 565 0 q 414 53 461 0 q 367 214 367 107 z "},"u":{"ha":903,"x_min":167,"x_max":738,"o":"m 167 257 l 167 736 l 281 736 l 281 274 q 320 128 281 171 q 451 85 360 85 q 579 136 535 85 q 624 279 624 188 l 624 736 l 738 736 l 738 0 l 625 0 l 625 71 l 622 71 q 601 46 615 61 q 537 5 588 31 q 426 -21 486 -21 q 235 49 304 -21 q 167 257 167 118 z "},"v":{"ha":903,"x_min":106,"x_max":797,"o":"m 403 0 l 106 736 l 225 736 l 450 160 l 453 160 l 678 736 l 797 736 l 500 0 l 403 0 z "},"w":{"ha":903,"x_min":104,"x_max":797,"o":"m 225 0 l 104 735 l 217 735 l 293 181 l 296 181 l 394 499 l 497 499 l 593 181 l 596 181 l 686 735 l 797 735 l 663 0 l 558 0 l 446 364 l 443 364 l 331 0 l 225 0 z "},"x":{"ha":903,"x_min":128,"x_max":775,"o":"m 128 0 l 376 378 l 143 736 l 271 736 l 450 453 l 453 453 l 632 736 l 758 736 l 526 378 l 775 0 l 646 0 l 451 303 l 449 303 l 257 0 l 128 0 z "},"y":{"ha":903,"x_min":97,"x_max":756,"o":"m 244 -312 l 383 56 l 97 736 l 219 736 l 438 201 l 440 201 l 636 736 l 756 736 l 360 -312 l 244 -312 z "},"z":{"ha":903,"x_min":146,"x_max":760,"o":"m 146 0 l 146 89 l 608 629 l 608 632 l 172 632 l 172 736 l 758 736 l 758 650 l 300 108 l 300 106 l 760 106 l 760 0 l 146 0 z "},"{":{"ha":903,"x_min":258,"x_max":643,"o":"m 371 -57 l 371 253 q 354 315 371 297 q 297 333 338 333 l 258 333 l 258 457 l 297 457 q 354 477 338 457 q 371 542 371 497 l 371 819 q 417 972 371 931 q 554 1014 464 1014 l 643 1014 l 643 917 l 569 917 q 496 890 518 917 q 474 796 474 863 l 474 538 q 460 467 474 497 q 428 424 447 438 q 397 403 410 410 q 376 396 383 397 q 474 257 474 357 l 474 -33 q 496 -128 474 -101 q 571 -154 518 -154 l 643 -154 l 643 -251 l 554 -251 q 417 -210 464 -251 q 371 -57 371 -169 z "},"|":{"ha":903,"x_min":396,"x_max":507,"o":"m 396 -417 l 396 1076 l 507 1076 l 507 -417 l 396 -417 z "},"}":{"ha":903,"x_min":258,"x_max":643,"o":"m 531 253 l 531 -57 q 484 -210 531 -169 q 347 -251 438 -251 l 258 -251 l 258 -154 l 331 -154 q 406 -128 383 -154 q 428 -33 428 -101 l 428 257 q 525 396 428 357 q 505 403 518 397 q 473 424 492 410 q 441 467 454 438 q 428 538 428 497 l 428 796 q 406 890 428 863 q 332 917 383 917 l 258 917 l 258 1014 l 347 1014 q 484 972 438 1014 q 531 819 531 931 l 531 542 q 547 477 531 497 q 604 457 564 457 l 643 457 l 643 333 l 604 333 q 547 315 564 333 q 531 253 531 297 z "},"~":{"ha":903,"x_min":114,"x_max":789,"o":"m 304 543 q 258 533 278 543 q 224 499 239 524 q 206 463 210 474 q 190 419 201 453 l 114 443 q 181 585 133 528 q 304 642 228 642 q 416 611 363 642 q 515 551 469 581 q 599 521 561 521 q 644 531 625 521 q 678 565 664 540 q 697 601 693 590 q 713 644 701 611 l 789 621 q 722 479 769 536 q 599 422 675 422 q 485 453 540 422 q 385 513 431 483 q 304 543 340 543 z "}," ":{"ha":833,"x_min":0,"x_max":0,"o":""},"¡":{"ha":903,"x_min":369,"x_max":532,"o":"m 394 -236 l 394 447 l 508 447 l 508 -236 l 394 -236 m 369 576 l 369 736 l 532 736 l 532 576 l 369 576 z "},"¢":{"ha":903,"x_min":131,"x_max":772,"o":"m 663 282 l 772 260 q 678 63 756 139 q 489 -19 601 -12 l 489 -153 l 440 -153 l 440 -19 q 216 92 301 -11 q 131 368 131 194 q 218 642 131 539 q 440 756 306 746 l 440 876 l 489 876 l 489 756 q 674 675 599 749 q 767 488 750 601 l 660 465 q 489 653 625 638 l 489 83 q 607 149 563 92 q 663 282 651 206 m 243 368 q 296 168 243 243 q 440 83 349 93 l 440 653 q 297 569 350 643 q 243 368 243 494 z "},"£":{"ha":903,"x_min":111,"x_max":792,"o":"m 111 0 l 111 106 l 163 106 q 228 124 208 106 q 247 190 247 143 l 247 442 l 111 442 l 111 529 l 247 529 l 247 700 q 319 917 247 842 q 515 993 392 993 q 701 925 632 993 q 788 728 771 857 l 682 706 q 628 844 665 800 q 517 889 592 889 q 361 692 361 889 l 361 529 l 640 529 l 640 442 l 361 442 l 361 106 l 792 106 l 792 0 l 111 0 z "},"¤":{"ha":903,"x_min":97,"x_max":804,"o":"m 97 158 l 188 249 q 122 457 122 338 q 188 664 122 572 l 97 754 l 153 810 l 240 721 q 450 800 333 800 q 663 724 572 800 l 749 810 l 804 754 l 715 665 q 779 457 779 572 q 714 247 779 336 l 804 158 l 749 103 l 660 190 q 450 119 571 119 q 242 192 326 119 l 153 103 l 97 158 m 451 224 q 594 280 535 224 q 654 456 654 336 q 594 635 654 578 q 451 693 535 693 q 307 635 367 693 q 247 456 247 578 q 307 280 247 336 q 451 224 367 224 z "},"¥":{"ha":903,"x_min":75,"x_max":828,"o":"m 135 193 l 135 286 l 393 286 l 393 410 l 135 410 l 135 504 l 342 504 l 75 972 l 201 972 l 450 524 l 453 524 l 701 972 l 828 972 l 561 504 l 768 504 l 768 410 l 510 410 l 510 286 l 768 286 l 768 193 l 508 193 l 508 0 l 396 0 l 396 193 l 135 193 z "},"¦":{"ha":903,"x_min":399,"x_max":510,"o":"m 399 446 l 399 900 l 510 900 l 510 446 l 399 446 m 399 -182 l 399 272 l 510 272 l 510 -182 l 399 -182 z "},"§":{"ha":903,"x_min":108,"x_max":794,"o":"m 346 294 l 547 217 q 597 192 569 208 q 681 322 681 249 q 557 447 681 400 l 357 525 q 306 549 329 535 q 224 419 224 493 q 346 294 224 342 m 614 -15 q 585 69 614 36 q 492 129 556 103 l 290 210 q 151 296 193 247 q 108 413 110 344 q 228 610 107 532 q 175 754 175 667 q 249 926 175 858 q 435 993 324 993 q 631 928 551 993 q 725 742 710 863 l 614 721 q 556 849 599 810 q 439 889 513 889 q 326 850 363 889 q 289 757 289 811 q 411 613 289 663 l 614 532 q 751 446 710 494 q 794 329 793 397 q 674 132 796 213 q 728 -12 728 75 q 653 -184 728 -117 q 468 -251 579 -251 q 272 -186 351 -251 q 178 0 193 -121 l 289 21 q 347 -108 304 -68 q 464 -147 390 -147 q 577 -108 540 -147 q 614 -15 614 -69 z "},"¨":{"ha":903,"x_min":254,"x_max":647,"o":"m 254 849 l 254 975 l 381 975 l 381 849 l 254 849 m 521 849 l 521 975 l 647 975 l 647 849 l 521 849 z "},"©":{"ha":903,"x_min":100,"x_max":801,"o":"m 457 64 q 203 188 307 64 q 100 492 100 311 q 203 795 100 672 q 457 918 307 918 q 701 794 601 918 q 801 492 801 671 q 701 188 801 311 q 457 64 601 64 m 457 131 q 653 234 574 131 q 733 492 733 338 q 653 747 733 644 q 457 850 574 850 q 251 747 335 850 q 168 492 168 644 q 251 234 168 338 q 457 131 335 131 m 550 426 l 622 413 q 572 276 614 328 q 463 224 531 224 q 332 293 385 224 q 279 483 279 363 q 331 683 279 611 q 463 754 383 754 q 572 702 531 754 q 619 572 613 650 l 547 558 q 522 649 543 613 q 463 685 500 685 q 385 633 415 685 q 356 483 356 581 q 386 341 356 390 q 463 292 417 292 q 550 426 540 292 z "},"ª":{"ha":903,"x_min":276,"x_max":625,"o":"m 554 533 l 554 578 l 553 578 q 511 540 544 560 q 425 521 478 521 q 314 556 351 521 q 276 644 276 590 q 310 729 276 699 q 422 781 343 760 q 517 812 492 799 q 542 851 542 825 q 458 910 542 910 q 357 828 372 910 l 288 854 q 342 944 299 908 q 457 979 386 979 q 578 940 532 979 q 625 821 625 901 l 625 533 l 554 533 m 439 721 q 372 692 388 708 q 356 650 356 676 q 432 590 356 590 q 517 615 488 590 q 546 674 546 639 l 546 769 l 544 769 q 439 721 533 746 z "},"«":{"ha":903,"x_min":188,"x_max":714,"o":"m 338 136 l 188 390 l 338 649 l 451 649 l 300 390 l 451 136 l 338 136 m 600 136 l 450 390 l 600 649 l 714 649 l 563 390 l 714 136 l 600 136 z "},"¬":{"ha":903,"x_min":119,"x_max":782,"o":"m 119 522 l 119 626 l 782 626 l 782 282 l 671 282 l 671 522 l 119 522 z "},"®":{"ha":903,"x_min":207,"x_max":696,"o":"m 308 590 q 336 560 308 590 q 451 531 365 531 q 597 590 538 531 q 656 736 656 650 q 597 881 656 822 q 451 939 538 939 q 308 881 365 939 q 250 736 250 822 q 308 590 250 649 m 625 563 q 590 527 625 563 q 451 492 554 492 q 278 563 349 492 q 207 736 207 633 q 278 910 207 839 q 451 981 349 981 q 625 910 554 981 q 696 736 696 839 q 625 563 696 633 m 367 589 l 367 881 l 456 881 q 561 794 561 881 q 489 711 561 728 l 554 589 l 510 589 l 449 708 l 404 708 l 404 589 l 367 589 m 404 743 l 457 743 q 521 794 521 743 q 456 846 521 846 l 404 846 l 404 743 z "},"¯":{"ha":903,"x_min":251,"x_max":651,"o":"m 251 861 l 251 946 l 651 946 l 651 861 l 251 861 z "},"°":{"ha":903,"x_min":261,"x_max":640,"o":"m 450 676 q 315 733 368 676 q 261 872 261 789 q 316 1013 261 954 q 450 1071 371 1071 q 586 1014 532 1071 q 640 872 640 957 q 587 732 640 788 q 450 676 533 676 m 354 872 q 450 760 354 760 q 546 872 546 760 q 450 988 546 988 q 354 872 354 988 z "},"±":{"ha":903,"x_min":101,"x_max":800,"o":"m 101 581 l 101 678 l 399 678 l 399 910 l 503 910 l 503 678 l 800 678 l 800 581 l 503 581 l 503 319 l 399 319 l 399 581 l 101 581 m 140 133 l 140 231 l 774 231 l 774 133 l 140 133 z "},"²":{"ha":903,"x_min":249,"x_max":654,"o":"m 254 657 l 254 729 q 290 854 254 803 q 421 943 317 889 q 445 957 428 947 q 469 969 463 967 q 489 981 475 972 q 508 993 503 989 q 524 1005 513 997 q 538 1018 535 1013 q 548 1031 542 1024 q 556 1047 554 1039 q 560 1064 558 1054 q 563 1083 563 1074 q 535 1147 563 1119 q 458 1175 508 1175 q 338 1047 349 1175 l 249 1058 q 310 1205 254 1153 q 458 1257 365 1257 q 597 1208 544 1257 q 650 1078 650 1158 q 608 967 650 1008 q 492 889 567 926 q 369 808 385 832 q 356 749 356 790 l 654 749 l 654 657 l 254 657 z "},"³":{"ha":903,"x_min":239,"x_max":663,"o":"m 239 853 l 329 872 q 369 767 338 801 q 458 733 400 733 q 545 760 515 733 q 575 832 575 788 q 543 907 575 881 q 453 933 511 933 l 417 933 l 417 1007 l 444 1007 q 517 1026 485 1007 q 550 1086 550 1044 q 525 1150 550 1126 q 454 1174 500 1174 q 354 1075 368 1174 l 268 1092 q 326 1213 275 1168 q 457 1257 378 1257 q 586 1214 535 1257 q 638 1099 638 1171 q 612 1020 638 1050 q 557 981 586 990 l 557 978 q 630 928 597 965 q 663 826 663 890 q 608 700 663 750 q 458 650 553 650 q 310 701 368 650 q 239 853 251 751 z "},"´":{"ha":903,"x_min":328,"x_max":575,"o":"m 328 826 l 436 994 l 575 994 l 426 826 l 328 826 z "},"µ":{"ha":903,"x_min":151,"x_max":750,"o":"m 151 -312 l 151 736 l 265 736 l 265 290 q 317 137 265 189 q 456 85 368 85 q 588 137 539 85 q 638 276 638 189 l 638 736 l 750 736 l 750 0 l 639 0 l 639 71 l 636 71 q 610 41 631 60 q 544 1 590 22 q 447 -21 499 -21 q 263 49 326 -21 l 263 -312 l 151 -312 z "},"¶":{"ha":903,"x_min":138,"x_max":765,"o":"m 361 -189 l 361 428 q 202 494 267 431 q 138 658 138 558 q 203 827 138 765 q 367 889 268 889 l 765 889 l 765 -189 l 669 -189 l 669 788 l 464 788 l 464 -189 l 361 -189 z "},"·":{"ha":903,"x_min":369,"x_max":533,"o":"m 369 447 l 369 611 l 533 611 l 533 447 l 369 447 z "},"¸":{"ha":903,"x_min":300,"x_max":601,"o":"m 300 -242 l 340 -186 q 444 -226 392 -226 q 528 -164 528 -226 q 461 -107 528 -107 q 415 -113 439 -107 q 381 -126 392 -119 l 368 -133 l 328 -111 l 393 0 l 453 0 l 401 -81 q 482 -61 431 -61 q 566 -88 531 -61 q 601 -165 601 -115 q 561 -258 601 -222 q 440 -293 521 -293 q 300 -242 364 -293 z "},"¹":{"ha":903,"x_min":251,"x_max":651,"o":"m 251 657 l 251 743 l 413 743 l 413 1143 l 285 1064 l 285 1165 l 421 1250 l 503 1250 l 503 743 l 651 743 l 651 657 l 251 657 z "},"º":{"ha":903,"x_min":256,"x_max":647,"o":"m 453 596 q 534 637 503 596 q 565 751 565 678 q 534 865 565 825 q 453 906 503 906 q 369 865 401 906 q 338 751 338 825 q 369 636 338 676 q 453 596 401 596 m 453 521 q 311 582 367 521 q 256 751 256 643 q 313 919 256 858 q 453 981 369 981 q 591 919 535 981 q 647 751 647 858 q 592 582 647 643 q 453 521 538 521 z "},"»":{"ha":903,"x_min":118,"x_max":644,"o":"m 644 390 l 494 136 l 381 136 l 532 390 l 381 649 l 494 649 l 644 390 m 382 390 l 232 136 l 118 136 l 269 390 l 118 649 l 232 649 l 382 390 z "},"¼":{"ha":903,"x_min":153,"x_max":750,"o":"m 238 -124 l 238 -39 l 463 332 l 594 332 l 594 -39 l 667 -39 l 667 -124 l 594 -124 l 594 -261 l 504 -261 l 504 -124 l 238 -124 m 322 -39 l 504 -39 l 504 254 l 501 254 l 322 -39 m 153 443 l 153 526 l 750 526 l 750 443 l 153 443 m 251 643 l 251 729 l 413 729 l 413 1129 l 285 1050 l 285 1151 l 421 1236 l 503 1236 l 503 729 l 651 729 l 651 643 l 251 643 z "},"½":{"ha":903,"x_min":153,"x_max":750,"o":"m 153 443 l 153 526 l 750 526 l 750 443 l 153 443 m 251 643 l 251 729 l 413 729 l 413 1129 l 285 1050 l 285 1151 l 421 1236 l 503 1236 l 503 729 l 651 729 l 651 643 l 251 643 m 254 -261 l 254 -189 q 290 -64 254 -115 q 421 25 317 -29 q 445 39 428 29 q 469 51 463 49 q 489 63 475 54 q 508 75 503 71 q 524 87 513 79 q 538 100 535 94 q 548 113 542 106 q 556 128 554 121 q 560 146 558 136 q 563 165 563 156 q 535 229 563 201 q 458 257 508 257 q 338 129 349 257 l 249 140 q 310 287 254 235 q 458 339 365 339 q 597 290 544 339 q 650 160 650 240 q 608 49 650 90 q 492 -29 567 8 q 369 -110 385 -86 q 356 -169 356 -128 l 654 -169 l 654 -261 l 254 -261 z "},"¾":{"ha":903,"x_min":153,"x_max":750,"o":"m 153 444 l 153 528 l 750 528 l 750 444 l 153 444 m 240 839 l 331 858 q 370 753 339 788 q 460 719 401 719 q 547 747 517 719 q 576 818 576 774 q 544 893 576 867 q 454 919 513 919 l 418 919 l 418 993 l 446 993 q 519 1012 486 993 q 551 1072 551 1031 q 526 1136 551 1113 q 456 1160 501 1160 q 356 1061 369 1160 l 269 1078 q 328 1199 276 1154 q 458 1243 379 1243 q 588 1200 536 1243 q 639 1085 639 1157 q 613 1006 639 1036 q 558 967 588 976 l 558 964 q 631 914 599 951 q 664 813 664 876 q 609 686 664 736 q 460 636 554 636 q 311 687 369 636 q 240 839 253 738 m 238 -124 l 238 -39 l 463 332 l 594 332 l 594 -39 l 667 -39 l 667 -124 l 594 -124 l 594 -261 l 504 -261 l 504 -124 l 238 -124 m 322 -39 l 504 -39 l 504 254 l 501 254 l 322 -39 z "},"¿":{"ha":903,"x_min":149,"x_max":753,"o":"m 543 472 l 543 396 q 519 310 543 346 q 428 224 494 274 q 362 175 379 189 q 315 131 344 161 q 274 72 285 101 q 264 6 264 43 q 307 -103 264 -56 q 440 -151 350 -151 q 640 60 626 -151 l 753 49 q 668 -172 750 -87 q 438 -257 586 -257 q 230 -184 311 -257 q 149 1 149 -111 q 171 113 149 65 q 218 185 193 161 q 300 251 243 208 q 341 283 314 263 q 376 311 368 304 q 400 333 385 318 q 420 356 415 347 q 429 378 425 364 q 433 407 433 392 l 433 472 l 543 472 m 565 736 l 565 576 l 403 576 l 403 736 l 565 736 z "},"À":{"ha":903,"x_min":68,"x_max":833,"o":"m 713 0 l 647 190 l 249 190 l 189 0 l 68 0 l 390 972 l 511 972 l 833 0 l 713 0 m 614 290 l 451 818 l 449 818 l 281 290 l 614 290 m 401 1063 l 251 1231 l 392 1231 l 500 1063 l 401 1063 z "},"Á":{"ha":903,"x_min":68,"x_max":833,"o":"m 713 0 l 647 190 l 249 190 l 189 0 l 68 0 l 390 972 l 511 972 l 833 0 l 713 0 m 614 290 l 451 818 l 449 818 l 281 290 l 614 290 m 404 1063 l 514 1231 l 653 1231 l 503 1063 l 404 1063 z "},"Â":{"ha":903,"x_min":68,"x_max":833,"o":"m 713 0 l 647 190 l 249 190 l 189 0 l 68 0 l 390 972 l 511 972 l 833 0 l 713 0 m 614 290 l 451 818 l 449 818 l 281 290 l 614 290 m 285 1090 l 376 1208 l 528 1208 l 619 1090 l 553 1038 l 451 1165 l 350 1038 l 285 1090 z "},"Ã":{"ha":903,"x_min":68,"x_max":833,"o":"m 713 0 l 647 190 l 249 190 l 189 0 l 68 0 l 390 972 l 511 972 l 833 0 l 713 0 m 614 290 l 451 818 l 449 818 l 281 290 l 614 290 m 318 1063 l 257 1063 q 381 1192 281 1192 q 467 1166 418 1192 q 539 1140 515 1140 q 589 1185 578 1140 l 650 1185 q 528 1056 626 1056 q 440 1081 489 1056 q 368 1107 390 1107 q 318 1063 329 1107 z "},"Ä":{"ha":903,"x_min":68,"x_max":833,"o":"m 713 0 l 647 190 l 249 190 l 189 0 l 68 0 l 390 972 l 511 972 l 833 0 l 713 0 m 614 290 l 451 818 l 449 818 l 281 290 l 614 290 m 257 1063 l 257 1189 l 383 1189 l 383 1063 l 257 1063 m 524 1063 l 524 1189 l 650 1189 l 650 1063 l 524 1063 z "},"Å":{"ha":903,"x_min":68,"x_max":833,"o":"m 713 0 l 647 190 l 249 190 l 189 0 l 68 0 l 388 964 q 315 1092 315 1003 q 354 1192 315 1150 q 451 1233 393 1233 q 549 1192 511 1233 q 588 1092 588 1151 q 514 964 588 1000 l 833 0 l 713 0 m 614 290 l 451 818 l 449 818 l 281 290 l 614 290 m 451 1013 q 499 1033 479 1013 q 518 1093 518 1054 q 499 1152 518 1132 q 451 1172 479 1172 q 405 1152 424 1172 q 386 1093 386 1132 q 406 1033 386 1054 q 451 1013 425 1013 z "},"Æ":{"ha":903,"x_min":49,"x_max":832,"o":"m 49 0 l 414 972 l 832 972 l 832 867 l 601 867 l 601 551 l 793 551 l 793 450 l 601 450 l 601 106 l 832 106 l 832 0 l 493 0 l 493 207 l 243 207 l 167 0 l 49 0 m 278 307 l 493 307 l 493 881 l 490 881 l 278 307 z "},"Ç":{"ha":903,"x_min":107,"x_max":821,"o":"m 372 -242 l 413 -186 q 517 -226 464 -226 q 600 -164 600 -226 q 533 -107 600 -107 q 488 -113 511 -107 q 453 -126 464 -119 l 440 -133 l 400 -111 l 453 -19 q 204 118 301 -8 q 107 494 107 244 q 215 863 107 733 q 481 993 322 993 q 708 899 617 993 q 818 654 800 804 l 701 633 q 631 813 685 743 q 481 883 578 883 q 300 785 368 883 q 232 494 232 688 q 299 190 232 293 q 481 88 365 88 q 636 163 582 88 q 700 361 690 239 l 821 346 q 727 90 810 188 q 513 -19 644 -8 l 474 -81 q 554 -61 503 -61 q 638 -88 603 -61 q 674 -165 674 -115 q 633 -258 674 -222 q 513 -293 593 -293 q 372 -242 436 -293 z "},"È":{"ha":903,"x_min":183,"x_max":758,"o":"m 183 0 l 183 972 l 758 972 l 758 867 l 303 867 l 303 551 l 719 551 l 719 449 l 303 449 l 303 106 l 758 106 l 758 0 l 183 0 m 458 1063 l 308 1231 l 449 1231 l 557 1063 l 458 1063 z "},"É":{"ha":903,"x_min":183,"x_max":758,"o":"m 183 0 l 183 972 l 758 972 l 758 867 l 303 867 l 303 551 l 719 551 l 719 449 l 303 449 l 303 106 l 758 106 l 758 0 l 183 0 m 417 1063 l 526 1231 l 665 1231 l 515 1063 l 417 1063 z "},"Ê":{"ha":903,"x_min":183,"x_max":758,"o":"m 183 0 l 183 972 l 758 972 l 758 867 l 303 867 l 303 551 l 719 551 l 719 449 l 303 449 l 303 106 l 758 106 l 758 0 l 183 0 m 307 1090 l 399 1208 l 550 1208 l 642 1090 l 575 1038 l 474 1165 l 372 1038 l 307 1090 z "},"Ë":{"ha":903,"x_min":183,"x_max":758,"o":"m 183 0 l 183 972 l 758 972 l 758 867 l 303 867 l 303 551 l 719 551 l 719 449 l 303 449 l 303 106 l 758 106 l 758 0 l 183 0 m 278 1063 l 278 1189 l 404 1189 l 404 1063 l 278 1063 m 544 1063 l 544 1189 l 671 1189 l 671 1063 l 544 1063 z "},"Ì":{"ha":903,"x_min":160,"x_max":743,"o":"m 160 868 l 160 972 l 743 972 l 743 868 l 510 868 l 510 104 l 743 104 l 743 0 l 160 0 l 160 104 l 392 104 l 392 868 l 160 868 m 403 1063 l 253 1231 l 393 1231 l 501 1063 l 403 1063 z "},"Í":{"ha":903,"x_min":160,"x_max":743,"o":"m 160 868 l 160 972 l 743 972 l 743 868 l 510 868 l 510 104 l 743 104 l 743 0 l 160 0 l 160 104 l 392 104 l 392 868 l 160 868 m 388 1063 l 497 1231 l 636 1231 l 486 1063 l 388 1063 z "},"Î":{"ha":903,"x_min":160,"x_max":743,"o":"m 160 868 l 160 972 l 743 972 l 743 868 l 510 868 l 510 104 l 743 104 l 743 0 l 160 0 l 160 104 l 392 104 l 392 868 l 160 868 m 285 1090 l 376 1208 l 528 1208 l 619 1090 l 553 1038 l 451 1165 l 350 1038 l 285 1090 z "},"Ï":{"ha":903,"x_min":160,"x_max":743,"o":"m 160 868 l 160 972 l 743 972 l 743 868 l 510 868 l 510 104 l 743 104 l 743 0 l 160 0 l 160 104 l 392 104 l 392 868 l 160 868 m 256 1063 l 256 1189 l 382 1189 l 382 1063 l 256 1063 m 522 1063 l 522 1189 l 649 1189 l 649 1063 l 522 1063 z "},"Ð":{"ha":903,"x_min":72,"x_max":808,"o":"m 167 0 l 167 444 l 72 444 l 72 553 l 167 553 l 167 972 l 388 972 q 544 943 471 972 q 678 857 618 914 q 773 705 738 800 q 808 488 808 610 q 772 256 808 354 q 674 103 736 157 q 538 25 611 50 q 379 0 465 0 l 167 0 m 282 106 l 369 106 q 686 488 686 106 q 603 769 686 671 q 378 867 521 867 l 282 867 l 282 553 l 540 553 l 540 444 l 282 444 l 282 106 z "},"Ñ":{"ha":903,"x_min":136,"x_max":758,"o":"m 136 0 l 136 972 l 257 972 l 644 197 l 647 197 l 647 972 l 758 972 l 758 0 l 640 0 l 250 775 l 247 775 l 247 0 l 136 0 m 333 1063 l 272 1063 q 396 1192 296 1192 q 482 1166 433 1192 q 554 1140 531 1140 q 604 1185 593 1140 l 665 1185 q 543 1056 642 1056 q 455 1081 504 1056 q 383 1107 406 1107 q 333 1063 344 1107 z "},"Ò":{"ha":903,"x_min":83,"x_max":819,"o":"m 451 88 q 627 188 560 88 q 694 489 694 289 q 628 783 694 683 q 451 883 561 883 q 275 786 342 883 q 208 494 208 689 q 275 191 208 294 q 451 88 342 88 m 451 -21 q 314 8 378 -21 q 197 97 250 38 q 114 258 144 156 q 83 494 83 360 q 192 863 83 732 q 451 993 301 993 q 710 860 601 993 q 819 489 819 726 q 788 253 819 354 q 704 94 757 151 q 588 8 651 36 q 451 -21 524 -21 m 408 1063 l 258 1231 l 399 1231 l 507 1063 l 408 1063 z "},"Ó":{"ha":903,"x_min":83,"x_max":819,"o":"m 451 88 q 627 188 560 88 q 694 489 694 289 q 628 783 694 683 q 451 883 561 883 q 275 786 342 883 q 208 494 208 689 q 275 191 208 294 q 451 88 342 88 m 451 -21 q 314 8 378 -21 q 197 97 250 38 q 114 258 144 156 q 83 494 83 360 q 192 863 83 732 q 451 993 301 993 q 710 860 601 993 q 819 489 819 726 q 788 253 819 354 q 704 94 757 151 q 588 8 651 36 q 451 -21 524 -21 m 400 1063 l 510 1231 l 649 1231 l 499 1063 l 400 1063 z "},"Ô":{"ha":903,"x_min":83,"x_max":819,"o":"m 451 88 q 627 188 560 88 q 694 489 694 289 q 628 783 694 683 q 451 883 561 883 q 275 786 342 883 q 208 494 208 689 q 275 191 208 294 q 451 88 342 88 m 451 -21 q 314 8 378 -21 q 197 97 250 38 q 114 258 144 156 q 83 494 83 360 q 192 863 83 732 q 451 993 301 993 q 710 860 601 993 q 819 489 819 726 q 788 253 819 354 q 704 94 757 151 q 588 8 651 36 q 451 -21 524 -21 m 296 1090 l 388 1208 l 539 1208 l 631 1090 l 564 1038 l 463 1165 l 361 1038 l 296 1090 z "},"Õ":{"ha":903,"x_min":83,"x_max":819,"o":"m 451 88 q 627 188 560 88 q 694 489 694 289 q 628 783 694 683 q 451 883 561 883 q 275 786 342 883 q 208 494 208 689 q 275 191 208 294 q 451 88 342 88 m 451 -21 q 314 8 378 -21 q 197 97 250 38 q 114 258 144 156 q 83 494 83 360 q 192 863 83 732 q 451 993 301 993 q 710 860 601 993 q 819 489 819 726 q 788 253 819 354 q 704 94 757 151 q 588 8 651 36 q 451 -21 524 -21 m 326 1063 l 265 1063 q 389 1192 289 1192 q 475 1166 426 1192 q 547 1140 524 1140 q 597 1185 586 1140 l 658 1185 q 536 1056 635 1056 q 448 1081 497 1056 q 376 1107 399 1107 q 326 1063 338 1107 z "},"Ö":{"ha":903,"x_min":83,"x_max":819,"o":"m 451 88 q 627 188 560 88 q 694 489 694 289 q 628 783 694 683 q 451 883 561 883 q 275 786 342 883 q 208 494 208 689 q 275 191 208 294 q 451 88 342 88 m 451 -21 q 314 8 378 -21 q 197 97 250 38 q 114 258 144 156 q 83 494 83 360 q 192 863 83 732 q 451 993 301 993 q 710 860 601 993 q 819 489 819 726 q 788 253 819 354 q 704 94 757 151 q 588 8 651 36 q 451 -21 524 -21 m 261 1063 l 261 1189 l 388 1189 l 388 1063 l 261 1063 m 528 1063 l 528 1189 l 654 1189 l 654 1063 l 528 1063 z "},"×":{"ha":903,"x_min":147,"x_max":756,"o":"m 147 233 l 382 467 l 161 688 l 232 757 l 451 538 l 672 757 l 742 688 l 521 467 l 756 233 l 686 164 l 451 397 l 218 164 l 147 233 z "},"Ø":{"ha":903,"x_min":86,"x_max":817,"o":"m 451 -21 q 240 53 328 -21 l 199 -21 l 142 11 l 193 103 q 86 494 86 238 q 194 863 86 732 q 451 993 301 993 q 657 914 565 993 l 703 993 l 760 960 l 704 864 q 817 489 817 726 q 711 104 817 229 q 451 -21 606 -21 m 451 88 q 627 188 560 88 q 694 489 694 289 q 643 756 694 653 l 300 157 q 451 88 360 88 m 208 494 q 260 218 208 321 l 601 817 q 451 883 542 883 q 275 786 342 883 q 208 494 208 689 z "},"Ù":{"ha":903,"x_min":103,"x_max":799,"o":"m 103 317 l 103 972 l 221 972 l 221 325 q 450 88 221 88 q 623 148 564 88 q 682 322 682 208 l 682 972 l 799 972 l 799 317 q 707 65 799 151 q 450 -21 615 -21 q 194 65 286 -21 q 103 317 103 151 m 428 1063 l 278 1231 l 418 1231 l 526 1063 l 428 1063 z "},"Ú":{"ha":903,"x_min":103,"x_max":799,"o":"m 103 317 l 103 972 l 221 972 l 221 325 q 450 88 221 88 q 623 148 564 88 q 682 322 682 208 l 682 972 l 799 972 l 799 317 q 707 65 799 151 q 450 -21 615 -21 q 194 65 286 -21 q 103 317 103 151 m 408 1063 l 518 1231 l 657 1231 l 507 1063 l 408 1063 z "},"Û":{"ha":903,"x_min":103,"x_max":799,"o":"m 103 317 l 103 972 l 221 972 l 221 325 q 450 88 221 88 q 623 148 564 88 q 682 322 682 208 l 682 972 l 799 972 l 799 317 q 707 65 799 151 q 450 -21 615 -21 q 194 65 286 -21 q 103 317 103 151 m 299 1090 l 390 1208 l 542 1208 l 633 1090 l 567 1038 l 465 1165 l 364 1038 l 299 1090 z "},"Ü":{"ha":903,"x_min":103,"x_max":799,"o":"m 103 317 l 103 972 l 221 972 l 221 325 q 450 88 221 88 q 623 148 564 88 q 682 322 682 208 l 682 972 l 799 972 l 799 317 q 707 65 799 151 q 450 -21 615 -21 q 194 65 286 -21 q 103 317 103 151 m 264 1063 l 264 1189 l 390 1189 l 390 1063 l 264 1063 m 531 1063 l 531 1189 l 657 1189 l 657 1063 l 531 1063 z "},"Ý":{"ha":903,"x_min":72,"x_max":831,"o":"m 393 0 l 393 410 l 72 972 l 203 972 l 450 521 l 453 521 l 700 972 l 831 972 l 510 410 l 510 0 l 393 0 m 393 1063 l 503 1231 l 642 1231 l 492 1063 l 393 1063 z "},"Þ":{"ha":903,"x_min":183,"x_max":815,"o":"m 183 0 l 183 972 l 299 972 l 299 811 l 475 811 q 722 731 629 811 q 815 501 815 650 q 726 272 815 350 q 475 193 638 193 l 299 193 l 299 0 l 183 0 m 299 299 l 469 299 q 638 348 575 299 q 701 501 701 397 q 639 656 701 606 q 469 706 576 706 l 299 706 l 299 299 z "},"ß":{"ha":903,"x_min":182,"x_max":803,"o":"m 182 0 l 182 683 q 265 913 182 833 q 478 993 349 993 q 680 921 600 993 q 760 732 760 849 q 745 651 760 688 q 710 593 731 614 q 673 561 689 572 q 646 546 657 550 l 646 543 q 686 524 665 538 q 736 484 707 511 q 784 408 765 457 q 803 297 803 360 q 479 0 803 0 l 435 0 l 435 100 l 479 100 q 640 151 586 100 q 694 300 694 203 q 501 485 694 485 l 435 485 l 435 579 l 475 579 q 603 616 554 579 q 653 728 653 653 q 608 846 653 801 q 482 890 564 890 q 297 657 297 890 l 297 0 l 182 0 z "},"à":{"ha":903,"x_min":160,"x_max":742,"o":"m 639 0 l 639 81 l 636 81 q 557 12 615 44 q 411 -21 499 -21 q 224 39 289 -21 q 160 189 160 99 q 217 333 160 281 q 410 419 275 385 q 573 474 525 449 q 621 549 621 499 q 579 625 621 594 q 467 656 538 656 q 288 510 319 656 l 182 540 q 273 697 199 636 q 463 757 347 757 q 664 694 586 757 q 742 525 742 632 l 742 0 l 639 0 m 436 332 q 308 275 342 306 q 274 196 274 244 q 419 81 274 81 q 574 126 519 81 q 628 236 628 171 l 628 419 l 625 419 q 436 332 606 379 m 422 826 l 272 994 l 413 994 l 521 826 l 422 826 z "},"á":{"ha":903,"x_min":160,"x_max":742,"o":"m 639 0 l 639 81 l 636 81 q 557 12 615 44 q 411 -21 499 -21 q 224 39 289 -21 q 160 189 160 99 q 217 333 160 281 q 410 419 275 385 q 573 474 525 449 q 621 549 621 499 q 579 625 621 594 q 467 656 538 656 q 288 510 319 656 l 182 540 q 273 697 199 636 q 463 757 347 757 q 664 694 586 757 q 742 525 742 632 l 742 0 l 639 0 m 436 332 q 308 275 342 306 q 274 196 274 244 q 419 81 274 81 q 574 126 519 81 q 628 236 628 171 l 628 419 l 625 419 q 436 332 606 379 m 418 826 l 526 994 l 665 994 l 517 826 l 418 826 z "},"â":{"ha":903,"x_min":160,"x_max":742,"o":"m 639 0 l 639 81 l 636 81 q 557 12 615 44 q 411 -21 499 -21 q 224 39 289 -21 q 160 189 160 99 q 217 333 160 281 q 410 419 275 385 q 573 474 525 449 q 621 549 621 499 q 579 625 621 594 q 467 656 538 656 q 288 510 319 656 l 182 540 q 273 697 199 636 q 463 757 347 757 q 664 694 586 757 q 742 525 742 632 l 742 0 l 639 0 m 436 332 q 308 275 342 306 q 274 196 274 244 q 419 81 274 81 q 574 126 519 81 q 628 236 628 171 l 628 419 l 625 419 q 436 332 606 379 m 299 861 l 390 979 l 542 979 l 633 861 l 567 808 l 465 936 l 364 808 l 299 861 z "},"ã":{"ha":903,"x_min":160,"x_max":742,"o":"m 639 0 l 639 81 l 636 81 q 557 12 615 44 q 411 -21 499 -21 q 224 39 289 -21 q 160 189 160 99 q 217 333 160 281 q 410 419 275 385 q 573 474 525 449 q 621 549 621 499 q 579 625 621 594 q 467 656 538 656 q 288 510 319 656 l 182 540 q 273 697 199 636 q 463 757 347 757 q 664 694 586 757 q 742 525 742 632 l 742 0 l 639 0 m 436 332 q 308 275 342 306 q 274 196 274 244 q 419 81 274 81 q 574 126 519 81 q 628 236 628 171 l 628 419 l 625 419 q 436 332 606 379 m 318 836 l 257 836 q 381 967 282 967 q 467 940 418 967 q 539 914 515 914 q 589 960 578 914 l 650 960 q 528 829 625 829 q 440 856 489 829 q 368 882 390 882 q 318 836 329 882 z "},"ä":{"ha":903,"x_min":160,"x_max":742,"o":"m 639 0 l 639 81 l 636 81 q 557 12 615 44 q 411 -21 499 -21 q 224 39 289 -21 q 160 189 160 99 q 217 333 160 281 q 410 419 275 385 q 573 474 525 449 q 621 549 621 499 q 579 625 621 594 q 467 656 538 656 q 288 510 319 656 l 182 540 q 273 697 199 636 q 463 757 347 757 q 664 694 586 757 q 742 525 742 632 l 742 0 l 639 0 m 436 332 q 308 275 342 306 q 274 196 274 244 q 419 81 274 81 q 574 126 519 81 q 628 236 628 171 l 628 419 l 625 419 q 436 332 606 379 m 257 849 l 257 975 l 383 975 l 383 849 l 257 849 m 524 849 l 524 975 l 650 975 l 650 849 l 524 849 z "},"å":{"ha":903,"x_min":160,"x_max":742,"o":"m 639 0 l 639 81 l 636 81 q 557 12 615 44 q 411 -21 499 -21 q 224 39 289 -21 q 160 189 160 99 q 217 333 160 281 q 410 419 275 385 q 573 474 525 449 q 621 549 621 499 q 579 625 621 594 q 467 656 538 656 q 288 510 319 656 l 182 540 q 246 672 196 617 q 376 747 296 726 q 315 868 315 785 q 354 968 315 926 q 451 1010 393 1010 q 549 969 511 1010 q 588 868 588 928 q 532 751 588 792 q 685 675 628 735 q 742 525 742 615 l 742 0 l 639 0 m 436 332 q 308 275 342 306 q 274 196 274 244 q 419 81 274 81 q 574 126 519 81 q 628 236 628 171 l 628 419 l 625 419 q 436 332 606 379 m 451 788 q 499 809 479 788 q 518 869 518 831 q 499 927 518 907 q 451 947 479 947 q 405 928 424 947 q 386 869 386 908 q 406 809 386 831 q 451 788 425 788 z "},"æ":{"ha":903,"x_min":64,"x_max":839,"o":"m 235 419 q 345 481 314 453 q 376 546 376 510 q 351 624 376 592 q 285 657 326 657 q 181 514 197 657 l 88 533 q 150 694 94 631 q 283 757 206 757 q 390 725 343 757 q 457 629 438 693 q 626 757 518 757 q 782 654 725 757 q 839 368 839 551 l 839 335 l 492 335 q 530 156 493 229 q 633 82 567 82 q 680 97 660 82 q 714 140 700 111 q 734 188 728 168 q 747 238 740 207 l 838 204 q 765 42 817 104 q 636 -21 713 -21 q 442 136 506 -21 q 239 -21 388 -21 q 111 39 158 -21 q 64 190 64 99 q 235 419 64 349 m 494 426 l 736 426 q 709 587 736 518 q 628 656 682 656 q 550 615 582 656 q 506 526 518 575 q 494 426 494 476 m 260 336 q 168 196 168 283 q 190 113 168 144 q 256 81 213 81 q 346 127 308 81 q 383 236 383 174 l 383 424 l 381 424 q 352 390 378 408 q 260 336 326 372 z "},"ç":{"ha":903,"x_min":156,"x_max":800,"o":"m 360 -242 l 400 -186 q 504 -226 451 -226 q 588 -164 588 -226 q 521 -107 588 -107 q 475 -113 499 -107 q 439 -126 451 -119 l 428 -133 l 388 -111 l 442 -17 q 234 101 313 0 q 156 368 156 203 q 252 652 156 547 q 493 757 349 757 q 694 682 611 757 q 794 488 776 607 l 688 465 q 624 601 671 547 q 493 654 576 654 q 332 578 393 654 q 271 368 271 503 q 331 158 271 235 q 494 82 390 82 q 628 141 576 82 q 690 282 679 200 l 800 260 q 700 58 782 133 q 499 -21 618 -18 l 461 -81 q 542 -61 490 -61 q 626 -88 590 -61 q 661 -165 661 -115 q 621 -258 661 -222 q 500 -293 581 -293 q 360 -242 424 -293 z "},"è":{"ha":903,"x_min":115,"x_max":788,"o":"m 675 228 l 768 167 q 649 33 726 86 q 460 -21 572 -21 q 213 85 310 -21 q 115 368 115 192 q 210 651 115 544 q 454 757 306 757 q 695 653 603 757 q 788 368 788 549 l 788 335 l 232 335 q 291 156 233 229 q 457 82 349 82 q 545 95 507 82 q 608 133 583 108 q 644 176 632 157 q 671 219 657 194 q 675 228 674 225 m 235 425 l 672 425 q 617 586 669 518 q 454 654 564 654 q 292 581 347 654 q 235 425 236 508 m 425 826 l 275 994 l 415 994 l 524 826 l 425 826 z "},"é":{"ha":903,"x_min":115,"x_max":788,"o":"m 675 228 l 768 167 q 649 33 726 86 q 460 -21 572 -21 q 213 85 310 -21 q 115 368 115 192 q 210 651 115 544 q 454 757 306 757 q 695 653 603 757 q 788 368 788 549 l 788 335 l 232 335 q 291 156 233 229 q 457 82 349 82 q 545 95 507 82 q 608 133 583 108 q 644 176 632 157 q 671 219 657 194 q 675 228 674 225 m 235 425 l 672 425 q 617 586 669 518 q 454 654 564 654 q 292 581 347 654 q 235 425 236 508 m 411 826 l 519 994 l 658 994 l 510 826 l 411 826 z "},"ê":{"ha":903,"x_min":115,"x_max":788,"o":"m 675 228 l 768 167 q 649 33 726 86 q 460 -21 572 -21 q 213 85 310 -21 q 115 368 115 192 q 210 651 115 544 q 454 757 306 757 q 695 653 603 757 q 788 368 788 549 l 788 335 l 232 335 q 291 156 233 229 q 457 82 349 82 q 545 95 507 82 q 608 133 583 108 q 644 176 632 157 q 671 219 657 194 q 675 228 674 225 m 235 425 l 672 425 q 617 586 669 518 q 454 654 564 654 q 292 581 347 654 q 235 425 236 508 m 293 861 l 385 979 l 536 979 l 628 861 l 561 808 l 460 936 l 358 808 l 293 861 z "},"ë":{"ha":903,"x_min":115,"x_max":788,"o":"m 675 228 l 768 167 q 649 33 726 86 q 460 -21 572 -21 q 213 85 310 -21 q 115 368 115 192 q 210 651 115 544 q 454 757 306 757 q 695 653 603 757 q 788 368 788 549 l 788 335 l 232 335 q 291 156 233 229 q 457 82 349 82 q 545 95 507 82 q 608 133 583 108 q 644 176 632 157 q 671 219 657 194 q 675 228 674 225 m 235 425 l 672 425 q 617 586 669 518 q 454 654 564 654 q 292 581 347 654 q 235 425 236 508 m 265 849 l 265 975 l 392 975 l 392 849 l 265 849 m 532 849 l 532 975 l 658 975 l 658 849 l 532 849 z "},"ì":{"ha":903,"x_min":174,"x_max":785,"o":"m 435 826 l 285 994 l 425 994 l 533 826 l 435 826 m 181 639 l 181 736 l 542 736 l 542 97 l 785 97 l 785 0 l 174 0 l 174 97 l 429 97 l 429 639 l 181 639 z "},"í":{"ha":903,"x_min":174,"x_max":785,"o":"m 429 826 l 538 994 l 676 994 l 528 826 l 429 826 m 181 639 l 181 736 l 542 736 l 542 97 l 785 97 l 785 0 l 174 0 l 174 97 l 429 97 l 429 639 l 181 639 z "},"î":{"ha":903,"x_min":174,"x_max":785,"o":"m 181 639 l 181 736 l 542 736 l 542 97 l 785 97 l 785 0 l 174 0 l 174 97 l 429 97 l 429 639 l 181 639 m 311 861 l 403 979 l 554 979 l 646 861 l 579 808 l 478 936 l 376 808 l 311 861 z "},"ï":{"ha":903,"x_min":174,"x_max":785,"o":"m 282 849 l 282 975 l 408 975 l 408 849 l 282 849 m 549 849 l 549 975 l 675 975 l 675 849 l 549 849 m 181 639 l 181 736 l 542 736 l 542 97 l 785 97 l 785 0 l 174 0 l 174 97 l 429 97 l 429 639 l 181 639 z "},"ð":{"ha":903,"x_min":124,"x_max":782,"o":"m 493 1076 q 565 989 525 1040 l 749 1040 l 767 981 l 603 935 q 782 371 782 663 q 694 80 782 181 q 457 -21 606 -21 q 214 81 304 -21 q 124 369 124 182 q 213 655 124 553 q 435 757 301 757 q 625 685 558 757 l 628 686 q 511 910 590 801 l 306 853 l 288 913 l 469 963 q 365 1074 426 1014 l 365 1076 l 493 1076 m 457 81 q 671 367 671 81 q 615 583 671 507 q 444 658 558 658 q 289 586 346 658 q 232 367 232 514 q 291 151 232 222 q 457 81 350 81 z "},"ñ":{"ha":903,"x_min":161,"x_max":743,"o":"m 161 0 l 161 736 l 269 736 l 269 665 l 272 665 q 360 731 303 706 q 479 757 417 757 q 671 683 599 757 q 743 483 743 610 l 743 0 l 629 0 l 629 447 q 463 653 629 653 q 326 604 376 653 q 275 469 275 556 l 275 0 l 161 0 m 329 836 l 268 836 q 392 967 293 967 q 478 940 429 967 q 550 914 526 914 q 600 960 589 914 l 661 960 q 539 829 636 829 q 451 856 500 829 q 379 882 401 882 q 329 836 340 882 z "},"ò":{"ha":903,"x_min":117,"x_max":786,"o":"m 454 82 q 608 158 547 82 q 669 368 669 233 q 609 579 669 504 q 454 654 549 654 q 295 580 357 654 q 233 368 233 506 q 295 156 233 231 q 454 82 357 82 m 454 -21 q 213 83 308 -21 q 117 368 117 186 q 215 653 117 549 q 454 757 314 757 q 690 653 593 757 q 786 368 786 549 q 692 83 786 186 q 454 -21 599 -21 m 397 826 l 247 994 l 388 994 l 496 826 l 397 826 z "},"ó":{"ha":903,"x_min":117,"x_max":786,"o":"m 454 82 q 608 158 547 82 q 669 368 669 233 q 609 579 669 504 q 454 654 549 654 q 295 580 357 654 q 233 368 233 506 q 295 156 233 231 q 454 82 357 82 m 454 -21 q 213 83 308 -21 q 117 368 117 186 q 215 653 117 549 q 454 757 314 757 q 690 653 593 757 q 786 368 786 549 q 692 83 786 186 q 454 -21 599 -21 m 414 826 l 522 994 l 661 994 l 513 826 l 414 826 z "},"ô":{"ha":903,"x_min":117,"x_max":786,"o":"m 454 82 q 608 158 547 82 q 669 368 669 233 q 609 579 669 504 q 454 654 549 654 q 295 580 357 654 q 233 368 233 506 q 295 156 233 231 q 454 82 357 82 m 454 -21 q 213 83 308 -21 q 117 368 117 186 q 215 653 117 549 q 454 757 314 757 q 690 653 593 757 q 786 368 786 549 q 692 83 786 186 q 454 -21 599 -21 m 296 861 l 388 979 l 539 979 l 631 861 l 564 808 l 463 936 l 361 808 l 296 861 z "},"õ":{"ha":903,"x_min":117,"x_max":786,"o":"m 454 82 q 608 158 547 82 q 669 368 669 233 q 609 579 669 504 q 454 654 549 654 q 295 580 357 654 q 233 368 233 506 q 295 156 233 231 q 454 82 357 82 m 454 -21 q 213 83 308 -21 q 117 368 117 186 q 215 653 117 549 q 454 757 314 757 q 690 653 593 757 q 786 368 786 549 q 692 83 786 186 q 454 -21 599 -21 m 331 836 l 269 836 q 393 967 294 967 q 479 940 431 967 q 551 914 528 914 q 601 960 590 914 l 663 960 q 540 829 638 829 q 452 856 501 829 q 381 882 403 882 q 331 836 342 882 z "},"ö":{"ha":903,"x_min":117,"x_max":786,"o":"m 454 82 q 608 158 547 82 q 669 368 669 233 q 609 579 669 504 q 454 654 549 654 q 295 580 357 654 q 233 368 233 506 q 295 156 233 231 q 454 82 357 82 m 454 -21 q 213 83 308 -21 q 117 368 117 186 q 215 653 117 549 q 454 757 314 757 q 690 653 593 757 q 786 368 786 549 q 692 83 786 186 q 454 -21 599 -21 m 268 849 l 268 975 l 394 975 l 394 849 l 268 849 m 535 849 l 535 975 l 661 975 l 661 849 l 535 849 z "},"÷":{"ha":903,"x_min":185,"x_max":718,"o":"m 353 786 q 381 857 353 828 q 450 886 410 886 q 522 857 493 886 q 550 786 550 828 q 522 717 550 746 q 450 689 493 689 q 381 717 410 689 q 353 786 353 746 m 381 126 q 367 140 381 126 q 353 196 353 154 q 381 266 353 238 q 450 294 410 294 q 522 266 493 294 q 550 196 550 238 q 522 126 550 154 q 450 97 493 97 q 381 126 410 97 m 185 443 l 185 540 l 718 540 l 718 443 l 185 443 z "},"ø":{"ha":903,"x_min":119,"x_max":783,"o":"m 454 -21 q 243 54 328 -21 l 189 -15 l 143 19 l 203 96 q 119 368 119 199 q 217 653 119 549 q 454 757 314 757 q 658 682 571 757 l 713 751 l 758 715 l 699 639 q 783 368 783 535 q 690 82 783 185 q 454 -21 597 -21 m 454 82 q 609 158 547 82 q 671 368 671 233 q 629 550 671 478 l 310 139 q 454 82 369 82 m 232 368 q 274 186 232 258 l 593 597 q 454 654 536 654 q 294 580 357 654 q 232 368 232 506 z "},"ù":{"ha":903,"x_min":167,"x_max":738,"o":"m 167 257 l 167 736 l 281 736 l 281 274 q 320 128 281 171 q 451 85 360 85 q 579 136 535 85 q 624 279 624 188 l 624 736 l 738 736 l 738 0 l 625 0 l 625 71 l 622 71 q 601 46 615 61 q 537 5 588 31 q 426 -21 486 -21 q 235 49 304 -21 q 167 257 167 118 m 419 826 l 269 994 l 410 994 l 518 826 l 419 826 z "},"ú":{"ha":903,"x_min":167,"x_max":738,"o":"m 167 257 l 167 736 l 281 736 l 281 274 q 320 128 281 171 q 451 85 360 85 q 579 136 535 85 q 624 279 624 188 l 624 736 l 738 736 l 738 0 l 625 0 l 625 71 l 622 71 q 601 46 615 61 q 537 5 588 31 q 426 -21 486 -21 q 235 49 304 -21 q 167 257 167 118 m 406 826 l 514 994 l 653 994 l 504 826 l 406 826 z "},"û":{"ha":903,"x_min":167,"x_max":738,"o":"m 167 257 l 167 736 l 281 736 l 281 274 q 320 128 281 171 q 451 85 360 85 q 579 136 535 85 q 624 279 624 188 l 624 736 l 738 736 l 738 0 l 625 0 l 625 71 l 622 71 q 601 46 615 61 q 537 5 588 31 q 426 -21 486 -21 q 235 49 304 -21 q 167 257 167 118 m 296 861 l 388 979 l 539 979 l 631 861 l 564 808 l 463 936 l 361 808 l 296 861 z "},"ü":{"ha":903,"x_min":167,"x_max":738,"o":"m 167 257 l 167 736 l 281 736 l 281 274 q 320 128 281 171 q 451 85 360 85 q 579 136 535 85 q 624 279 624 188 l 624 736 l 738 736 l 738 0 l 625 0 l 625 71 l 622 71 q 601 46 615 61 q 537 5 588 31 q 426 -21 486 -21 q 235 49 304 -21 q 167 257 167 118 m 264 849 l 264 975 l 390 975 l 390 849 l 264 849 m 531 849 l 531 975 l 657 975 l 657 849 l 531 849 z "},"ý":{"ha":903,"x_min":97,"x_max":756,"o":"m 244 -312 l 383 56 l 97 736 l 219 736 l 438 201 l 440 201 l 636 736 l 756 736 l 360 -312 l 244 -312 m 419 826 l 528 994 l 667 994 l 518 826 l 419 826 z "},"þ":{"ha":903,"x_min":185,"x_max":828,"o":"m 185 -312 l 185 1014 l 296 1014 l 296 667 l 299 667 q 506 757 371 757 q 736 651 644 757 q 828 368 828 544 q 738 85 828 190 q 503 -21 649 -21 q 385 5 443 -21 q 301 67 328 31 l 299 67 l 299 -312 l 185 -312 m 299 475 l 299 242 q 352 131 299 178 q 488 83 406 83 q 656 158 597 83 q 715 368 715 233 q 656 578 715 503 q 488 653 596 653 q 351 598 403 653 q 299 475 299 543 z "},"ÿ":{"ha":903,"x_min":97,"x_max":756,"o":"m 244 -312 l 383 56 l 97 736 l 219 736 l 438 201 l 440 201 l 636 736 l 756 736 l 360 -312 l 244 -312 m 267 849 l 267 975 l 393 975 l 393 849 l 267 849 m 533 849 l 533 975 l 660 975 l 660 849 l 533 849 z "},"Ā":{"ha":903,"x_min":68,"x_max":833,"o":"m 713 0 l 647 190 l 249 190 l 189 0 l 68 0 l 390 972 l 511 972 l 833 0 l 713 0 m 614 290 l 451 818 l 449 818 l 281 290 l 614 290 m 253 1063 l 253 1147 l 653 1147 l 653 1063 l 253 1063 z "},"ā":{"ha":903,"x_min":160,"x_max":742,"o":"m 639 0 l 639 81 l 636 81 q 557 12 615 44 q 411 -21 499 -21 q 224 39 289 -21 q 160 189 160 99 q 217 333 160 281 q 410 419 275 385 q 573 474 525 449 q 621 549 621 499 q 579 625 621 594 q 467 656 538 656 q 288 510 319 656 l 182 540 q 273 697 199 636 q 463 757 347 757 q 664 694 586 757 q 742 525 742 632 l 742 0 l 639 0 m 436 332 q 308 275 342 306 q 274 196 274 244 q 419 81 274 81 q 574 126 519 81 q 628 236 628 171 l 628 419 l 625 419 q 436 332 606 379 m 254 861 l 254 946 l 654 946 l 654 861 l 254 861 z "},"Ă":{"ha":903,"x_min":68,"x_max":833,"o":"m 713 0 l 647 190 l 249 190 l 189 0 l 68 0 l 390 972 l 511 972 l 833 0 l 713 0 m 614 290 l 451 818 l 449 818 l 281 290 l 614 290 m 281 1214 l 342 1214 q 453 1133 357 1133 q 531 1156 503 1133 q 563 1214 558 1178 l 626 1214 q 578 1092 626 1136 q 453 1049 529 1049 q 328 1092 375 1049 q 281 1214 281 1136 z "},"ă":{"ha":903,"x_min":160,"x_max":742,"o":"m 639 0 l 639 81 l 636 81 q 557 12 615 44 q 411 -21 499 -21 q 224 39 289 -21 q 160 189 160 99 q 217 333 160 281 q 410 419 275 385 q 573 474 525 449 q 621 549 621 499 q 579 625 621 594 q 467 656 538 656 q 288 510 319 656 l 182 540 q 273 697 199 636 q 463 757 347 757 q 664 694 586 757 q 742 525 742 632 l 742 0 l 639 0 m 436 332 q 308 275 342 306 q 274 196 274 244 q 419 81 274 81 q 574 126 519 81 q 628 236 628 171 l 628 419 l 625 419 q 436 332 606 379 m 279 978 l 340 978 q 451 897 356 897 q 529 919 501 897 q 561 978 557 942 l 625 978 q 576 856 625 900 q 451 813 528 813 q 326 856 374 813 q 279 978 279 900 z "},"Ą":{"ha":903,"x_min":68,"x_max":922,"o":"m 713 0 l 647 190 l 249 190 l 189 0 l 68 0 l 390 972 l 511 972 l 833 0 l 713 0 m 614 290 l 451 818 l 449 818 l 281 290 l 614 290 m 878 -165 l 922 -204 q 751 -293 851 -293 q 657 -269 696 -293 q 618 -190 618 -246 q 756 0 618 -86 l 833 0 q 722 -162 722 -100 q 786 -217 722 -217 q 878 -165 833 -217 z "},"ą":{"ha":903,"x_min":160,"x_max":831,"o":"m 639 0 l 639 81 l 636 81 q 557 12 615 44 q 411 -21 499 -21 q 224 39 289 -21 q 160 189 160 99 q 217 333 160 281 q 410 419 275 385 q 573 474 525 449 q 621 549 621 499 q 579 625 621 594 q 467 656 538 656 q 288 510 319 656 l 182 540 q 273 697 199 636 q 463 757 347 757 q 664 694 586 757 q 742 525 742 632 l 742 0 q 631 -162 631 -100 q 694 -217 631 -217 q 786 -165 742 -217 l 831 -204 q 660 -293 760 -293 q 565 -269 604 -293 q 526 -190 526 -246 q 664 0 526 -86 l 639 0 m 436 332 q 308 275 342 306 q 274 196 274 244 q 419 81 274 81 q 574 126 519 81 q 628 236 628 171 l 628 419 l 625 419 q 436 332 606 379 z "},"Ć":{"ha":903,"x_min":107,"x_max":821,"o":"m 481 883 q 300 785 368 883 q 232 494 232 688 q 299 190 232 293 q 481 88 365 88 q 636 163 582 88 q 700 361 690 239 l 821 346 q 718 78 810 178 q 481 -21 626 -21 q 213 106 319 -21 q 107 494 107 232 q 215 863 107 733 q 481 993 322 993 q 708 899 617 993 q 818 654 800 804 l 701 633 q 631 813 685 743 q 481 883 578 883 m 435 1063 l 544 1231 l 683 1231 l 533 1063 l 435 1063 z "},"ć":{"ha":903,"x_min":156,"x_max":800,"o":"m 690 282 l 800 260 q 699 56 782 132 q 493 -21 615 -21 q 250 83 344 -21 q 156 368 156 188 q 252 652 156 547 q 493 757 349 757 q 694 682 611 757 q 794 488 776 607 l 688 465 q 624 601 671 547 q 493 654 576 654 q 332 578 393 654 q 271 368 271 503 q 331 158 271 235 q 494 82 390 82 q 628 141 576 82 q 690 282 679 200 m 428 826 l 536 994 l 675 994 l 526 826 l 428 826 z "},"Ĉ":{"ha":903,"x_min":107,"x_max":821,"o":"m 481 883 q 300 785 368 883 q 232 494 232 688 q 299 190 232 293 q 481 88 365 88 q 636 163 582 88 q 700 361 690 239 l 821 346 q 718 78 810 178 q 481 -21 626 -21 q 213 106 319 -21 q 107 494 107 232 q 215 863 107 733 q 481 993 322 993 q 708 899 617 993 q 818 654 800 804 l 701 633 q 631 813 685 743 q 481 883 578 883 m 324 1090 l 415 1208 l 567 1208 l 658 1090 l 592 1038 l 490 1165 l 389 1038 l 324 1090 z "},"ĉ":{"ha":903,"x_min":156,"x_max":800,"o":"m 690 282 l 800 260 q 699 56 782 132 q 493 -21 615 -21 q 250 83 344 -21 q 156 368 156 188 q 252 652 156 547 q 493 757 349 757 q 694 682 611 757 q 794 488 776 607 l 688 465 q 624 601 671 547 q 493 654 576 654 q 332 578 393 654 q 271 368 271 503 q 331 158 271 235 q 494 82 390 82 q 628 141 576 82 q 690 282 679 200 m 324 861 l 415 979 l 567 979 l 658 861 l 592 808 l 490 936 l 389 808 l 324 861 z "},"Ċ":{"ha":903,"x_min":107,"x_max":821,"o":"m 481 883 q 300 785 368 883 q 232 494 232 688 q 299 190 232 293 q 481 88 365 88 q 636 163 582 88 q 700 361 690 239 l 821 346 q 718 78 810 178 q 481 -21 626 -21 q 213 106 319 -21 q 107 494 107 232 q 215 863 107 733 q 481 993 322 993 q 708 899 617 993 q 818 654 800 804 l 701 633 q 631 813 685 743 q 481 883 578 883 m 425 1063 l 425 1197 l 560 1197 l 560 1063 l 425 1063 z "},"ċ":{"ha":903,"x_min":156,"x_max":800,"o":"m 690 282 l 800 260 q 699 56 782 132 q 493 -21 615 -21 q 250 83 344 -21 q 156 368 156 188 q 252 652 156 547 q 493 757 349 757 q 694 682 611 757 q 794 488 776 607 l 688 465 q 624 601 671 547 q 493 654 576 654 q 332 578 393 654 q 271 368 271 503 q 331 158 271 235 q 494 82 390 82 q 628 141 576 82 q 690 282 679 200 m 413 844 l 413 978 l 547 978 l 547 844 l 413 844 z "},"Č":{"ha":903,"x_min":107,"x_max":821,"o":"m 481 883 q 300 785 368 883 q 232 494 232 688 q 299 190 232 293 q 481 88 365 88 q 636 163 582 88 q 700 361 690 239 l 821 346 q 718 78 810 178 q 481 -21 626 -21 q 213 106 319 -21 q 107 494 107 232 q 215 863 107 733 q 481 993 322 993 q 708 899 617 993 q 818 654 800 804 l 701 633 q 631 813 685 743 q 481 883 578 883 m 419 1063 l 328 1181 l 393 1233 l 496 1106 l 597 1233 l 663 1181 l 571 1063 l 419 1063 z "},"č":{"ha":903,"x_min":156,"x_max":800,"o":"m 690 282 l 800 260 q 699 56 782 132 q 493 -21 615 -21 q 250 83 344 -21 q 156 368 156 188 q 252 652 156 547 q 493 757 349 757 q 694 682 611 757 q 794 488 776 607 l 688 465 q 624 601 671 547 q 493 654 576 654 q 332 578 393 654 q 271 368 271 503 q 331 158 271 235 q 494 82 390 82 q 628 141 576 82 q 690 282 679 200 m 421 825 l 329 943 l 394 996 l 497 868 l 599 996 l 664 943 l 572 825 l 421 825 z "},"Ď":{"ha":903,"x_min":133,"x_max":824,"o":"m 253 106 l 382 106 q 699 488 699 106 q 616 769 699 671 q 390 867 533 867 l 253 867 l 253 106 m 133 0 l 133 972 l 400 972 q 558 943 483 972 q 692 857 632 914 q 788 705 753 800 q 824 488 824 610 q 788 256 824 354 q 688 103 751 157 q 551 25 624 50 q 392 0 478 0 l 133 0 m 307 1063 l 215 1181 l 281 1233 l 383 1106 l 485 1233 l 550 1181 l 458 1063 l 307 1063 z "},"ď":{"ha":903,"x_min":100,"x_max":983,"o":"m 629 244 l 629 472 q 578 598 629 542 q 440 654 526 654 q 274 579 331 654 q 217 368 217 504 q 274 157 217 232 q 440 82 331 82 q 575 131 521 82 q 629 244 629 179 m 640 0 l 640 71 l 638 71 q 552 8 608 36 q 422 -21 496 -21 q 188 85 276 -21 q 100 368 100 192 q 192 651 100 544 q 422 757 285 757 q 626 665 549 757 l 629 665 l 629 1014 l 743 1014 l 743 0 l 640 0 m 833 804 l 874 1014 l 983 1014 l 911 804 l 833 804 z "},"Đ":{"ha":903,"x_min":72,"x_max":808,"o":"m 167 0 l 167 444 l 72 444 l 72 553 l 167 553 l 167 972 l 388 972 q 544 943 471 972 q 678 857 618 914 q 773 705 738 800 q 808 488 808 610 q 772 256 808 354 q 674 103 736 157 q 538 25 611 50 q 379 0 465 0 l 167 0 m 282 106 l 369 106 q 686 488 686 106 q 603 769 686 671 q 378 867 521 867 l 282 867 l 282 553 l 540 553 l 540 444 l 282 444 l 282 106 z "},"đ":{"ha":903,"x_min":114,"x_max":843,"o":"m 651 0 l 651 71 l 649 71 q 563 8 618 36 q 433 -21 507 -21 q 201 85 288 -21 q 114 368 114 190 q 203 650 114 543 q 433 757 293 757 q 638 665 560 757 l 640 665 l 640 885 l 449 885 l 449 972 l 640 972 l 640 1014 l 753 1014 l 753 972 l 843 972 l 843 885 l 753 885 l 753 0 l 651 0 m 640 244 l 640 472 q 588 597 640 542 q 450 653 536 653 q 284 578 342 653 q 226 368 226 504 q 283 158 226 232 q 450 83 340 83 q 586 131 532 83 q 640 244 640 179 z "},"Ē":{"ha":903,"x_min":183,"x_max":758,"o":"m 183 0 l 183 972 l 758 972 l 758 867 l 303 867 l 303 551 l 719 551 l 719 449 l 303 449 l 303 106 l 758 106 l 758 0 l 183 0 m 274 1063 l 274 1147 l 674 1147 l 674 1063 l 274 1063 z "},"ē":{"ha":903,"x_min":115,"x_max":788,"o":"m 675 228 l 768 167 q 649 33 726 86 q 460 -21 572 -21 q 213 85 310 -21 q 115 368 115 192 q 210 651 115 544 q 454 757 306 757 q 695 653 603 757 q 788 368 788 549 l 788 335 l 232 335 q 291 156 233 229 q 457 82 349 82 q 545 95 507 82 q 608 133 583 108 q 644 176 632 157 q 671 219 657 194 q 675 228 674 225 m 235 425 l 672 425 q 617 586 669 518 q 454 654 564 654 q 292 581 347 654 q 235 425 236 508 m 258 861 l 258 946 l 658 946 l 658 861 l 258 861 z "},"Ĕ":{"ha":903,"x_min":183,"x_max":758,"o":"m 183 0 l 183 972 l 758 972 l 758 867 l 303 867 l 303 551 l 719 551 l 719 449 l 303 449 l 303 106 l 758 106 l 758 0 l 183 0 m 301 1214 l 363 1214 q 474 1133 378 1133 q 551 1156 524 1133 q 583 1214 579 1178 l 647 1214 q 599 1092 647 1136 q 474 1049 550 1049 q 349 1092 396 1049 q 301 1214 301 1136 z "},"ĕ":{"ha":903,"x_min":115,"x_max":788,"o":"m 675 228 l 768 167 q 649 33 726 86 q 460 -21 572 -21 q 213 85 310 -21 q 115 368 115 192 q 210 651 115 544 q 454 757 306 757 q 695 653 603 757 q 788 368 788 549 l 788 335 l 232 335 q 291 156 233 229 q 457 82 349 82 q 545 95 507 82 q 608 133 583 108 q 644 176 632 157 q 671 219 657 194 q 675 228 674 225 m 235 425 l 672 425 q 617 586 669 518 q 454 654 564 654 q 292 581 347 654 q 235 425 236 508 m 282 978 l 343 978 q 454 897 358 897 q 532 919 504 897 q 564 978 560 942 l 628 978 q 579 856 628 900 q 454 813 531 813 q 329 856 376 813 q 282 978 282 900 z "},"Ė":{"ha":903,"x_min":183,"x_max":758,"o":"m 183 0 l 183 972 l 758 972 l 758 867 l 303 867 l 303 551 l 719 551 l 719 449 l 303 449 l 303 106 l 758 106 l 758 0 l 183 0 m 407 1063 l 407 1197 l 542 1197 l 542 1063 l 407 1063 z "},"ė":{"ha":903,"x_min":115,"x_max":788,"o":"m 675 228 l 768 167 q 649 33 726 86 q 460 -21 572 -21 q 213 85 310 -21 q 115 368 115 192 q 210 651 115 544 q 454 757 306 757 q 695 653 603 757 q 788 368 788 549 l 788 335 l 232 335 q 291 156 233 229 q 457 82 349 82 q 545 95 507 82 q 608 133 583 108 q 644 176 632 157 q 671 219 657 194 q 675 228 674 225 m 235 425 l 672 425 q 617 586 669 518 q 454 654 564 654 q 292 581 347 654 q 235 425 236 508 m 392 844 l 392 978 l 526 978 l 526 844 l 392 844 z "},"Ę":{"ha":903,"x_min":183,"x_max":758,"o":"m 183 0 l 183 972 l 758 972 l 758 867 l 303 867 l 303 551 l 719 551 l 719 449 l 303 449 l 303 106 l 758 106 l 758 0 l 608 0 q 497 -162 497 -100 q 561 -217 497 -217 q 653 -165 608 -217 l 697 -204 q 526 -293 626 -293 q 432 -269 471 -293 q 393 -190 393 -246 q 531 0 393 -86 l 183 0 z "},"ę":{"ha":903,"x_min":115,"x_max":788,"o":"m 606 -165 l 650 -204 q 479 -293 579 -293 q 385 -269 424 -293 q 346 -190 346 -246 q 451 -21 346 -99 q 210 88 304 -18 q 115 368 115 194 q 210 651 115 544 q 454 757 306 757 q 695 653 603 757 q 788 368 788 549 l 788 335 l 232 335 q 291 156 233 229 q 457 82 349 82 q 545 95 507 82 q 608 133 583 108 q 644 176 632 157 q 671 219 657 194 q 675 228 674 225 l 768 167 q 550 -10 696 24 q 450 -162 450 -103 q 514 -217 450 -217 q 606 -165 561 -217 m 235 425 l 672 425 q 617 586 669 518 q 454 654 564 654 q 292 581 347 654 q 235 425 236 508 z "},"Ě":{"ha":903,"x_min":183,"x_max":758,"o":"m 183 0 l 183 972 l 758 972 l 758 867 l 303 867 l 303 551 l 719 551 l 719 449 l 303 449 l 303 106 l 758 106 l 758 0 l 183 0 m 399 1063 l 307 1181 l 372 1233 l 475 1106 l 576 1233 l 642 1181 l 550 1063 l 399 1063 z "},"ě":{"ha":903,"x_min":115,"x_max":788,"o":"m 675 228 l 768 167 q 649 33 726 86 q 460 -21 572 -21 q 213 85 310 -21 q 115 368 115 192 q 210 651 115 544 q 454 757 306 757 q 695 653 603 757 q 788 368 788 549 l 788 335 l 232 335 q 291 156 233 229 q 457 82 349 82 q 545 95 507 82 q 608 133 583 108 q 644 176 632 157 q 671 219 657 194 q 675 228 674 225 m 235 425 l 672 425 q 617 586 669 518 q 454 654 564 654 q 292 581 347 654 q 235 425 236 508 m 386 825 l 294 943 l 360 996 l 463 868 l 564 996 l 629 943 l 538 825 l 386 825 z "},"Ĝ":{"ha":903,"x_min":101,"x_max":819,"o":"m 481 -21 q 209 107 317 -21 q 101 496 101 235 q 212 863 101 732 q 481 993 322 993 q 699 904 608 993 q 811 672 789 815 l 696 651 q 626 819 679 756 q 481 883 572 883 q 297 785 368 883 q 226 496 226 688 q 297 192 226 296 q 481 88 367 88 q 645 164 583 88 q 704 371 707 240 l 460 371 l 460 476 l 819 476 l 819 382 q 724 87 819 194 q 481 -21 629 -21 m 296 1090 l 388 1208 l 539 1208 l 631 1090 l 564 1038 l 463 1165 l 361 1038 l 296 1090 z "},"ĝ":{"ha":903,"x_min":110,"x_max":757,"o":"m 168 -133 l 267 -82 q 334 -192 292 -151 q 457 -232 376 -232 q 594 -180 546 -232 q 643 -35 643 -128 l 643 64 l 640 64 q 436 -21 568 -21 q 200 85 290 -21 q 110 368 110 190 q 203 651 110 544 q 435 757 296 757 q 642 665 568 757 l 644 665 l 644 736 l 757 736 l 757 -11 q 678 -251 757 -168 q 460 -333 599 -333 q 273 -278 347 -333 q 168 -133 199 -224 m 643 242 l 643 475 q 591 599 643 543 q 453 654 539 654 q 285 578 344 654 q 226 368 226 503 q 285 157 226 232 q 453 82 343 82 q 589 130 535 82 q 643 242 643 178 m 285 861 l 376 979 l 528 979 l 619 861 l 553 808 l 451 936 l 350 808 l 285 861 z "},"Ğ":{"ha":903,"x_min":101,"x_max":819,"o":"m 481 -21 q 209 107 317 -21 q 101 496 101 235 q 212 863 101 732 q 481 993 322 993 q 699 904 608 993 q 811 672 789 815 l 696 651 q 626 819 679 756 q 481 883 572 883 q 297 785 368 883 q 226 496 226 688 q 297 192 226 296 q 481 88 367 88 q 645 164 583 88 q 704 371 707 240 l 460 371 l 460 476 l 819 476 l 819 382 q 724 87 819 194 q 481 -21 629 -21 m 290 1214 l 351 1214 q 463 1133 367 1133 q 540 1156 513 1133 q 572 1214 568 1178 l 636 1214 q 588 1092 636 1136 q 463 1049 539 1049 q 338 1092 385 1049 q 290 1214 290 1136 z "},"ğ":{"ha":903,"x_min":110,"x_max":757,"o":"m 168 -133 l 267 -82 q 334 -192 292 -151 q 457 -232 376 -232 q 594 -180 546 -232 q 643 -35 643 -128 l 643 64 l 640 64 q 436 -21 568 -21 q 200 85 290 -21 q 110 368 110 190 q 203 651 110 544 q 435 757 296 757 q 642 665 568 757 l 644 665 l 644 736 l 757 736 l 757 -11 q 678 -251 757 -168 q 460 -333 599 -333 q 273 -278 347 -333 q 168 -133 199 -224 m 643 242 l 643 475 q 591 599 643 543 q 453 654 539 654 q 285 578 344 654 q 226 368 226 503 q 285 157 226 232 q 453 82 343 82 q 589 130 535 82 q 643 242 643 178 m 283 978 l 344 978 q 456 897 360 897 q 533 919 506 897 q 565 978 561 942 l 629 978 q 581 856 629 900 q 456 813 532 813 q 331 856 378 813 q 283 978 283 900 z "},"Ġ":{"ha":903,"x_min":101,"x_max":819,"o":"m 481 -21 q 209 107 317 -21 q 101 496 101 235 q 212 863 101 732 q 481 993 322 993 q 699 904 608 993 q 811 672 789 815 l 696 651 q 626 819 679 756 q 481 883 572 883 q 297 785 368 883 q 226 496 226 688 q 297 192 226 296 q 481 88 367 88 q 645 164 583 88 q 704 371 707 240 l 460 371 l 460 476 l 819 476 l 819 382 q 724 87 819 194 q 481 -21 629 -21 m 396 1063 l 396 1197 l 531 1197 l 531 1063 l 396 1063 z "},"ġ":{"ha":903,"x_min":110,"x_max":757,"o":"m 168 -133 l 267 -82 q 334 -192 292 -151 q 457 -232 376 -232 q 594 -180 546 -232 q 643 -35 643 -128 l 643 64 l 640 64 q 436 -21 568 -21 q 200 85 290 -21 q 110 368 110 190 q 203 651 110 544 q 435 757 296 757 q 642 665 568 757 l 644 665 l 644 736 l 757 736 l 757 -11 q 678 -251 757 -168 q 460 -333 599 -333 q 273 -278 347 -333 q 168 -133 199 -224 m 643 242 l 643 475 q 591 599 643 543 q 453 654 539 654 q 285 578 344 654 q 226 368 226 503 q 285 157 226 232 q 453 82 343 82 q 589 130 535 82 q 643 242 643 178 m 386 844 l 386 978 l 521 978 l 521 844 l 386 844 z "},"Ģ":{"ha":903,"x_min":101,"x_max":819,"o":"m 481 -21 q 209 107 317 -21 q 101 496 101 235 q 212 863 101 732 q 481 993 322 993 q 699 904 608 993 q 811 672 789 815 l 696 651 q 626 819 679 756 q 481 883 572 883 q 297 785 368 883 q 226 496 226 688 q 297 192 226 296 q 481 88 367 88 q 645 164 583 88 q 704 371 707 240 l 460 371 l 460 476 l 819 476 l 819 382 q 724 87 819 194 q 481 -21 629 -21 m 432 -318 l 432 -269 q 485 -247 471 -264 q 500 -199 500 -231 l 431 -199 l 431 -75 l 572 -75 l 572 -179 q 540 -280 572 -246 q 432 -318 507 -314 z "},"ģ":{"ha":903,"x_min":110,"x_max":757,"o":"m 168 -133 l 267 -82 q 334 -192 292 -151 q 457 -232 376 -232 q 594 -180 546 -232 q 643 -35 643 -128 l 643 64 l 640 64 q 436 -21 568 -21 q 200 85 290 -21 q 110 368 110 190 q 203 651 110 544 q 435 757 296 757 q 642 665 568 757 l 644 665 l 644 736 l 757 736 l 757 -11 q 678 -251 757 -168 q 460 -333 599 -333 q 273 -278 347 -333 q 168 -133 199 -224 m 643 242 l 643 475 q 591 599 643 543 q 453 654 539 654 q 285 578 344 654 q 226 368 226 503 q 285 157 226 232 q 453 82 343 82 q 589 130 535 82 q 643 242 643 178 m 490 1079 l 490 1035 q 440 972 440 1028 l 497 972 l 497 846 l 368 846 l 368 954 q 490 1079 368 1069 z "},"Ĥ":{"ha":903,"x_min":129,"x_max":774,"o":"m 129 0 l 129 972 l 249 972 l 249 554 l 656 554 l 656 972 l 774 972 l 774 0 l 656 0 l 656 451 l 249 451 l 249 0 l 129 0 m 283 1090 l 375 1208 l 526 1208 l 618 1090 l 551 1038 l 450 1165 l 349 1038 l 283 1090 z "},"ĥ":{"ha":903,"x_min":167,"x_max":763,"o":"m 167 0 l 167 1014 l 281 1014 l 281 663 l 283 663 q 373 731 314 704 q 499 757 432 757 q 690 685 617 757 q 763 481 763 614 l 763 0 l 649 0 l 649 450 q 478 653 649 653 q 334 600 388 653 q 281 463 281 547 l 281 0 l 167 0 m 342 861 l 433 979 l 585 979 l 676 861 l 610 808 l 508 936 l 407 808 l 342 861 z "},"Ħ":{"ha":903,"x_min":92,"x_max":811,"o":"m 161 0 l 161 701 l 92 701 l 92 803 l 161 803 l 161 972 l 276 972 l 276 803 l 626 803 l 626 972 l 742 972 l 742 803 l 811 803 l 811 701 l 742 701 l 742 0 l 626 0 l 626 451 l 276 451 l 276 0 l 161 0 m 276 554 l 626 554 l 626 701 l 276 701 l 276 554 z "},"ħ":{"ha":903,"x_min":90,"x_max":757,"o":"m 183 0 l 183 885 l 90 885 l 90 972 l 183 972 l 183 1014 l 297 1014 l 297 972 l 488 972 l 488 885 l 297 885 l 297 665 l 300 665 q 383 732 331 707 q 494 757 435 757 q 683 683 610 757 q 757 481 757 608 l 757 0 l 643 0 l 643 450 q 474 653 643 653 q 344 601 390 653 q 297 463 297 549 l 297 0 l 183 0 z "},"Ĩ":{"ha":903,"x_min":160,"x_max":743,"o":"m 160 868 l 160 972 l 743 972 l 743 868 l 510 868 l 510 104 l 743 104 l 743 0 l 160 0 l 160 104 l 392 104 l 392 868 l 160 868 m 317 1063 l 256 1063 q 379 1192 279 1192 q 465 1166 417 1192 q 538 1140 514 1140 q 588 1185 576 1140 l 649 1185 q 526 1056 625 1056 q 438 1081 488 1056 q 367 1107 389 1107 q 317 1063 328 1107 z "},"ĩ":{"ha":903,"x_min":174,"x_max":785,"o":"m 342 836 l 281 836 q 404 967 306 967 q 490 940 442 967 q 563 914 539 914 q 613 960 601 914 l 674 960 q 551 829 649 829 q 463 856 513 829 q 392 882 414 882 q 342 836 353 882 m 181 639 l 181 736 l 542 736 l 542 97 l 785 97 l 785 0 l 174 0 l 174 97 l 429 97 l 429 639 l 181 639 z "},"Ī":{"ha":903,"x_min":160,"x_max":743,"o":"m 160 868 l 160 972 l 743 972 l 743 868 l 510 868 l 510 104 l 743 104 l 743 0 l 160 0 l 160 104 l 392 104 l 392 868 l 160 868 m 251 1063 l 251 1147 l 651 1147 l 651 1063 l 251 1063 z "},"ī":{"ha":903,"x_min":174,"x_max":785,"o":"m 279 861 l 279 946 l 679 946 l 679 861 l 279 861 m 181 639 l 181 736 l 542 736 l 542 97 l 785 97 l 785 0 l 174 0 l 174 97 l 429 97 l 429 639 l 181 639 z "},"Ĭ":{"ha":903,"x_min":160,"x_max":743,"o":"m 160 868 l 160 972 l 743 972 l 743 868 l 510 868 l 510 104 l 743 104 l 743 0 l 160 0 l 160 104 l 392 104 l 392 868 l 160 868 m 279 1214 l 340 1214 q 451 1133 356 1133 q 529 1156 501 1133 q 561 1214 557 1178 l 625 1214 q 576 1092 625 1136 q 451 1049 528 1049 q 326 1092 374 1049 q 279 1214 279 1136 z "},"ĭ":{"ha":903,"x_min":174,"x_max":785,"o":"m 306 978 l 367 978 q 478 897 382 897 q 556 919 528 897 q 588 978 583 942 l 651 978 q 603 856 651 900 q 478 813 554 813 q 353 856 400 813 q 306 978 306 900 m 181 639 l 181 736 l 542 736 l 542 97 l 785 97 l 785 0 l 174 0 l 174 97 l 429 97 l 429 639 l 181 639 z "},"Į":{"ha":903,"x_min":160,"x_max":743,"o":"m 565 -165 l 610 -204 q 439 -293 539 -293 q 344 -269 383 -293 q 306 -190 306 -246 q 443 0 306 -86 l 160 0 l 160 104 l 392 104 l 392 868 l 160 868 l 160 972 l 743 972 l 743 868 l 510 868 l 510 104 l 743 104 l 743 0 l 521 0 q 410 -162 410 -100 q 474 -217 410 -217 q 565 -165 521 -217 z "},"į":{"ha":903,"x_min":174,"x_max":785,"o":"m 181 639 l 181 736 l 542 736 l 542 97 l 785 97 l 785 0 l 543 0 q 432 -162 432 -100 q 496 -217 432 -217 q 588 -165 543 -217 l 632 -204 q 461 -293 561 -293 q 367 -269 406 -293 q 328 -190 328 -246 q 465 0 328 -86 l 174 0 l 174 97 l 429 97 l 429 639 l 181 639 m 421 885 l 421 1014 l 551 1014 l 551 885 l 421 885 z "},"İ":{"ha":903,"x_min":160,"x_max":743,"o":"m 160 868 l 160 972 l 743 972 l 743 868 l 510 868 l 510 104 l 743 104 l 743 0 l 160 0 l 160 104 l 392 104 l 392 868 l 160 868 m 385 1063 l 385 1197 l 519 1197 l 519 1063 l 385 1063 z "},"ı":{"ha":903,"x_min":174,"x_max":785,"o":"m 181 639 l 181 736 l 542 736 l 542 97 l 785 97 l 785 0 l 174 0 l 174 97 l 429 97 l 429 639 l 181 639 z "},"Ĵ":{"ha":903,"x_min":144,"x_max":733,"o":"m 247 868 l 247 972 l 733 972 l 733 317 q 659 63 733 147 q 449 -21 585 -21 q 243 59 321 -21 q 144 269 165 139 l 257 299 q 319 141 279 194 q 443 88 358 88 q 576 143 535 88 q 617 324 617 199 l 617 868 l 247 868 m 321 1090 l 413 1208 l 564 1208 l 656 1090 l 589 1038 l 488 1165 l 386 1038 l 321 1090 z "},"ĵ":{"ha":903,"x_min":197,"x_max":661,"o":"m 246 635 l 246 736 l 642 736 l 642 -32 q 574 -210 642 -150 q 407 -271 507 -271 q 276 -238 332 -271 q 197 -174 221 -206 l 269 -93 q 407 -168 332 -168 q 528 -32 528 -168 l 528 635 l 246 635 m 326 861 l 418 979 l 569 979 l 661 861 l 594 808 l 493 936 l 392 808 l 326 861 z "},"Ķ":{"ha":903,"x_min":156,"x_max":854,"o":"m 156 0 l 156 972 l 274 972 l 274 497 l 276 497 l 671 972 l 815 972 l 460 547 l 854 0 l 713 0 l 382 460 l 379 460 l 274 336 l 274 0 l 156 0 m 397 -318 l 397 -269 q 451 -247 436 -264 q 465 -199 465 -231 l 396 -199 l 396 -75 l 538 -75 l 538 -179 q 505 -280 538 -246 q 397 -318 472 -314 z "},"ķ":{"ha":903,"x_min":188,"x_max":799,"o":"m 188 0 l 188 1014 l 301 1014 l 301 399 l 304 399 l 614 736 l 765 736 l 496 444 l 799 0 l 661 0 l 411 374 l 408 374 l 301 256 l 301 0 l 188 0 m 392 -318 l 392 -269 q 445 -247 431 -264 q 460 -199 460 -231 l 390 -199 l 390 -75 l 532 -75 l 532 -179 q 499 -280 532 -246 q 392 -318 467 -314 z "},"ĸ":{"ha":903,"x_min":201,"x_max":813,"o":"m 201 0 l 201 736 l 315 736 l 315 399 l 628 736 l 779 736 l 510 444 l 813 0 l 681 0 l 425 374 l 315 256 l 315 0 l 201 0 z "},"Ĺ":{"ha":903,"x_min":231,"x_max":810,"o":"m 231 0 l 231 972 l 350 972 l 350 106 l 810 106 l 810 0 l 231 0 m 247 1063 l 357 1231 l 496 1231 l 346 1063 l 247 1063 z "},"ĺ":{"ha":903,"x_min":183,"x_max":794,"o":"m 190 913 l 190 1014 l 543 1014 l 543 101 l 794 101 l 794 0 l 183 0 l 183 101 l 429 101 l 429 913 l 190 913 m 436 1069 l 546 1238 l 685 1238 l 535 1069 l 436 1069 z "},"Ļ":{"ha":903,"x_min":231,"x_max":810,"o":"m 231 0 l 231 972 l 350 972 l 350 106 l 810 106 l 810 0 l 231 0 m 451 -318 l 451 -269 q 505 -247 490 -264 q 519 -199 519 -231 l 450 -199 l 450 -75 l 592 -75 l 592 -179 q 559 -280 592 -246 q 451 -318 526 -314 z "},"ļ":{"ha":903,"x_min":183,"x_max":794,"o":"m 190 913 l 190 1014 l 543 1014 l 543 101 l 794 101 l 794 0 l 183 0 l 183 101 l 429 101 l 429 913 l 190 913 m 411 -318 l 411 -269 q 465 -247 450 -264 q 479 -199 479 -231 l 410 -199 l 410 -75 l 551 -75 l 551 -179 q 519 -280 551 -246 q 411 -318 486 -314 z "},"Ľ":{"ha":903,"x_min":231,"x_max":810,"o":"m 231 0 l 231 972 l 350 972 l 350 106 l 810 106 l 810 0 l 231 0 m 563 804 l 603 1014 l 713 1014 l 640 804 l 563 804 z "},"ľ":{"ha":903,"x_min":183,"x_max":806,"o":"m 190 913 l 190 1014 l 543 1014 l 543 101 l 794 101 l 794 0 l 183 0 l 183 101 l 429 101 l 429 913 l 190 913 m 656 804 l 696 1014 l 806 1014 l 733 804 l 656 804 z "},"Ŀ":{"ha":903,"x_min":231,"x_max":810,"o":"m 231 0 l 231 972 l 350 972 l 350 106 l 810 106 l 810 0 l 231 0 m 519 447 l 519 611 l 683 611 l 683 447 l 519 447 z "},"ŀ":{"ha":903,"x_min":183,"x_max":813,"o":"m 190 913 l 190 1014 l 543 1014 l 543 101 l 794 101 l 794 0 l 183 0 l 183 101 l 429 101 l 429 913 l 190 913 m 649 447 l 649 611 l 813 611 l 813 447 l 649 447 z "},"Ł":{"ha":903,"x_min":82,"x_max":764,"o":"m 231 0 l 231 456 l 131 356 l 82 404 l 231 553 l 231 972 l 346 972 l 346 654 l 500 808 l 547 760 l 346 557 l 346 106 l 764 106 l 764 0 l 231 0 z "},"ł":{"ha":903,"x_min":183,"x_max":794,"o":"m 190 913 l 190 1014 l 543 1014 l 543 732 l 640 829 l 688 781 l 543 638 l 543 101 l 794 101 l 794 0 l 183 0 l 183 101 l 429 101 l 429 540 l 308 421 l 260 469 l 429 636 l 429 913 l 190 913 z "},"Ń":{"ha":903,"x_min":136,"x_max":758,"o":"m 136 0 l 136 972 l 257 972 l 644 197 l 647 197 l 647 972 l 758 972 l 758 0 l 640 0 l 250 775 l 247 775 l 247 0 l 136 0 m 425 1063 l 535 1231 l 674 1231 l 524 1063 l 425 1063 z "},"ń":{"ha":903,"x_min":161,"x_max":743,"o":"m 161 0 l 161 736 l 269 736 l 269 665 l 272 665 q 360 731 303 706 q 479 757 417 757 q 671 683 599 757 q 743 483 743 610 l 743 0 l 629 0 l 629 447 q 463 653 629 653 q 326 604 376 653 q 275 469 275 556 l 275 0 l 161 0 m 418 826 l 526 994 l 665 994 l 517 826 l 418 826 z "},"Ņ":{"ha":903,"x_min":136,"x_max":758,"o":"m 136 0 l 136 972 l 257 972 l 644 197 l 647 197 l 647 972 l 758 972 l 758 0 l 640 0 l 250 775 l 247 775 l 247 0 l 136 0 m 401 -318 l 401 -269 q 455 -247 440 -264 q 469 -199 469 -231 l 400 -199 l 400 -75 l 542 -75 l 542 -179 q 509 -280 542 -246 q 401 -318 476 -314 z "},"ņ":{"ha":903,"x_min":161,"x_max":743,"o":"m 161 0 l 161 736 l 269 736 l 269 665 l 272 665 q 360 731 303 706 q 479 757 417 757 q 671 683 599 757 q 743 483 743 610 l 743 0 l 629 0 l 629 447 q 463 653 629 653 q 326 604 376 653 q 275 469 275 556 l 275 0 l 161 0 m 397 -318 l 397 -269 q 451 -247 436 -264 q 465 -199 465 -231 l 396 -199 l 396 -75 l 538 -75 l 538 -179 q 505 -280 538 -246 q 397 -318 472 -314 z "},"Ň":{"ha":903,"x_min":136,"x_max":758,"o":"m 136 0 l 136 972 l 257 972 l 644 197 l 647 197 l 647 972 l 758 972 l 758 0 l 640 0 l 250 775 l 247 775 l 247 0 l 136 0 m 393 1063 l 301 1181 l 367 1233 l 469 1106 l 571 1233 l 636 1181 l 544 1063 l 393 1063 z "},"ň":{"ha":903,"x_min":161,"x_max":743,"o":"m 161 0 l 161 736 l 269 736 l 269 665 l 272 665 q 360 731 303 706 q 479 757 417 757 q 671 683 599 757 q 743 483 743 610 l 743 0 l 629 0 l 629 447 q 463 653 629 653 q 326 604 376 653 q 275 469 275 556 l 275 0 l 161 0 m 381 825 l 289 943 l 354 996 l 457 868 l 558 996 l 624 943 l 532 825 l 381 825 z "},"Ŋ":{"ha":903,"x_min":107,"x_max":796,"o":"m 107 0 l 107 972 l 215 972 l 679 218 l 682 218 l 682 972 l 796 972 l 796 -100 q 755 -235 796 -193 q 626 -278 714 -278 l 569 -278 l 569 -165 l 621 -165 q 674 -147 658 -165 q 690 -79 690 -129 l 690 7 l 225 754 l 222 754 l 222 0 l 107 0 z "},"ŋ":{"ha":903,"x_min":163,"x_max":739,"o":"m 163 0 l 163 736 l 274 736 l 274 665 l 276 665 q 471 757 346 757 q 665 677 592 757 q 739 461 739 597 l 739 -97 q 700 -240 739 -199 q 585 -282 661 -282 l 533 -282 l 533 -175 l 564 -175 q 611 -160 596 -175 q 626 -97 626 -144 l 626 447 q 583 599 626 544 q 454 653 539 653 q 324 600 371 653 q 276 460 276 547 l 276 0 l 163 0 z "},"Ō":{"ha":903,"x_min":83,"x_max":819,"o":"m 451 88 q 627 188 560 88 q 694 489 694 289 q 628 783 694 683 q 451 883 561 883 q 275 786 342 883 q 208 494 208 689 q 275 191 208 294 q 451 88 342 88 m 451 -21 q 314 8 378 -21 q 197 97 250 38 q 114 258 144 156 q 83 494 83 360 q 192 863 83 732 q 451 993 301 993 q 710 860 601 993 q 819 489 819 726 q 788 253 819 354 q 704 94 757 151 q 588 8 651 36 q 451 -21 524 -21 m 258 1063 l 258 1147 l 658 1147 l 658 1063 l 258 1063 z "},"ō":{"ha":903,"x_min":117,"x_max":786,"o":"m 454 82 q 608 158 547 82 q 669 368 669 233 q 609 579 669 504 q 454 654 549 654 q 295 580 357 654 q 233 368 233 506 q 295 156 233 231 q 454 82 357 82 m 454 -21 q 213 83 308 -21 q 117 368 117 186 q 215 653 117 549 q 454 757 314 757 q 690 653 593 757 q 786 368 786 549 q 692 83 786 186 q 454 -21 599 -21 m 261 861 l 261 946 l 661 946 l 661 861 l 261 861 z "},"Ŏ":{"ha":903,"x_min":83,"x_max":819,"o":"m 451 88 q 627 188 560 88 q 694 489 694 289 q 628 783 694 683 q 451 883 561 883 q 275 786 342 883 q 208 494 208 689 q 275 191 208 294 q 451 88 342 88 m 451 -21 q 314 8 378 -21 q 197 97 250 38 q 114 258 144 156 q 83 494 83 360 q 192 863 83 732 q 451 993 301 993 q 710 860 601 993 q 819 489 819 726 q 788 253 819 354 q 704 94 757 151 q 588 8 651 36 q 451 -21 524 -21 m 285 1214 l 346 1214 q 457 1133 361 1133 q 535 1156 507 1133 q 567 1214 563 1178 l 631 1214 q 582 1092 631 1136 q 457 1049 533 1049 q 332 1092 379 1049 q 285 1214 285 1136 z "},"ŏ":{"ha":903,"x_min":117,"x_max":786,"o":"m 454 82 q 608 158 547 82 q 669 368 669 233 q 609 579 669 504 q 454 654 549 654 q 295 580 357 654 q 233 368 233 506 q 295 156 233 231 q 454 82 357 82 m 454 -21 q 213 83 308 -21 q 117 368 117 186 q 215 653 117 549 q 454 757 314 757 q 690 653 593 757 q 786 368 786 549 q 692 83 786 186 q 454 -21 599 -21 m 289 978 l 350 978 q 461 897 365 897 q 539 919 511 897 q 571 978 567 942 l 635 978 q 586 856 635 900 q 461 813 538 813 q 336 856 383 813 q 289 978 289 900 z "},"Ő":{"ha":903,"x_min":83,"x_max":819,"o":"m 451 88 q 627 188 560 88 q 694 489 694 289 q 628 783 694 683 q 451 883 561 883 q 275 786 342 883 q 208 494 208 689 q 275 191 208 294 q 451 88 342 88 m 451 -21 q 314 8 378 -21 q 197 97 250 38 q 114 258 144 156 q 83 494 83 360 q 192 863 83 732 q 451 993 301 993 q 710 860 601 993 q 819 489 819 726 q 788 253 819 354 q 704 94 757 151 q 588 8 651 36 q 451 -21 524 -21 m 315 1063 l 419 1222 l 547 1222 l 403 1063 l 315 1063 m 504 1063 l 608 1222 l 736 1222 l 592 1063 l 504 1063 z "},"ő":{"ha":903,"x_min":117,"x_max":786,"o":"m 454 82 q 608 158 547 82 q 669 368 669 233 q 609 579 669 504 q 454 654 549 654 q 295 580 357 654 q 233 368 233 506 q 295 156 233 231 q 454 82 357 82 m 454 -21 q 213 83 308 -21 q 117 368 117 186 q 215 653 117 549 q 454 757 314 757 q 690 653 593 757 q 786 368 786 549 q 692 83 786 186 q 454 -21 599 -21 m 322 832 l 426 992 l 554 992 l 410 832 l 322 832 m 511 832 l 615 992 l 743 992 l 599 832 l 511 832 z "},"Œ":{"ha":903,"x_min":103,"x_max":828,"o":"m 490 0 l 490 65 l 488 65 q 356 -21 449 -21 q 179 108 256 -21 q 103 494 103 238 q 178 862 103 731 q 356 993 254 993 q 439 968 404 993 q 488 907 474 943 l 490 907 l 490 972 l 828 972 l 828 867 l 611 867 l 611 563 l 789 563 l 789 461 l 611 461 l 611 106 l 828 106 l 828 0 l 490 0 m 490 203 l 490 768 q 451 848 479 817 q 381 879 422 879 q 268 784 310 879 q 226 494 226 689 q 269 185 226 279 q 381 92 313 92 q 448 120 419 92 q 490 203 476 149 z "},"œ":{"ha":903,"x_min":72,"x_max":829,"o":"m 642 -21 q 532 23 579 -21 q 463 146 485 67 l 460 146 q 392 24 443 69 q 286 -21 342 -21 q 133 83 194 -21 q 72 368 72 186 q 134 653 72 550 q 286 757 196 757 q 392 712 342 757 q 460 590 443 667 l 463 590 q 529 713 483 668 q 628 757 575 757 q 774 654 719 757 q 829 368 829 551 l 829 335 l 519 335 q 558 159 521 236 q 644 82 594 82 q 731 229 701 82 l 822 207 q 642 -21 786 -21 m 286 82 q 365 158 332 82 q 397 368 397 235 q 365 578 397 501 q 286 654 332 654 q 210 578 242 654 q 178 368 178 503 q 210 158 178 233 q 286 82 242 82 m 522 426 l 729 426 q 700 583 729 510 q 628 656 671 656 q 550 581 578 656 q 522 426 522 506 z "},"Ŕ":{"ha":903,"x_min":161,"x_max":797,"o":"m 161 0 l 161 972 l 469 972 q 710 899 622 972 q 797 683 797 825 q 731 496 797 567 q 556 406 665 425 l 772 0 l 643 0 l 432 397 l 279 397 l 279 0 l 161 0 m 279 500 l 463 500 q 619 544 560 500 q 679 683 679 588 q 460 867 679 867 l 279 867 l 279 500 m 376 1063 l 486 1231 l 625 1231 l 475 1063 l 376 1063 z "},"ŕ":{"ha":903,"x_min":228,"x_max":785,"o":"m 228 0 l 228 736 l 336 736 l 336 629 l 339 629 q 422 714 364 679 q 549 749 481 749 q 694 703 633 749 q 785 572 756 658 l 674 525 q 531 633 642 633 q 395 572 449 633 q 342 410 342 511 l 342 0 l 228 0 m 460 826 l 568 994 l 707 994 l 558 826 l 460 826 z "},"Ŗ":{"ha":903,"x_min":161,"x_max":797,"o":"m 161 0 l 161 972 l 469 972 q 710 899 622 972 q 797 683 797 825 q 731 496 797 567 q 556 406 665 425 l 772 0 l 643 0 l 432 397 l 279 397 l 279 0 l 161 0 m 279 500 l 463 500 q 619 544 560 500 q 679 683 679 588 q 460 867 679 867 l 279 867 l 279 500 m 381 -318 l 381 -269 q 434 -247 419 -264 q 449 -199 449 -231 l 379 -199 l 379 -75 l 521 -75 l 521 -179 q 488 -280 521 -246 q 381 -318 456 -314 z "},"ŗ":{"ha":903,"x_min":215,"x_max":785,"o":"m 228 0 l 228 736 l 336 736 l 336 629 l 339 629 q 422 714 364 679 q 549 749 481 749 q 694 703 633 749 q 785 572 756 658 l 674 525 q 531 633 642 633 q 395 572 449 633 q 342 410 342 511 l 342 0 l 228 0 m 217 -318 l 217 -269 q 270 -247 256 -264 q 285 -199 285 -231 l 215 -199 l 215 -75 l 357 -75 l 357 -179 q 324 -280 357 -246 q 217 -318 292 -314 z "},"Ř":{"ha":903,"x_min":161,"x_max":797,"o":"m 161 0 l 161 972 l 469 972 q 710 899 622 972 q 797 683 797 825 q 731 496 797 567 q 556 406 665 425 l 772 0 l 643 0 l 432 397 l 279 397 l 279 0 l 161 0 m 279 500 l 463 500 q 619 544 560 500 q 679 683 679 588 q 460 867 679 867 l 279 867 l 279 500 m 363 1063 l 271 1181 l 336 1233 l 439 1106 l 540 1233 l 606 1181 l 514 1063 l 363 1063 z "},"ř":{"ha":903,"x_min":228,"x_max":785,"o":"m 228 0 l 228 736 l 336 736 l 336 629 l 339 629 q 422 714 364 679 q 549 749 481 749 q 694 703 633 749 q 785 572 756 658 l 674 525 q 531 633 642 633 q 395 572 449 633 q 342 410 342 511 l 342 0 l 228 0 m 432 825 l 340 943 l 406 996 l 508 868 l 610 996 l 675 943 l 583 825 l 432 825 z "},"Ś":{"ha":903,"x_min":97,"x_max":796,"o":"m 97 335 l 219 358 q 295 152 239 217 q 479 88 351 88 q 628 136 578 88 q 678 256 678 185 q 633 374 678 332 q 433 474 589 417 q 209 588 276 531 q 142 744 142 646 q 223 922 142 851 q 436 993 304 993 q 652 924 561 993 q 760 725 743 856 l 644 700 q 436 883 611 883 q 306 844 351 883 q 261 744 261 804 q 303 656 261 692 q 486 568 344 619 q 731 440 667 501 q 796 261 796 379 q 710 60 796 142 q 475 -21 624 -21 q 97 335 140 -21 m 394 1063 l 504 1231 l 643 1231 l 493 1063 l 394 1063 z "},"ś":{"ha":903,"x_min":140,"x_max":782,"o":"m 140 250 l 249 271 q 483 78 274 78 q 676 194 676 78 q 636 278 676 250 q 442 344 596 306 q 219 435 274 388 q 167 561 164 482 q 242 698 169 639 q 443 757 315 757 q 649 700 572 757 q 751 551 725 643 l 650 518 q 444 660 601 660 q 321 630 364 660 q 278 564 278 600 q 288 515 278 531 q 347 478 297 500 q 510 428 397 457 q 659 381 603 404 q 741 326 715 357 q 774 268 767 294 q 782 194 781 242 q 713 42 786 104 q 485 -21 640 -21 q 239 55 324 -21 q 140 250 154 131 m 383 826 l 492 994 l 631 994 l 482 826 l 383 826 z "},"Ŝ":{"ha":903,"x_min":97,"x_max":796,"o":"m 97 335 l 219 358 q 295 152 239 217 q 479 88 351 88 q 628 136 578 88 q 678 256 678 185 q 633 374 678 332 q 433 474 589 417 q 209 588 276 531 q 142 744 142 646 q 223 922 142 851 q 436 993 304 993 q 652 924 561 993 q 760 725 743 856 l 644 700 q 436 883 611 883 q 306 844 351 883 q 261 744 261 804 q 303 656 261 692 q 486 568 344 619 q 731 440 667 501 q 796 261 796 379 q 710 60 796 142 q 475 -21 624 -21 q 97 335 140 -21 m 275 1090 l 367 1208 l 518 1208 l 610 1090 l 543 1038 l 442 1165 l 340 1038 l 275 1090 z "},"ŝ":{"ha":903,"x_min":140,"x_max":782,"o":"m 140 250 l 249 271 q 483 78 274 78 q 676 194 676 78 q 636 278 676 250 q 442 344 596 306 q 219 435 274 388 q 167 561 164 482 q 242 698 169 639 q 443 757 315 757 q 649 700 572 757 q 751 551 725 643 l 650 518 q 444 660 601 660 q 321 630 364 660 q 278 564 278 600 q 288 515 278 531 q 347 478 297 500 q 510 428 397 457 q 659 381 603 404 q 741 326 715 357 q 774 268 767 294 q 782 194 781 242 q 713 42 786 104 q 485 -21 640 -21 q 239 55 324 -21 q 140 250 154 131 m 285 861 l 376 979 l 528 979 l 619 861 l 553 808 l 451 936 l 350 808 l 285 861 z "},"Ş":{"ha":903,"x_min":97,"x_max":796,"o":"m 344 -242 l 385 -186 q 489 -226 436 -226 q 572 -164 572 -226 q 506 -107 572 -107 q 460 -113 483 -107 q 425 -126 436 -119 l 413 -133 l 372 -111 l 426 -18 q 97 335 136 7 l 219 358 q 295 152 239 217 q 479 88 351 88 q 628 136 578 88 q 678 256 678 185 q 633 374 678 332 q 433 474 589 417 q 209 588 276 531 q 142 744 142 646 q 223 922 142 851 q 436 993 304 993 q 652 924 561 993 q 760 725 743 856 l 644 700 q 436 883 611 883 q 306 844 351 883 q 261 744 261 804 q 303 656 261 692 q 486 568 344 619 q 731 440 667 501 q 796 261 796 379 q 713 63 796 143 q 483 -21 629 -18 l 446 -81 q 526 -61 475 -61 q 610 -88 575 -61 q 646 -165 646 -115 q 606 -258 646 -222 q 485 -293 565 -293 q 344 -242 408 -293 z "},"ş":{"ha":903,"x_min":140,"x_max":782,"o":"m 342 -242 l 382 -186 q 486 -226 433 -226 q 569 -164 569 -226 q 503 -107 569 -107 q 457 -113 481 -107 q 422 -126 433 -119 l 410 -133 l 369 -111 l 424 -18 q 222 69 292 -4 q 140 250 153 143 l 249 271 q 483 78 274 78 q 676 194 676 78 q 636 278 676 250 q 442 344 596 306 q 219 435 274 388 q 167 561 164 482 q 242 698 169 639 q 443 757 315 757 q 649 700 572 757 q 751 551 725 643 l 650 518 q 444 660 601 660 q 321 630 364 660 q 278 564 278 600 q 288 515 278 531 q 347 478 297 500 q 510 428 397 457 q 659 381 603 404 q 741 326 715 357 q 774 268 767 294 q 782 194 781 242 q 713 42 786 104 q 485 -21 640 -21 l 481 -21 l 443 -81 q 524 -61 472 -61 q 608 -88 572 -61 q 643 -165 643 -115 q 603 -258 643 -222 q 482 -293 563 -293 q 342 -242 406 -293 z "},"Š":{"ha":903,"x_min":97,"x_max":796,"o":"m 97 335 l 219 358 q 295 152 239 217 q 479 88 351 88 q 628 136 578 88 q 678 256 678 185 q 633 374 678 332 q 433 474 589 417 q 209 588 276 531 q 142 744 142 646 q 223 922 142 851 q 436 993 304 993 q 652 924 561 993 q 760 725 743 856 l 644 700 q 436 883 611 883 q 306 844 351 883 q 261 744 261 804 q 303 656 261 692 q 486 568 344 619 q 731 440 667 501 q 796 261 796 379 q 710 60 796 142 q 475 -21 624 -21 q 97 335 140 -21 m 363 1063 l 271 1181 l 336 1233 l 439 1106 l 540 1233 l 606 1181 l 514 1063 l 363 1063 z "},"š":{"ha":903,"x_min":140,"x_max":782,"o":"m 140 250 l 249 271 q 483 78 274 78 q 676 194 676 78 q 636 278 676 250 q 442 344 596 306 q 219 435 274 388 q 167 561 164 482 q 242 698 169 639 q 443 757 315 757 q 649 700 572 757 q 751 551 725 643 l 650 518 q 444 660 601 660 q 321 630 364 660 q 278 564 278 600 q 288 515 278 531 q 347 478 297 500 q 510 428 397 457 q 659 381 603 404 q 741 326 715 357 q 774 268 767 294 q 782 194 781 242 q 713 42 786 104 q 485 -21 640 -21 q 239 55 324 -21 q 140 250 154 131 m 376 825 l 285 943 l 350 996 l 453 868 l 554 996 l 619 943 l 528 825 l 376 825 z "},"Ţ":{"ha":903,"x_min":65,"x_max":836,"o":"m 393 0 l 393 867 l 65 867 l 65 972 l 836 972 l 836 867 l 510 867 l 510 0 l 393 0 m 382 -318 l 382 -269 q 435 -247 421 -264 q 450 -199 450 -231 l 381 -199 l 381 -75 l 522 -75 l 522 -179 q 490 -280 522 -246 q 382 -318 457 -314 z "},"ţ":{"ha":903,"x_min":132,"x_max":744,"o":"m 367 214 l 367 635 l 132 635 l 132 736 l 368 736 l 368 917 l 479 917 l 479 736 l 744 736 l 744 635 l 481 635 l 481 228 q 499 136 481 163 q 571 110 517 110 l 696 110 l 696 0 l 565 0 q 414 53 461 0 q 367 214 367 107 m 431 -318 l 431 -269 q 484 -247 469 -264 q 499 -199 499 -231 l 429 -199 l 429 -75 l 571 -75 l 571 -179 q 538 -280 571 -246 q 431 -318 506 -314 z "},"Ť":{"ha":903,"x_min":65,"x_max":836,"o":"m 393 0 l 393 867 l 65 867 l 65 972 l 836 972 l 836 867 l 510 867 l 510 0 l 393 0 m 376 1063 l 285 1181 l 350 1233 l 453 1106 l 554 1233 l 619 1181 l 528 1063 l 376 1063 z "},"ť":{"ha":903,"x_min":132,"x_max":746,"o":"m 367 214 l 367 635 l 132 635 l 132 736 l 368 736 l 368 917 l 479 917 l 479 736 l 744 736 l 744 635 l 481 635 l 481 228 q 499 136 481 163 q 571 110 517 110 l 696 110 l 696 0 l 565 0 q 414 53 461 0 q 367 214 367 107 m 596 804 l 636 1014 l 746 1014 l 674 804 l 596 804 z "},"Ŧ":{"ha":903,"x_min":93,"x_max":808,"o":"m 394 0 l 394 449 l 204 449 l 204 550 l 394 550 l 394 867 l 93 867 l 93 972 l 808 972 l 808 867 l 508 867 l 508 550 l 699 550 l 699 449 l 508 449 l 508 0 l 394 0 z "},"ŧ":{"ha":903,"x_min":132,"x_max":744,"o":"m 367 214 l 367 365 l 142 365 l 142 467 l 367 467 l 367 635 l 132 635 l 132 736 l 368 736 l 368 917 l 479 917 l 479 736 l 744 736 l 744 635 l 481 635 l 481 467 l 739 467 l 739 365 l 481 365 l 481 228 q 499 136 481 163 q 571 110 517 110 l 696 110 l 696 0 l 565 0 q 414 53 461 0 q 367 214 367 107 z "},"Ũ":{"ha":903,"x_min":103,"x_max":799,"o":"m 103 317 l 103 972 l 221 972 l 221 325 q 450 88 221 88 q 623 148 564 88 q 682 322 682 208 l 682 972 l 799 972 l 799 317 q 707 65 799 151 q 450 -21 615 -21 q 194 65 286 -21 q 103 317 103 151 m 328 1063 l 267 1063 q 390 1192 290 1192 q 476 1166 428 1192 q 549 1140 525 1140 q 599 1185 588 1140 l 660 1185 q 538 1056 636 1056 q 449 1081 499 1056 q 378 1107 400 1107 q 328 1063 339 1107 z "},"ũ":{"ha":903,"x_min":167,"x_max":738,"o":"m 167 257 l 167 736 l 281 736 l 281 274 q 320 128 281 171 q 451 85 360 85 q 579 136 535 85 q 624 279 624 188 l 624 736 l 738 736 l 738 0 l 625 0 l 625 71 l 622 71 q 601 46 615 61 q 537 5 588 31 q 426 -21 486 -21 q 235 49 304 -21 q 167 257 167 118 m 325 836 l 264 836 q 388 967 289 967 q 474 940 425 967 q 546 914 522 914 q 596 960 585 914 l 657 960 q 535 829 632 829 q 447 856 496 829 q 375 882 397 882 q 325 836 336 882 z "},"Ū":{"ha":903,"x_min":103,"x_max":799,"o":"m 103 317 l 103 972 l 221 972 l 221 325 q 450 88 221 88 q 623 148 564 88 q 682 322 682 208 l 682 972 l 799 972 l 799 317 q 707 65 799 151 q 450 -21 615 -21 q 194 65 286 -21 q 103 317 103 151 m 260 1063 l 260 1147 l 660 1147 l 660 1063 l 260 1063 z "},"ū":{"ha":903,"x_min":167,"x_max":738,"o":"m 167 257 l 167 736 l 281 736 l 281 274 q 320 128 281 171 q 451 85 360 85 q 579 136 535 85 q 624 279 624 188 l 624 736 l 738 736 l 738 0 l 625 0 l 625 71 l 622 71 q 601 46 615 61 q 537 5 588 31 q 426 -21 486 -21 q 235 49 304 -21 q 167 257 167 118 m 258 861 l 258 946 l 658 946 l 658 861 l 258 861 z "},"Ŭ":{"ha":903,"x_min":103,"x_max":799,"o":"m 103 317 l 103 972 l 221 972 l 221 325 q 450 88 221 88 q 623 148 564 88 q 682 322 682 208 l 682 972 l 799 972 l 799 317 q 707 65 799 151 q 450 -21 615 -21 q 194 65 286 -21 q 103 317 103 151 m 288 1214 l 349 1214 q 460 1133 364 1133 q 538 1156 510 1133 q 569 1214 565 1178 l 633 1214 q 585 1092 633 1136 q 460 1049 536 1049 q 335 1092 382 1049 q 288 1214 288 1136 z "},"ŭ":{"ha":903,"x_min":167,"x_max":738,"o":"m 167 257 l 167 736 l 281 736 l 281 274 q 320 128 281 171 q 451 85 360 85 q 579 136 535 85 q 624 279 624 188 l 624 736 l 738 736 l 738 0 l 625 0 l 625 71 l 622 71 q 601 46 615 61 q 537 5 588 31 q 426 -21 486 -21 q 235 49 304 -21 q 167 257 167 118 m 288 978 l 349 978 q 460 897 364 897 q 538 919 510 897 q 569 978 565 942 l 633 978 q 585 856 633 900 q 460 813 536 813 q 335 856 382 813 q 288 978 288 900 z "},"Ů":{"ha":903,"x_min":103,"x_max":799,"o":"m 103 317 l 103 972 l 221 972 l 221 325 q 450 88 221 88 q 623 148 564 88 q 682 322 682 208 l 682 972 l 799 972 l 799 317 q 707 65 799 151 q 450 -21 615 -21 q 194 65 286 -21 q 103 317 103 151 m 566 990 q 547 970 566 990 q 468 950 528 950 q 370 991 408 950 q 332 1092 332 1032 q 371 1192 332 1150 q 468 1233 410 1233 q 566 1192 528 1233 q 604 1092 604 1151 q 566 990 604 1031 m 468 1013 q 515 1033 496 1013 q 535 1093 535 1054 q 515 1152 535 1132 q 468 1172 496 1172 q 422 1152 440 1172 q 403 1093 403 1132 q 422 1033 403 1054 q 468 1013 442 1013 z "},"ů":{"ha":903,"x_min":167,"x_max":738,"o":"m 167 257 l 167 736 l 281 736 l 281 274 q 320 128 281 171 q 451 85 360 85 q 579 136 535 85 q 624 279 624 188 l 624 736 l 738 736 l 738 0 l 625 0 l 625 71 l 622 71 q 601 46 615 61 q 537 5 588 31 q 426 -21 486 -21 q 235 49 304 -21 q 167 257 167 118 m 555 766 q 536 746 555 766 q 457 726 517 726 q 359 767 397 726 q 321 868 321 807 q 360 968 321 926 q 457 1010 399 1010 q 555 969 517 1010 q 593 868 593 928 q 555 766 593 806 m 457 788 q 504 809 485 788 q 524 869 524 831 q 504 927 524 907 q 457 947 485 947 q 410 928 429 947 q 392 869 392 908 q 411 809 392 831 q 457 788 431 788 z "},"Ű":{"ha":903,"x_min":103,"x_max":799,"o":"m 103 317 l 103 972 l 221 972 l 221 325 q 450 88 221 88 q 623 148 564 88 q 682 322 682 208 l 682 972 l 799 972 l 799 317 q 707 65 799 151 q 450 -21 615 -21 q 194 65 286 -21 q 103 317 103 151 m 324 1063 l 428 1222 l 556 1222 l 411 1063 l 324 1063 m 513 1063 l 617 1222 l 744 1222 l 600 1063 l 513 1063 z "},"ű":{"ha":903,"x_min":167,"x_max":738,"o":"m 167 257 l 167 736 l 281 736 l 281 274 q 320 128 281 171 q 451 85 360 85 q 579 136 535 85 q 624 279 624 188 l 624 736 l 738 736 l 738 0 l 625 0 l 625 71 l 622 71 q 601 46 615 61 q 537 5 588 31 q 426 -21 486 -21 q 235 49 304 -21 q 167 257 167 118 m 315 849 l 419 1008 l 547 1008 l 403 849 l 315 849 m 504 849 l 608 1008 l 736 1008 l 592 849 l 504 849 z "},"Ų":{"ha":903,"x_min":103,"x_max":799,"o":"m 593 -165 l 638 -204 q 467 -293 567 -293 q 372 -269 411 -293 q 333 -190 333 -246 q 439 -21 333 -99 q 191 67 279 -18 q 103 317 103 153 l 103 972 l 221 972 l 221 325 q 450 88 221 88 q 623 148 564 88 q 682 322 682 208 l 682 972 l 799 972 l 799 317 q 729 90 799 174 q 533 -14 660 6 q 438 -162 438 -104 q 501 -217 438 -217 q 593 -165 549 -217 z "},"ų":{"ha":903,"x_min":167,"x_max":826,"o":"m 782 -165 l 826 -204 q 656 -293 756 -293 q 561 -269 600 -293 q 522 -190 522 -246 q 660 0 522 -86 l 625 0 l 625 71 l 622 71 q 601 46 615 61 q 537 5 588 31 q 426 -21 486 -21 q 235 49 304 -21 q 167 257 167 118 l 167 736 l 281 736 l 281 274 q 320 128 281 171 q 451 85 360 85 q 579 136 535 85 q 624 279 624 188 l 624 736 l 738 736 l 738 0 q 626 -162 626 -100 q 690 -217 626 -217 q 782 -165 738 -217 z "},"Ŵ":{"ha":903,"x_min":79,"x_max":824,"o":"m 189 0 l 79 972 l 197 972 l 274 169 l 276 169 l 415 736 l 489 736 l 626 169 l 629 169 l 706 972 l 824 972 l 714 0 l 579 0 l 453 514 l 450 514 l 325 0 l 189 0 m 288 1090 l 379 1208 l 531 1208 l 622 1090 l 556 1038 l 454 1165 l 353 1038 l 288 1090 z "},"ŵ":{"ha":903,"x_min":104,"x_max":797,"o":"m 225 0 l 104 735 l 217 735 l 293 181 l 296 181 l 394 499 l 497 499 l 593 181 l 596 181 l 686 735 l 797 735 l 663 0 l 558 0 l 446 364 l 443 364 l 331 0 l 225 0 m 276 861 l 368 979 l 519 979 l 611 861 l 544 808 l 443 936 l 342 808 l 276 861 z "},"Ŷ":{"ha":903,"x_min":72,"x_max":831,"o":"m 393 0 l 393 410 l 72 972 l 203 972 l 450 521 l 453 521 l 700 972 l 831 972 l 510 410 l 510 0 l 393 0 m 285 1090 l 376 1208 l 528 1208 l 619 1090 l 553 1038 l 451 1165 l 350 1038 l 285 1090 z "},"ŷ":{"ha":903,"x_min":97,"x_max":756,"o":"m 244 -312 l 383 56 l 97 736 l 219 736 l 438 201 l 440 201 l 636 736 l 756 736 l 360 -312 l 244 -312 m 304 861 l 396 979 l 547 979 l 639 861 l 572 808 l 471 936 l 369 808 l 304 861 z "},"Ÿ":{"ha":903,"x_min":72,"x_max":831,"o":"m 393 0 l 393 410 l 72 972 l 203 972 l 450 521 l 453 521 l 700 972 l 831 972 l 510 410 l 510 0 l 393 0 m 256 1063 l 256 1189 l 382 1189 l 382 1063 l 256 1063 m 522 1063 l 522 1189 l 649 1189 l 649 1063 l 522 1063 z "},"Ź":{"ha":903,"x_min":107,"x_max":796,"o":"m 107 0 l 107 94 l 651 864 l 651 867 l 132 867 l 132 972 l 796 972 l 796 878 l 250 110 l 250 107 l 785 107 l 785 0 l 107 0 m 386 1063 l 496 1231 l 635 1231 l 485 1063 l 386 1063 z "},"ź":{"ha":903,"x_min":146,"x_max":760,"o":"m 146 0 l 146 89 l 608 629 l 608 632 l 172 632 l 172 736 l 758 736 l 758 650 l 300 108 l 300 106 l 760 106 l 760 0 l 146 0 m 388 826 l 496 994 l 635 994 l 486 826 l 388 826 z "},"Ż":{"ha":903,"x_min":107,"x_max":796,"o":"m 107 0 l 107 94 l 651 864 l 651 867 l 132 867 l 132 972 l 796 972 l 796 878 l 250 110 l 250 107 l 785 107 l 785 0 l 107 0 m 371 1063 l 371 1197 l 506 1197 l 506 1063 l 371 1063 z "},"ż":{"ha":903,"x_min":146,"x_max":760,"o":"m 146 0 l 146 89 l 608 629 l 608 632 l 172 632 l 172 736 l 758 736 l 758 650 l 300 108 l 300 106 l 760 106 l 760 0 l 146 0 m 381 844 l 381 978 l 515 978 l 515 844 l 381 844 z "},"Ž":{"ha":903,"x_min":107,"x_max":796,"o":"m 107 0 l 107 94 l 651 864 l 651 867 l 132 867 l 132 972 l 796 972 l 796 878 l 250 110 l 250 107 l 785 107 l 785 0 l 107 0 m 388 1063 l 296 1181 l 361 1233 l 464 1106 l 565 1233 l 631 1181 l 539 1063 l 388 1063 z "},"ž":{"ha":903,"x_min":146,"x_max":760,"o":"m 146 0 l 146 89 l 608 629 l 608 632 l 172 632 l 172 736 l 758 736 l 758 650 l 300 108 l 300 106 l 760 106 l 760 0 l 146 0 m 383 825 l 292 943 l 357 996 l 460 868 l 561 996 l 626 943 l 535 825 l 383 825 z "},"ſ":{"ha":903,"x_min":233,"x_max":793,"o":"m 457 0 l 457 635 l 233 635 l 233 736 l 458 736 l 458 814 q 500 937 458 901 q 618 972 542 972 l 793 972 l 793 871 l 639 871 q 583 854 597 871 q 568 785 568 838 l 569 0 l 457 0 z "},"ƒ":{"ha":903,"x_min":247,"x_max":794,"o":"m 247 -240 l 385 554 l 249 554 l 265 646 l 401 646 l 436 829 q 632 1035 476 1035 q 794 956 722 1035 l 726 876 q 640 929 681 929 q 578 904 601 929 q 543 811 556 879 l 513 646 l 713 646 l 697 554 l 497 554 l 358 -240 l 247 -240 z "},"Ǻ":{"ha":903,"x_min":68,"x_max":833,"o":"m 713 0 l 647 190 l 249 190 l 189 0 l 68 0 l 388 965 q 317 1092 317 1003 q 351 1186 317 1146 q 438 1232 385 1226 l 518 1356 l 657 1356 l 528 1211 q 589 1092 589 1171 q 514 963 589 999 l 833 0 l 713 0 m 614 290 l 451 818 l 449 818 l 281 290 l 614 290 m 453 1013 q 500 1033 481 1013 q 519 1093 519 1054 q 500 1152 519 1132 q 453 1172 481 1172 q 406 1152 425 1172 q 388 1093 388 1132 q 407 1033 388 1054 q 453 1013 426 1013 z "},"ǻ":{"ha":903,"x_min":160,"x_max":742,"o":"m 639 0 l 639 81 l 636 81 q 557 12 615 44 q 411 -21 499 -21 q 224 39 289 -21 q 160 189 160 99 q 217 333 160 281 q 410 419 275 385 q 573 474 525 449 q 621 549 621 499 q 579 625 621 594 q 467 656 538 656 q 288 510 319 656 l 182 540 q 247 673 196 618 q 379 747 297 728 q 318 868 318 786 q 353 963 318 922 q 440 1008 388 1003 l 518 1129 l 657 1129 l 531 986 q 590 868 590 946 q 535 750 590 790 q 685 674 628 733 q 742 525 742 614 l 742 0 l 639 0 m 436 332 q 308 275 342 306 q 274 196 274 244 q 419 81 274 81 q 574 126 519 81 q 628 236 628 171 l 628 419 l 625 419 q 436 332 606 379 m 454 788 q 501 809 482 788 q 521 869 521 831 q 501 927 521 907 q 454 947 482 947 q 408 928 426 947 q 389 869 389 908 q 408 809 389 831 q 454 788 428 788 z "},"Ǽ":{"ha":903,"x_min":49,"x_max":832,"o":"m 49 0 l 414 972 l 832 972 l 832 867 l 601 867 l 601 551 l 793 551 l 793 450 l 601 450 l 601 106 l 832 106 l 832 0 l 493 0 l 493 207 l 243 207 l 167 0 l 49 0 m 278 307 l 493 307 l 493 881 l 490 881 l 278 307 m 442 1063 l 551 1231 l 690 1231 l 540 1063 l 442 1063 z "},"ǽ":{"ha":903,"x_min":64,"x_max":839,"o":"m 235 419 q 345 481 314 453 q 376 546 376 510 q 351 624 376 592 q 285 657 326 657 q 181 514 197 657 l 88 533 q 150 694 94 631 q 283 757 206 757 q 390 725 343 757 q 457 629 438 693 q 626 757 518 757 q 782 654 725 757 q 839 368 839 551 l 839 335 l 492 335 q 530 156 493 229 q 633 82 567 82 q 680 97 660 82 q 714 140 700 111 q 734 188 728 168 q 747 238 740 207 l 838 204 q 765 42 817 104 q 636 -21 713 -21 q 442 136 506 -21 q 239 -21 388 -21 q 111 39 158 -21 q 64 190 64 99 q 235 419 64 349 m 494 426 l 736 426 q 709 587 736 518 q 628 656 682 656 q 550 615 582 656 q 506 526 518 575 q 494 426 494 476 m 260 336 q 168 196 168 283 q 190 113 168 144 q 256 81 213 81 q 346 127 308 81 q 383 236 383 174 l 383 424 l 381 424 q 352 390 378 408 q 260 336 326 372 m 247 826 l 356 994 l 494 994 l 346 826 l 247 826 z "},"Ǿ":{"ha":903,"x_min":86,"x_max":817,"o":"m 451 -21 q 240 53 328 -21 l 199 -21 l 142 11 l 193 103 q 86 494 86 238 q 194 863 86 732 q 451 993 301 993 q 657 914 565 993 l 703 993 l 760 960 l 704 864 q 817 489 817 726 q 711 104 817 229 q 451 -21 606 -21 m 451 88 q 627 188 560 88 q 694 489 694 289 q 643 756 694 653 l 300 157 q 451 88 360 88 m 208 494 q 260 218 208 321 l 601 817 q 451 883 542 883 q 275 786 342 883 q 208 494 208 689 m 422 1063 l 532 1231 l 671 1231 l 521 1063 l 422 1063 z "},"ǿ":{"ha":903,"x_min":119,"x_max":783,"o":"m 424 826 l 532 994 l 671 994 l 522 826 l 424 826 m 454 -21 q 243 54 328 -21 l 189 -15 l 143 19 l 203 96 q 119 368 119 199 q 217 653 119 549 q 454 757 314 757 q 658 682 571 757 l 713 751 l 758 715 l 699 639 q 783 368 783 535 q 690 82 783 185 q 454 -21 597 -21 m 454 82 q 609 158 547 82 q 671 368 671 233 q 629 550 671 478 l 310 139 q 454 82 369 82 m 232 368 q 274 186 232 258 l 593 597 q 454 654 536 654 q 294 580 357 654 q 232 368 232 506 z "},"Ș":{"ha":903,"x_min":97,"x_max":796,"o":"m 97 335 l 219 358 q 295 152 239 217 q 479 88 351 88 q 628 136 578 88 q 678 256 678 185 q 633 374 678 332 q 433 474 589 417 q 209 588 276 531 q 142 744 142 646 q 223 922 142 851 q 436 993 304 993 q 652 924 561 993 q 760 725 743 856 l 644 700 q 436 883 611 883 q 306 844 351 883 q 261 744 261 804 q 303 656 261 692 q 486 568 344 619 q 731 440 667 501 q 796 261 796 379 q 710 60 796 142 q 475 -21 624 -21 q 97 335 140 -21 m 418 -318 l 418 -269 q 472 -247 457 -264 q 486 -199 486 -231 l 417 -199 l 417 -75 l 558 -75 l 558 -179 q 526 -280 558 -246 q 418 -318 493 -314 z "},"ș":{"ha":903,"x_min":140,"x_max":782,"o":"m 140 250 l 249 271 q 483 78 274 78 q 676 194 676 78 q 636 278 676 250 q 442 344 596 306 q 219 435 274 388 q 167 561 164 482 q 242 698 169 639 q 443 757 315 757 q 649 700 572 757 q 751 551 725 643 l 650 518 q 444 660 601 660 q 321 630 364 660 q 278 564 278 600 q 288 515 278 531 q 347 478 297 500 q 510 428 397 457 q 659 381 603 404 q 741 326 715 357 q 774 268 767 294 q 782 194 781 242 q 713 42 786 104 q 485 -21 640 -21 q 239 55 324 -21 q 140 250 154 131 m 410 -318 l 410 -269 q 463 -247 449 -264 q 478 -199 478 -231 l 408 -199 l 408 -75 l 550 -75 l 550 -179 q 517 -280 550 -246 q 410 -318 485 -314 z "},"ȷ":{"ha":903,"x_min":197,"x_max":642,"o":"m 246 635 l 246 736 l 642 736 l 642 -32 q 574 -210 642 -150 q 407 -271 507 -271 q 276 -238 332 -271 q 197 -174 221 -206 l 269 -93 q 407 -168 332 -168 q 528 -32 528 -168 l 528 635 l 246 635 z "},"ˆ":{"ha":903,"x_min":283,"x_max":618,"o":"m 283 861 l 375 979 l 526 979 l 618 861 l 551 808 l 450 936 l 349 808 l 283 861 z "},"ˇ":{"ha":903,"x_min":283,"x_max":618,"o":"m 375 825 l 283 943 l 349 996 l 451 868 l 553 996 l 618 943 l 526 825 l 375 825 z "},"˘":{"ha":903,"x_min":278,"x_max":624,"o":"m 278 978 l 339 978 q 450 897 354 897 q 528 919 500 897 q 560 978 556 942 l 624 978 q 575 856 624 900 q 450 813 526 813 q 325 856 372 813 q 278 978 278 900 z "},"˙":{"ha":903,"x_min":383,"x_max":518,"o":"m 383 844 l 383 978 l 518 978 l 518 844 l 383 844 z "},"˚":{"ha":903,"x_min":315,"x_max":588,"o":"m 549 766 q 530 746 549 766 q 451 726 511 726 q 353 767 392 726 q 315 868 315 807 q 354 968 315 926 q 451 1010 393 1010 q 549 969 511 1010 q 588 868 588 928 q 549 766 588 806 m 451 788 q 499 809 479 788 q 518 869 518 831 q 499 927 518 907 q 451 947 479 947 q 405 928 424 947 q 386 869 386 908 q 406 809 386 831 q 451 788 425 788 z "},"˛":{"ha":903,"x_min":299,"x_max":603,"o":"m 558 -165 l 603 -204 q 432 -293 532 -293 q 338 -269 376 -293 q 299 -190 299 -246 q 436 0 299 -86 l 514 0 q 403 -162 403 -100 q 467 -217 403 -217 q 558 -165 514 -217 z "},"˜":{"ha":903,"x_min":254,"x_max":647,"o":"m 315 836 l 254 836 q 378 967 279 967 q 464 940 415 967 q 536 914 513 914 q 586 960 575 914 l 647 960 q 525 829 622 829 q 437 856 486 829 q 365 882 388 882 q 315 836 326 882 z "},"˝":{"ha":903,"x_min":240,"x_max":661,"o":"m 240 826 l 344 986 l 472 986 l 328 826 l 240 826 m 429 826 l 533 986 l 661 986 l 517 826 l 429 826 z "},"̒":{"ha":903,"x_min":386,"x_max":515,"o":"m 508 1079 l 508 1035 q 458 972 458 1028 l 515 972 l 515 846 l 386 846 l 386 954 q 508 1079 386 1069 z "},"π":{"ha":903,"x_min":101,"x_max":801,"o":"m 236 0 l 118 0 q 133 49 124 18 q 165 178 142 81 q 205 372 188 275 q 237 604 222 469 q 251 860 251 739 l 101 860 l 101 972 l 801 972 l 801 860 l 692 860 l 692 207 q 710 0 692 81 l 597 0 q 574 199 574 42 l 574 860 l 369 860 q 336 454 369 669 q 269 119 303 239 l 236 0 z "},"Ẁ":{"ha":903,"x_min":79,"x_max":824,"o":"m 189 0 l 79 972 l 197 972 l 274 169 l 276 169 l 415 736 l 489 736 l 626 169 l 629 169 l 706 972 l 824 972 l 714 0 l 579 0 l 453 514 l 450 514 l 325 0 l 189 0 m 403 1063 l 253 1231 l 393 1231 l 501 1063 l 403 1063 z "},"ẁ":{"ha":903,"x_min":104,"x_max":797,"o":"m 225 0 l 104 735 l 217 735 l 293 181 l 296 181 l 394 499 l 497 499 l 593 181 l 596 181 l 686 735 l 797 735 l 663 0 l 558 0 l 446 364 l 443 364 l 331 0 l 225 0 m 389 826 l 239 994 l 379 994 l 488 826 l 389 826 z "},"Ẃ":{"ha":903,"x_min":79,"x_max":824,"o":"m 189 0 l 79 972 l 197 972 l 274 169 l 276 169 l 415 736 l 489 736 l 626 169 l 629 169 l 706 972 l 824 972 l 714 0 l 579 0 l 453 514 l 450 514 l 325 0 l 189 0 m 397 1063 l 507 1231 l 646 1231 l 496 1063 l 397 1063 z "},"ẃ":{"ha":903,"x_min":104,"x_max":797,"o":"m 225 0 l 104 735 l 217 735 l 293 181 l 296 181 l 394 499 l 497 499 l 593 181 l 596 181 l 686 735 l 797 735 l 663 0 l 558 0 l 446 364 l 443 364 l 331 0 l 225 0 m 400 826 l 508 994 l 647 994 l 499 826 l 400 826 z "},"Ẅ":{"ha":903,"x_min":79,"x_max":824,"o":"m 189 0 l 79 972 l 197 972 l 274 169 l 276 169 l 415 736 l 489 736 l 626 169 l 629 169 l 706 972 l 824 972 l 714 0 l 579 0 l 453 514 l 450 514 l 325 0 l 189 0 m 254 1063 l 254 1189 l 381 1189 l 381 1063 l 254 1063 m 521 1063 l 521 1189 l 647 1189 l 647 1063 l 521 1063 z "},"ẅ":{"ha":903,"x_min":104,"x_max":797,"o":"m 225 0 l 104 735 l 217 735 l 293 181 l 296 181 l 394 499 l 497 499 l 593 181 l 596 181 l 686 735 l 797 735 l 663 0 l 558 0 l 446 364 l 443 364 l 331 0 l 225 0 m 256 849 l 256 975 l 382 975 l 382 849 l 256 849 m 522 849 l 522 975 l 649 975 l 649 849 l 522 849 z "},"Ỳ":{"ha":903,"x_min":72,"x_max":831,"o":"m 393 0 l 393 410 l 72 972 l 203 972 l 450 521 l 453 521 l 700 972 l 831 972 l 510 410 l 510 0 l 393 0 m 404 1063 l 254 1231 l 394 1231 l 503 1063 l 404 1063 z "},"ỳ":{"ha":903,"x_min":97,"x_max":756,"o":"m 244 -312 l 383 56 l 97 736 l 219 736 l 438 201 l 440 201 l 636 736 l 756 736 l 360 -312 l 244 -312 m 419 826 l 269 994 l 410 994 l 518 826 l 419 826 z "},"–":{"ha":903,"x_min":104,"x_max":797,"o":"m 104 424 l 104 525 l 797 525 l 797 424 l 104 424 z "},"—":{"ha":903,"x_min":56,"x_max":847,"o":"m 56 424 l 56 525 l 847 525 l 847 424 l 56 424 z "},"‘":{"ha":903,"x_min":369,"x_max":533,"o":"m 533 972 l 533 910 q 467 825 467 897 l 533 825 l 533 661 l 369 661 l 369 804 q 533 972 369 961 z "},"’":{"ha":903,"x_min":369,"x_max":533,"o":"m 369 661 l 369 724 q 436 808 436 736 l 369 808 l 369 972 l 533 972 l 533 829 q 369 661 533 672 z "},"‚":{"ha":903,"x_min":369,"x_max":533,"o":"m 369 -147 l 369 -85 q 436 0 436 -72 l 369 0 l 369 164 l 533 164 l 533 21 q 369 -147 533 -136 z "},"“":{"ha":903,"x_min":243,"x_max":658,"o":"m 407 972 l 407 910 q 340 825 340 897 l 407 825 l 407 661 l 243 661 l 243 804 q 407 972 243 961 m 658 972 l 658 910 q 592 825 592 897 l 658 825 l 658 661 l 494 661 l 494 804 q 658 972 494 961 z "},"”":{"ha":903,"x_min":243,"x_max":658,"o":"m 243 661 l 243 724 q 310 808 310 736 l 243 808 l 243 972 l 407 972 l 407 829 q 243 661 407 672 m 494 661 l 494 724 q 561 808 561 736 l 494 808 l 494 972 l 658 972 l 658 829 q 494 661 658 672 z "},"„":{"ha":903,"x_min":243,"x_max":658,"o":"m 243 -147 l 243 -85 q 310 0 310 -72 l 243 0 l 243 164 l 407 164 l 407 21 q 243 -147 407 -136 m 494 -147 l 494 -85 q 561 0 561 -72 l 494 0 l 494 164 l 658 164 l 658 21 q 494 -147 658 -136 z "},"†":{"ha":903,"x_min":93,"x_max":810,"o":"m 397 -312 l 397 594 l 93 594 l 93 696 l 397 696 l 397 1014 l 506 1014 l 506 696 l 810 696 l 810 594 l 506 594 l 506 -312 l 397 -312 z "},"‡":{"ha":903,"x_min":93,"x_max":810,"o":"m 397 -312 l 397 0 l 93 0 l 93 96 l 397 96 l 397 600 l 93 600 l 93 696 l 397 696 l 397 1014 l 506 1014 l 506 696 l 810 696 l 810 600 l 506 600 l 506 96 l 810 96 l 810 0 l 506 0 l 506 -312 l 397 -312 z "},"•":{"ha":903,"x_min":325,"x_max":578,"o":"m 543 406 q 526 388 543 406 q 451 369 508 369 q 360 406 394 369 q 325 497 325 442 q 360 590 325 554 q 451 626 394 626 q 543 590 508 626 q 578 497 578 554 q 543 406 578 442 z "},"…":{"ha":903,"x_min":92,"x_max":811,"o":"m 92 0 l 92 164 l 256 164 l 256 0 l 92 0 m 374 0 l 374 164 l 538 164 l 538 0 l 374 0 m 647 0 l 647 164 l 811 164 l 811 0 l 647 0 z "},"‰":{"ha":903,"x_min":47,"x_max":856,"o":"m 667 -222 q 525 -139 576 -222 q 386 -222 475 -222 q 249 -145 299 -222 q 199 68 199 -68 q 255 269 199 197 q 386 340 311 340 q 526 256 471 340 q 667 340 581 340 q 799 269 742 340 q 856 68 856 197 q 805 -143 856 -64 q 667 -222 754 -222 m 373 717 q 348 677 373 717 q 235 638 322 638 q 97 715 147 638 q 47 928 47 792 q 103 1128 47 1057 q 235 1200 160 1200 q 367 1128 310 1200 q 424 928 424 1057 q 373 717 424 796 m 599 -81 q 610 -108 599 -81 q 667 -135 622 -135 q 735 -81 711 -135 q 760 67 760 -26 q 667 251 760 251 q 575 67 575 251 q 599 -81 575 -26 m 167 779 q 178 752 167 779 q 235 725 190 725 q 303 779 279 725 q 328 926 328 833 q 235 1111 328 1111 q 143 926 143 1111 q 167 779 143 833 m 386 -135 q 453 -84 429 -135 q 479 54 476 -33 l 479 82 q 386 251 475 251 q 294 67 294 251 q 318 -81 294 -26 q 386 -135 342 -135 m 100 308 l 53 392 l 569 692 l 617 608 l 100 308 z "},"‹":{"ha":903,"x_min":318,"x_max":583,"o":"m 471 132 l 318 390 l 469 649 l 581 649 l 429 390 l 583 132 l 471 132 z "},"›":{"ha":903,"x_min":249,"x_max":514,"o":"m 514 390 l 361 132 l 249 132 l 403 390 l 251 649 l 363 649 l 514 390 z "},"⁄":{"ha":903,"x_min":153,"x_max":750,"o":"m 153 444 l 153 528 l 750 528 l 750 444 l 153 444 z "},"⁰":{"ha":903,"x_min":231,"x_max":672,"o":"m 613 728 q 583 689 613 728 q 451 650 553 650 q 290 728 350 650 q 231 961 231 806 q 291 1181 231 1106 q 451 1257 351 1257 q 612 1181 551 1257 q 672 961 672 1106 q 613 728 672 806 m 451 736 q 576 963 576 736 q 576 985 576 971 q 575 1006 575 999 l 340 835 q 451 736 367 736 m 326 963 q 328 914 326 929 l 560 1083 q 451 1171 531 1171 q 326 963 326 1171 z "},"⁴":{"ha":903,"x_min":236,"x_max":665,"o":"m 236 794 l 236 879 l 461 1250 l 593 1250 l 593 879 l 665 879 l 665 794 l 593 794 l 593 657 l 503 657 l 503 794 l 236 794 m 321 879 l 503 879 l 503 1172 l 500 1172 l 321 879 z "},"⁵":{"ha":903,"x_min":236,"x_max":667,"o":"m 236 808 l 321 846 q 454 735 351 735 q 544 767 510 735 q 578 860 578 800 q 544 951 578 919 q 457 983 510 983 q 331 917 378 983 l 256 951 l 308 1250 l 607 1250 l 607 1165 l 378 1165 l 349 1004 l 351 1004 q 479 1056 393 1056 q 612 1000 557 1056 q 667 858 667 944 q 606 706 667 763 q 454 650 546 650 q 315 693 369 650 q 236 808 260 736 z "},"⁶":{"ha":903,"x_min":231,"x_max":672,"o":"m 379 770 q 397 753 379 770 q 469 736 414 736 q 555 769 525 736 q 585 856 585 801 q 553 942 585 910 q 465 975 522 975 q 378 941 411 975 q 344 861 344 907 q 379 770 344 804 m 324 968 l 326 968 q 380 1022 339 996 q 486 1049 421 1049 q 616 996 560 1049 q 672 853 672 943 q 614 704 672 758 q 469 650 556 650 q 298 724 365 650 q 231 946 231 799 q 295 1168 231 1079 q 465 1257 360 1257 q 591 1215 544 1257 q 650 1108 638 1172 l 567 1085 q 461 1175 542 1175 q 363 1119 401 1175 q 324 968 324 1063 z "},"⁷":{"ha":903,"x_min":254,"x_max":646,"o":"m 282 657 l 560 1164 l 560 1167 l 254 1167 l 254 1250 l 646 1250 l 646 1149 l 385 657 l 282 657 z "},"⁸":{"ha":903,"x_min":244,"x_max":657,"o":"m 382 1154 q 370 1142 382 1154 q 358 1094 358 1129 q 381 1036 358 1060 q 450 1013 404 1013 q 519 1036 496 1013 q 542 1094 542 1060 q 518 1154 542 1129 q 450 1179 494 1179 q 382 1154 406 1179 m 349 976 l 349 979 q 271 1103 271 1013 q 321 1212 271 1167 q 450 1257 371 1257 q 581 1212 529 1257 q 632 1103 632 1167 q 554 979 632 1015 l 554 976 q 628 921 599 961 q 657 828 657 881 q 600 697 657 744 q 450 650 543 650 q 301 697 357 650 q 244 828 244 744 q 273 921 244 881 q 349 976 301 961 m 333 836 q 363 764 333 792 q 450 736 392 736 q 538 764 508 736 q 567 836 567 792 q 536 913 567 883 q 450 942 506 942 q 364 913 394 942 q 333 836 333 883 z "},"⁹":{"ha":903,"x_min":238,"x_max":665,"o":"m 258 794 l 342 824 q 457 733 364 733 q 579 936 581 733 l 576 936 q 533 885 571 911 q 431 858 494 858 q 295 913 353 858 q 238 1056 238 967 q 296 1202 238 1147 q 439 1257 354 1257 q 601 1181 538 1257 q 665 950 665 1104 q 608 724 665 797 q 453 650 551 650 q 258 794 297 650 m 443 938 q 528 967 496 938 q 560 1050 560 997 q 526 1138 560 1103 q 439 1174 493 1174 q 357 1142 389 1174 q 325 1056 325 1110 q 357 969 325 1001 q 443 938 389 938 z "},"⁺":{"ha":903,"x_min":218,"x_max":685,"o":"m 407 715 l 407 931 l 218 931 l 218 1013 l 407 1013 l 407 1204 l 494 1204 l 494 1013 l 685 1013 l 685 931 l 494 931 l 494 715 l 407 715 z "},"⁻":{"ha":903,"x_min":239,"x_max":664,"o":"m 239 931 l 239 1013 l 664 1013 l 664 931 l 239 931 z "},"₀":{"ha":903,"x_min":231,"x_max":672,"o":"m 613 -207 q 583 -246 613 -207 q 451 -285 553 -285 q 290 -207 350 -285 q 231 26 231 -129 q 291 247 231 171 q 451 322 351 322 q 612 247 551 322 q 672 26 672 171 q 613 -207 672 -129 m 451 -199 q 576 28 576 -199 q 576 50 576 36 q 575 71 575 64 l 340 -100 q 451 -199 367 -199 m 326 28 q 328 -21 326 -6 l 560 149 q 451 236 531 236 q 326 28 326 236 z "},"₁":{"ha":903,"x_min":251,"x_max":651,"o":"m 251 -278 l 251 -192 l 413 -192 l 413 208 l 285 129 l 285 231 l 421 315 l 503 315 l 503 -192 l 651 -192 l 651 -278 l 251 -278 z "},"₂":{"ha":903,"x_min":249,"x_max":654,"o":"m 254 -278 l 254 -206 q 290 -81 254 -132 q 421 8 317 -46 q 445 22 428 13 q 469 35 463 32 q 489 46 475 38 q 508 58 503 54 q 524 70 513 63 q 538 83 535 78 q 548 97 542 89 q 556 112 554 104 q 560 129 558 119 q 563 149 563 139 q 535 213 563 185 q 458 240 508 240 q 338 113 349 240 l 249 124 q 310 270 254 218 q 458 322 365 322 q 597 273 544 322 q 650 143 650 224 q 608 33 650 74 q 492 -46 567 -8 q 369 -126 385 -103 q 356 -186 356 -144 l 654 -186 l 654 -278 l 254 -278 z "},"₃":{"ha":903,"x_min":239,"x_max":663,"o":"m 239 -82 l 329 -62 q 369 -167 338 -133 q 458 -201 400 -201 q 545 -174 515 -201 q 575 -103 575 -147 q 543 -28 575 -54 q 453 -1 511 -1 l 417 -1 l 417 72 l 444 72 q 517 91 485 72 q 550 151 550 110 q 525 215 550 192 q 454 239 500 239 q 354 140 368 239 l 268 157 q 326 278 275 233 q 457 322 378 322 q 586 279 535 322 q 638 164 638 236 q 612 85 638 115 q 557 46 586 56 l 557 43 q 630 -7 597 31 q 663 -108 663 -44 q 608 -235 663 -185 q 458 -285 553 -285 q 310 -234 368 -285 q 239 -82 251 -183 z "},"₄":{"ha":903,"x_min":236,"x_max":665,"o":"m 236 -140 l 236 -56 l 461 315 l 593 315 l 593 -56 l 665 -56 l 665 -140 l 593 -140 l 593 -278 l 503 -278 l 503 -140 l 236 -140 m 321 -56 l 503 -56 l 503 238 l 500 238 l 321 -56 z "},"₅":{"ha":903,"x_min":236,"x_max":667,"o":"m 236 -126 l 321 -89 q 454 -200 351 -200 q 544 -167 510 -200 q 578 -75 578 -135 q 544 17 578 -15 q 457 49 510 49 q 331 -18 378 49 l 256 17 l 308 315 l 607 315 l 607 231 l 378 231 l 349 69 l 351 69 q 479 121 393 121 q 612 65 557 121 q 667 -76 667 10 q 606 -228 667 -172 q 454 -285 546 -285 q 315 -242 369 -285 q 236 -126 260 -199 z "},"₆":{"ha":903,"x_min":231,"x_max":672,"o":"m 379 -166 q 397 -183 379 -166 q 469 -200 414 -200 q 555 -167 525 -200 q 585 -81 585 -135 q 553 6 585 -26 q 465 39 522 39 q 378 5 411 39 q 344 -75 344 -29 q 379 -166 344 -132 m 324 32 l 326 32 q 380 86 339 60 q 486 113 421 113 q 616 60 560 113 q 672 -83 672 7 q 614 -232 672 -178 q 469 -286 556 -286 q 298 -212 365 -286 q 231 10 231 -137 q 295 232 231 143 q 465 321 360 321 q 591 278 544 321 q 650 172 638 236 l 567 149 q 461 239 542 239 q 363 183 401 239 q 324 32 324 126 z "},"₇":{"ha":903,"x_min":254,"x_max":646,"o":"m 282 -278 l 560 229 l 560 232 l 254 232 l 254 315 l 646 315 l 646 214 l 385 -278 l 282 -278 z "},"₈":{"ha":903,"x_min":244,"x_max":657,"o":"m 382 219 q 370 207 382 219 q 358 160 358 194 q 381 101 358 125 q 450 78 404 78 q 519 101 496 78 q 542 160 542 125 q 518 219 542 194 q 450 244 494 244 q 382 219 406 244 m 349 42 l 349 44 q 271 168 271 78 q 321 277 271 232 q 450 322 371 322 q 581 277 529 322 q 632 168 632 232 q 554 44 632 81 l 554 42 q 628 -14 599 26 q 657 -107 657 -54 q 600 -237 657 -190 q 450 -285 543 -285 q 301 -237 357 -285 q 244 -107 244 -190 q 273 -14 244 -54 q 349 42 301 26 m 333 -99 q 363 -171 333 -143 q 450 -199 392 -199 q 538 -171 508 -199 q 567 -99 567 -143 q 536 -22 567 -51 q 450 7 506 7 q 364 -22 394 7 q 333 -99 333 -51 z "},"₉":{"ha":903,"x_min":238,"x_max":665,"o":"m 258 -140 l 342 -111 q 457 -201 364 -201 q 579 1 581 -201 l 576 1 q 533 -49 571 -22 q 431 -76 494 -76 q 295 -22 353 -76 q 238 121 238 32 q 296 267 238 213 q 439 322 354 322 q 601 246 538 322 q 665 15 665 169 q 608 -211 665 -137 q 453 -285 551 -285 q 258 -140 297 -285 m 443 3 q 528 33 496 3 q 560 115 560 63 q 526 203 560 168 q 439 239 493 239 q 357 207 389 239 q 325 121 325 175 q 357 35 325 67 q 443 3 389 3 z "},"€":{"ha":903,"x_min":97,"x_max":806,"o":"m 272 540 l 272 494 q 275 419 272 467 l 576 419 l 576 326 l 286 326 q 361 147 307 207 q 493 88 415 88 q 629 164 582 88 q 685 361 676 240 l 806 346 q 710 78 794 178 q 493 -21 626 -21 q 281 65 371 -21 q 163 326 192 150 l 97 326 l 97 419 l 153 419 q 150 494 150 467 q 151 540 150 525 l 97 540 l 97 633 l 160 633 q 279 900 188 807 q 493 993 371 993 q 703 899 619 993 q 803 654 788 804 l 686 633 q 625 814 672 744 q 493 883 578 883 q 358 821 414 883 q 282 633 303 758 l 576 633 l 576 540 l 272 540 z "},"™":{"ha":903,"x_min":99,"x_max":781,"o":"m 201 501 l 201 899 l 99 899 l 99 972 l 374 972 l 374 899 l 279 899 l 279 501 l 201 501 m 414 501 l 414 972 l 521 972 l 596 789 l 599 789 l 672 972 l 781 972 l 781 501 l 703 501 l 703 867 l 700 867 l 625 675 l 569 675 l 494 865 l 492 865 l 492 501 l 414 501 z "},"Ω":{"ha":903,"x_min":78,"x_max":825,"o":"m 82 0 l 82 97 l 251 97 q 127 259 176 149 q 78 501 78 369 q 184 867 78 740 q 451 993 290 993 q 719 867 613 993 q 825 501 825 740 q 776 258 825 368 q 650 97 726 149 l 821 97 l 821 0 l 500 0 l 500 93 q 646 214 588 111 q 704 482 704 317 q 633 784 704 683 q 451 885 563 885 q 270 783 342 885 q 199 482 199 682 q 253 214 199 317 q 389 93 308 111 l 389 0 l 82 0 z "},"⅓":{"ha":903,"x_min":153,"x_max":750,"o":"m 240 -65 l 331 -46 q 370 -151 339 -117 q 460 -185 401 -185 q 547 -158 517 -185 q 576 -86 576 -131 q 544 -11 576 -37 q 454 15 513 15 l 418 15 l 418 89 l 446 89 q 519 108 486 89 q 551 168 551 126 q 526 232 551 208 q 456 256 501 256 q 356 157 369 256 l 269 174 q 328 294 276 250 q 458 339 379 339 q 588 296 536 339 q 639 181 639 253 q 613 102 639 132 q 558 63 588 72 l 558 60 q 631 10 599 47 q 664 -92 664 -28 q 609 -218 664 -168 q 460 -268 554 -268 q 311 -217 369 -268 q 240 -65 253 -167 m 153 443 l 153 526 l 750 526 l 750 443 l 153 443 m 251 643 l 251 729 l 413 729 l 413 1129 l 285 1050 l 285 1151 l 421 1236 l 503 1236 l 503 729 l 651 729 l 651 643 l 251 643 z "},"⅔":{"ha":903,"x_min":153,"x_max":750,"o":"m 153 444 l 153 528 l 750 528 l 750 444 l 153 444 m 254 643 l 254 715 q 290 840 254 789 q 421 929 317 875 q 445 943 428 933 q 469 956 463 953 q 489 967 475 958 q 508 979 503 975 q 524 991 513 983 q 538 1004 535 999 q 548 1017 542 1010 q 556 1033 554 1025 q 560 1050 558 1040 q 563 1069 563 1060 q 535 1133 563 1106 q 458 1161 508 1161 q 338 1033 349 1161 l 249 1044 q 310 1191 254 1139 q 458 1243 365 1243 q 597 1194 544 1243 q 650 1064 650 1144 q 608 953 650 994 q 492 875 567 913 q 369 794 385 818 q 356 735 356 776 l 654 735 l 654 643 l 254 643 m 240 -65 l 331 -46 q 370 -151 339 -117 q 460 -185 401 -185 q 547 -158 517 -185 q 576 -86 576 -131 q 544 -11 576 -37 q 454 15 513 15 l 418 15 l 418 89 l 446 89 q 519 108 486 89 q 551 168 551 126 q 526 232 551 208 q 456 256 501 256 q 356 157 369 256 l 269 174 q 328 294 276 250 q 458 339 379 339 q 588 296 536 339 q 639 181 639 253 q 613 102 639 132 q 558 63 588 72 l 558 60 q 631 10 599 47 q 664 -92 664 -28 q 609 -218 664 -168 q 460 -268 554 -268 q 311 -217 369 -268 q 240 -65 253 -167 z "},"⅕":{"ha":903,"x_min":153,"x_max":750,"o":"m 236 -110 l 321 -72 q 454 -183 351 -183 q 544 -151 510 -183 q 578 -58 578 -118 q 544 33 578 1 q 457 65 510 65 q 331 -1 378 65 l 256 33 l 308 332 l 607 332 l 607 247 l 378 247 l 349 86 l 351 86 q 479 138 393 138 q 612 82 557 138 q 667 -60 667 26 q 606 -212 667 -156 q 454 -268 546 -268 q 315 -225 369 -268 q 236 -110 260 -182 m 153 443 l 153 526 l 750 526 l 750 443 l 153 443 m 251 643 l 251 729 l 413 729 l 413 1129 l 285 1050 l 285 1151 l 421 1236 l 503 1236 l 503 729 l 651 729 l 651 643 l 251 643 z "},"⅖":{"ha":903,"x_min":153,"x_max":750,"o":"m 236 -110 l 321 -72 q 454 -183 351 -183 q 544 -151 510 -183 q 578 -58 578 -118 q 544 33 578 1 q 457 65 510 65 q 331 -1 378 65 l 256 33 l 308 332 l 607 332 l 607 247 l 378 247 l 349 86 l 351 86 q 479 138 393 138 q 612 82 557 138 q 667 -60 667 26 q 606 -212 667 -156 q 454 -268 546 -268 q 315 -225 369 -268 q 236 -110 260 -182 m 153 444 l 153 528 l 750 528 l 750 444 l 153 444 m 254 643 l 254 715 q 290 840 254 789 q 421 929 317 875 q 445 943 428 933 q 469 956 463 953 q 489 967 475 958 q 508 979 503 975 q 524 991 513 983 q 538 1004 535 999 q 548 1017 542 1010 q 556 1033 554 1025 q 560 1050 558 1040 q 563 1069 563 1060 q 535 1133 563 1106 q 458 1161 508 1161 q 338 1033 349 1161 l 249 1044 q 310 1191 254 1139 q 458 1243 365 1243 q 597 1194 544 1243 q 650 1064 650 1144 q 608 953 650 994 q 492 875 567 913 q 369 794 385 818 q 356 735 356 776 l 654 735 l 654 643 l 254 643 z "},"⅗":{"ha":903,"x_min":153,"x_max":750,"o":"m 236 -110 l 321 -72 q 454 -183 351 -183 q 544 -151 510 -183 q 578 -58 578 -118 q 544 33 578 1 q 457 65 510 65 q 331 -1 378 65 l 256 33 l 308 332 l 607 332 l 607 247 l 378 247 l 349 86 l 351 86 q 479 138 393 138 q 612 82 557 138 q 667 -60 667 26 q 606 -212 667 -156 q 454 -268 546 -268 q 315 -225 369 -268 q 236 -110 260 -182 m 153 444 l 153 528 l 750 528 l 750 444 l 153 444 m 240 839 l 331 858 q 370 753 339 788 q 460 719 401 719 q 547 747 517 719 q 576 818 576 774 q 544 893 576 867 q 454 919 513 919 l 418 919 l 418 993 l 446 993 q 519 1012 486 993 q 551 1072 551 1031 q 526 1136 551 1113 q 456 1160 501 1160 q 356 1061 369 1160 l 269 1078 q 328 1199 276 1154 q 458 1243 379 1243 q 588 1200 536 1243 q 639 1085 639 1157 q 613 1006 639 1036 q 558 967 588 976 l 558 964 q 631 914 599 951 q 664 813 664 876 q 609 686 664 736 q 460 636 554 636 q 311 687 369 636 q 240 839 253 738 z "},"⅘":{"ha":903,"x_min":153,"x_max":750,"o":"m 153 444 l 153 528 l 750 528 l 750 444 l 153 444 m 238 781 l 238 865 l 463 1236 l 594 1236 l 594 865 l 667 865 l 667 781 l 594 781 l 594 643 l 504 643 l 504 781 l 238 781 m 322 865 l 504 865 l 504 1158 l 501 1158 l 322 865 m 236 -111 l 321 -74 q 454 -185 351 -185 q 544 -152 510 -185 q 578 -60 578 -119 q 544 32 578 0 q 457 64 510 64 q 331 -3 378 64 l 256 32 l 308 331 l 607 331 l 607 246 l 378 246 l 349 85 l 351 85 q 479 136 393 136 q 612 81 557 136 q 667 -61 667 25 q 606 -213 667 -157 q 454 -269 546 -269 q 315 -226 369 -269 q 236 -111 260 -183 z "},"⅙":{"ha":903,"x_min":153,"x_max":750,"o":"m 379 -148 q 397 -165 379 -148 q 469 -182 414 -182 q 555 -149 525 -182 q 585 -62 585 -117 q 553 24 585 -8 q 465 57 522 57 q 378 23 411 57 q 344 -57 344 -11 q 379 -148 344 -114 m 324 50 l 326 50 q 380 104 339 78 q 486 131 421 131 q 616 78 560 131 q 672 -65 672 25 q 614 -214 672 -160 q 469 -268 556 -268 q 298 -194 365 -268 q 231 28 231 -119 q 295 250 231 161 q 465 339 360 339 q 591 297 544 339 q 650 190 638 254 l 567 167 q 461 257 542 257 q 363 201 401 257 q 324 50 324 144 m 153 443 l 153 526 l 750 526 l 750 443 l 153 443 m 251 643 l 251 729 l 413 729 l 413 1129 l 285 1050 l 285 1151 l 421 1236 l 503 1236 l 503 729 l 651 729 l 651 643 l 251 643 z "},"⅚":{"ha":903,"x_min":153,"x_max":750,"o":"m 153 444 l 153 528 l 750 528 l 750 444 l 153 444 m 236 794 l 321 832 q 454 721 351 721 q 544 753 510 721 q 578 846 578 786 q 544 938 578 906 q 457 969 510 969 q 331 903 378 969 l 256 938 l 308 1236 l 607 1236 l 607 1151 l 378 1151 l 349 990 l 351 990 q 479 1042 393 1042 q 612 986 557 1042 q 667 844 667 931 q 606 692 667 749 q 454 636 546 636 q 315 679 369 636 q 236 794 260 722 m 379 -148 q 397 -165 379 -148 q 469 -182 414 -182 q 555 -149 525 -182 q 585 -62 585 -117 q 553 24 585 -8 q 465 57 522 57 q 378 23 411 57 q 344 -57 344 -11 q 379 -148 344 -114 m 324 50 l 326 50 q 380 104 339 78 q 486 131 421 131 q 616 78 560 131 q 672 -65 672 25 q 614 -214 672 -160 q 469 -268 556 -268 q 298 -194 365 -268 q 231 28 231 -119 q 295 250 231 161 q 465 339 360 339 q 591 297 544 339 q 650 190 638 254 l 567 167 q 461 257 542 257 q 363 201 401 257 q 324 50 324 144 z "},"⅛":{"ha":903,"x_min":153,"x_max":750,"o":"m 383 236 q 372 224 383 236 q 360 176 360 211 q 383 118 360 142 q 451 94 406 94 q 520 118 497 94 q 543 176 543 142 q 519 236 543 211 q 451 261 496 261 q 383 236 407 261 m 350 58 l 350 61 q 272 185 272 94 q 322 294 272 249 q 451 339 372 339 q 582 294 531 339 q 633 185 633 249 q 556 61 633 97 l 556 58 q 629 3 600 43 q 658 -90 658 -37 q 601 -221 658 -174 q 451 -268 544 -268 q 302 -221 358 -268 q 246 -90 246 -174 q 274 3 246 -37 q 350 58 303 43 m 335 -82 q 364 -154 335 -126 q 451 -182 393 -182 q 539 -154 510 -182 q 568 -82 568 -126 q 538 -6 568 -35 q 451 24 507 24 q 365 -6 396 24 q 335 -82 335 -35 m 153 443 l 153 526 l 750 526 l 750 443 l 153 443 m 251 643 l 251 729 l 413 729 l 413 1129 l 285 1050 l 285 1151 l 421 1236 l 503 1236 l 503 729 l 651 729 l 651 643 l 251 643 z "},"⅜":{"ha":903,"x_min":153,"x_max":750,"o":"m 383 236 q 372 224 383 236 q 360 176 360 211 q 383 118 360 142 q 451 94 406 94 q 520 118 497 94 q 543 176 543 142 q 519 236 543 211 q 451 261 496 261 q 383 236 407 261 m 350 58 l 350 61 q 272 185 272 94 q 322 294 272 249 q 451 339 372 339 q 582 294 531 339 q 633 185 633 249 q 556 61 633 97 l 556 58 q 629 3 600 43 q 658 -90 658 -37 q 601 -221 658 -174 q 451 -268 544 -268 q 302 -221 358 -268 q 246 -90 246 -174 q 274 3 246 -37 q 350 58 303 43 m 335 -82 q 364 -154 335 -126 q 451 -182 393 -182 q 539 -154 510 -182 q 568 -82 568 -126 q 538 -6 568 -35 q 451 24 507 24 q 365 -6 396 24 q 335 -82 335 -35 m 153 444 l 153 528 l 750 528 l 750 444 l 153 444 m 240 839 l 331 858 q 370 753 339 788 q 460 719 401 719 q 547 747 517 719 q 576 818 576 774 q 544 893 576 867 q 454 919 513 919 l 418 919 l 418 993 l 446 993 q 519 1012 486 993 q 551 1072 551 1031 q 526 1136 551 1113 q 456 1160 501 1160 q 356 1061 369 1160 l 269 1078 q 328 1199 276 1154 q 458 1243 379 1243 q 588 1200 536 1243 q 639 1085 639 1157 q 613 1006 639 1036 q 558 967 588 976 l 558 964 q 631 914 599 951 q 664 813 664 876 q 609 686 664 736 q 460 636 554 636 q 311 687 369 636 q 240 839 253 738 z "},"⅝":{"ha":903,"x_min":153,"x_max":750,"o":"m 153 444 l 153 528 l 750 528 l 750 444 l 153 444 m 236 794 l 321 832 q 454 721 351 721 q 544 753 510 721 q 578 846 578 786 q 544 938 578 906 q 457 969 510 969 q 331 903 378 969 l 256 938 l 308 1236 l 607 1236 l 607 1151 l 378 1151 l 349 990 l 351 990 q 479 1042 393 1042 q 612 986 557 1042 q 667 844 667 931 q 606 692 667 749 q 454 636 546 636 q 315 679 369 636 q 236 794 260 722 m 383 236 q 372 224 383 236 q 360 176 360 211 q 383 118 360 142 q 451 94 406 94 q 520 118 497 94 q 543 176 543 142 q 519 236 543 211 q 451 261 496 261 q 383 236 407 261 m 350 58 l 350 61 q 272 185 272 94 q 322 294 272 249 q 451 339 372 339 q 582 294 531 339 q 633 185 633 249 q 556 61 633 97 l 556 58 q 629 3 600 43 q 658 -90 658 -37 q 601 -221 658 -174 q 451 -268 544 -268 q 302 -221 358 -268 q 246 -90 246 -174 q 274 3 246 -37 q 350 58 303 43 m 335 -82 q 364 -154 335 -126 q 451 -182 393 -182 q 539 -154 510 -182 q 568 -82 568 -126 q 538 -6 568 -35 q 451 24 507 24 q 365 -6 396 24 q 335 -82 335 -35 z "},"⅞":{"ha":903,"x_min":153,"x_max":750,"o":"m 153 444 l 153 528 l 750 528 l 750 444 l 153 444 m 314 643 l 592 1150 l 592 1153 l 286 1153 l 286 1236 l 678 1236 l 678 1135 l 417 643 l 314 643 m 383 236 q 372 224 383 236 q 360 176 360 211 q 383 118 360 142 q 451 94 406 94 q 520 118 497 94 q 543 176 543 142 q 519 236 543 211 q 451 261 496 261 q 383 236 407 261 m 350 58 l 350 61 q 272 185 272 94 q 322 294 272 249 q 451 339 372 339 q 582 294 531 339 q 633 185 633 249 q 556 61 633 97 l 556 58 q 629 3 600 43 q 658 -90 658 -37 q 601 -221 658 -174 q 451 -268 544 -268 q 302 -221 358 -268 q 246 -90 246 -174 q 274 3 246 -37 q 350 58 303 43 m 335 -82 q 364 -154 335 -126 q 451 -182 393 -182 q 539 -154 510 -182 q 568 -82 568 -126 q 538 -6 568 -35 q 451 24 507 24 q 365 -6 396 24 q 335 -82 335 -35 z "},"←":{"ha":903,"x_min":-35,"x_max":800,"o":"m 800 535 l 800 428 l 132 428 l 308 140 l 208 79 l -35 481 l 207 878 l 307 818 l 132 535 l 800 535 z "},"↑":{"ha":903,"x_min":56,"x_max":847,"o":"m 504 735 l 506 58 l 397 58 l 399 735 l 114 556 l 56 653 l 451 892 l 847 653 l 789 556 l 504 735 z "},"→":{"ha":903,"x_min":35,"x_max":869,"o":"m 35 428 l 35 535 l 703 535 l 528 818 l 628 878 l 869 481 l 626 79 l 526 140 l 703 428 l 35 428 z "},"↓":{"ha":903,"x_min":56,"x_max":847,"o":"m 506 894 l 504 218 l 789 397 l 847 300 l 451 61 l 56 300 l 114 397 l 399 218 l 397 894 l 506 894 z "},"↔":{"ha":903,"x_min":26,"x_max":876,"o":"m 719 428 l 183 428 l 361 146 l 265 86 l 26 481 l 263 869 l 360 810 l 185 533 l 718 533 l 544 810 l 642 869 l 876 481 l 638 86 l 542 146 l 719 428 z "},"↕":{"ha":903,"x_min":53,"x_max":849,"o":"m 53 292 l 111 388 l 394 208 l 394 746 l 111 567 l 53 664 l 451 903 l 849 664 l 790 567 l 507 746 l 507 208 l 790 388 l 849 292 l 451 51 l 53 292 z "},"↖":{"ha":903,"x_min":85,"x_max":818,"o":"m 818 196 l 746 122 l 264 604 l 188 275 l 85 299 l 194 749 l 639 857 l 663 753 l 338 678 l 818 196 z "},"↗":{"ha":903,"x_min":15,"x_max":749,"o":"m 88 122 l 15 196 l 496 678 l 171 753 l 194 857 l 639 749 l 749 299 l 646 275 l 569 604 l 88 122 z "},"↘":{"ha":903,"x_min":15,"x_max":749,"o":"m 15 760 l 88 833 l 569 351 l 646 681 l 749 657 l 639 207 l 194 99 l 171 203 l 496 278 l 15 760 z "},"↙":{"ha":903,"x_min":85,"x_max":818,"o":"m 746 833 l 818 760 l 338 278 l 663 203 l 639 99 l 194 207 l 85 657 l 188 681 l 264 351 l 746 833 z "},"↳":{"ha":903,"x_min":33,"x_max":869,"o":"m 33 426 l 33 972 l 149 972 l 149 536 l 703 536 l 529 818 l 629 878 l 869 481 l 625 79 l 525 139 l 701 426 l 33 426 z "},"↵":{"ha":903,"x_min":-36,"x_max":800,"o":"m 800 972 l 800 426 l 132 426 l 308 139 l 208 79 l -36 481 l 204 878 l 304 818 l 131 536 l 685 536 l 685 972 l 800 972 z "},"∂":{"ha":903,"x_min":113,"x_max":789,"o":"m 308 929 l 256 1006 l 269 1015 q 295 1033 283 1025 q 329 1053 307 1042 q 372 1074 351 1065 q 421 1088 393 1082 q 475 1094 449 1094 q 712 948 635 1094 q 789 554 789 801 q 755 260 789 385 q 640 57 721 135 q 435 -21 558 -21 q 200 69 286 -21 q 113 319 114 160 q 130 458 113 393 q 183 576 147 522 q 280 663 218 631 q 422 694 342 694 q 686 625 528 694 q 629 896 683 793 q 474 999 575 999 q 428 993 451 999 q 385 977 406 988 q 351 958 365 967 q 322 939 338 950 l 308 929 m 435 82 q 679 524 661 82 q 429 596 539 596 q 270 517 319 596 q 221 319 221 439 q 276 149 221 215 q 435 82 331 82 z "},"∆":{"ha":903,"x_min":42,"x_max":861,"o":"m 42 0 l 390 972 l 514 972 l 861 0 l 42 0 m 201 107 l 701 107 l 451 832 l 201 107 z "},"∏":{"ha":903,"x_min":83,"x_max":818,"o":"m 257 -196 l 257 799 l 83 799 l 83 903 l 818 903 l 818 799 l 649 799 l 649 -196 l 540 -196 l 540 799 l 365 799 l 365 -196 l 257 -196 z "},"∑":{"ha":903,"x_min":115,"x_max":788,"o":"m 115 -139 l 115 -8 l 449 431 l 129 840 l 129 972 l 788 972 l 788 864 l 256 864 l 589 432 l 235 -32 l 788 -32 l 788 -139 l 115 -139 z "},"−":{"ha":903,"x_min":92,"x_max":810,"o":"m 92 478 l 92 575 l 810 575 l 810 478 l 92 478 z "},"√":{"ha":903,"x_min":74,"x_max":829,"o":"m 372 0 l 207 479 l 74 479 l 74 579 l 289 579 l 432 154 l 713 972 l 829 972 l 492 0 l 372 0 z "},"∞":{"ha":903,"x_min":75,"x_max":821,"o":"m 618 156 q 520 188 565 156 q 451 271 475 221 q 379 188 426 221 q 278 156 332 156 q 133 231 190 156 q 75 421 75 307 q 132 613 75 536 q 276 689 189 689 q 380 653 332 689 q 451 563 428 617 q 520 653 474 617 q 619 689 567 689 q 764 613 707 689 q 821 421 821 536 q 763 231 821 307 q 618 156 706 156 m 417 421 q 279 585 363 585 q 214 554 239 585 q 182 490 189 524 q 175 421 175 457 q 182 352 175 385 q 215 290 189 319 q 282 260 240 260 q 417 421 365 260 m 486 421 q 614 260 536 260 q 681 290 656 260 q 714 352 707 319 q 721 421 721 385 q 717 471 721 446 q 702 524 713 496 q 670 568 692 551 q 617 585 649 585 q 486 421 538 585 z "},"∫":{"ha":903,"x_min":214,"x_max":688,"o":"m 214 -333 l 214 -229 q 357 -192 319 -229 q 394 -57 394 -156 l 394 740 q 460 969 394 903 q 688 1035 526 1035 l 688 931 q 541 890 576 931 q 506 739 506 850 l 506 -40 q 440 -268 506 -203 q 214 -333 374 -333 z "},"≈":{"ha":903,"x_min":113,"x_max":790,"o":"m 185 567 l 113 606 q 181 734 131 679 q 308 789 232 789 q 421 758 367 789 q 521 698 475 728 q 604 668 567 668 q 650 678 631 668 q 684 713 669 688 q 703 748 699 738 q 718 792 707 758 l 790 754 q 726 623 771 676 q 604 569 681 569 q 491 600 546 569 q 391 660 436 631 q 308 690 346 690 q 185 567 224 690 m 185 264 l 113 301 q 181 431 131 375 q 308 486 232 486 q 421 456 367 486 q 521 395 475 425 q 604 365 567 365 q 650 375 631 365 q 684 410 669 385 q 703 445 699 435 q 718 489 707 456 l 790 450 q 725 320 771 374 q 604 267 679 267 q 491 297 546 267 q 391 358 436 328 q 308 388 346 388 q 185 264 224 388 z "},"≠":{"ha":903,"x_min":129,"x_max":772,"o":"m 129 579 l 129 676 l 499 676 l 593 844 l 661 806 l 589 676 l 772 676 l 772 579 l 533 579 l 457 443 l 772 443 l 772 346 l 403 346 l 307 175 l 240 214 l 314 346 l 129 346 l 129 443 l 368 443 l 444 579 l 129 579 z "},"≤":{"ha":903,"x_min":150,"x_max":751,"o":"m 150 0 l 150 97 l 751 97 l 751 0 l 150 0 m 150 526 l 151 624 l 693 947 l 747 861 l 269 575 l 746 288 l 692 200 l 150 526 z "},"≥":{"ha":903,"x_min":81,"x_max":682,"o":"m 682 97 l 682 0 l 81 0 l 81 97 l 682 97 m 681 624 l 682 526 l 140 200 l 86 288 l 563 575 l 85 861 l 139 947 l 681 624 z "},"◊":{"ha":903,"x_min":89,"x_max":813,"o":"m 371 0 l 89 494 l 374 972 l 528 972 l 813 494 l 529 0 l 371 0 m 450 67 l 697 494 l 450 903 l 204 494 l 450 67 z "},"":{"ha":903,"x_min":381,"x_max":522,"o":"m 382 -318 l 382 -269 q 435 -247 421 -264 q 450 -199 450 -231 l 381 -199 l 381 -75 l 522 -75 l 522 -179 q 490 -280 522 -246 q 382 -318 457 -314 z "},"":{"ha":903,"x_min":44,"x_max":858,"o":"m 44 0 l 44 588 q 164 872 44 750 q 450 993 283 993 q 738 872 618 993 q 858 588 858 750 l 858 0 l 819 0 l 729 90 l 635 0 l 547 90 l 449 0 l 353 90 l 265 0 l 172 90 l 81 0 l 44 0 m 531 524 q 559 455 531 483 q 628 426 588 426 q 698 456 668 426 q 728 524 728 485 q 698 594 728 565 q 628 624 668 624 q 559 594 588 624 q 531 524 531 565 m 176 524 q 206 455 176 483 q 275 426 235 426 q 345 455 317 426 q 374 524 374 483 q 345 594 374 565 q 275 624 317 624 q 206 594 235 624 q 176 524 176 565 z "}}}
